<svg width="799" height="684" viewBox="0 0 799 684" fill="none" xmlns="http://www.w3.org/2000/svg">
<path d="M4.38163 235.727V398.493C5.68258 401.784 6.34961 405.646 4.68222 408.314C2.41584 411.941 3.7053 423.58 3.7053 428.94C3.7053 445.883 5.05796 462.472 5.05796 479.273C5.05796 488.371 3.7053 497.607 3.7053 506.875V531.771V585.952V638.149C3.7053 641.846 3.02898 645.896 3.02898 650.056C3.02898 653.997 1.67633 657.122 1.67633 661.121C1.67633 666.317 3.44843 674.408 6.41061 676.515C9.25431 678.538 9.88013 680.604 13.2114 680.604C16.5399 680.604 19.6646 679.522 22.9806 679.522H43.9091H63.5226H74.0432C79.5816 679.522 85.1565 682.769 90.6508 682.769C102.048 682.769 113.429 683.273 124.768 682.769C129.515 682.558 134.203 681.687 138.971 681.687C142.195 681.687 145.307 679.522 148.589 679.522C165.571 679.522 182.536 678.44 199.464 678.44C215.227 678.44 231.274 679.522 247.183 679.522H268.675C276.699 679.522 284.724 678.44 292.797 678.44C324.433 678.44 356.436 679.522 388.234 679.522C421.563 679.522 454.503 676.536 487.804 678.44C494.735 678.836 501.722 678.44 508.658 678.44C517.421 678.44 525.841 680.604 534.621 680.604C547.552 680.604 560.488 680.858 573.472 680.604C582.386 680.43 591.191 678.44 600.225 678.44C606.196 678.44 612.933 679.924 618.786 681.627C626.765 683.948 636.342 681.687 644.524 681.687C651.941 681.687 659.386 682.769 666.843 682.769C672.137 682.769 677.406 680.604 682.737 680.604C688.685 680.604 695.515 679.221 701.223 681.927C706.593 684.474 712.337 681.687 717.755 681.687C723.989 681.687 730.066 679.522 736.166 679.522H754.728C765.338 679.522 775.209 681.687 785.876 681.687C790.425 681.687 793.005 676.949 795.007 671.344C796.043 668.441 795.683 664.925 795.683 661.662C795.683 657.874 797.036 654.08 797.036 650.838C797.036 635.272 797.712 619.516 797.712 603.752C797.712 596.431 796.359 589.517 796.359 582.645V555.043V504.169C796.359 496.672 797.712 489.76 797.712 482.52V457.625C797.712 449.979 796.359 442.936 796.359 435.495V401.88C796.359 393.178 795.007 384.732 795.007 376.383V349.923C795.007 329.449 795.683 309.352 795.683 289.007C795.683 279.996 797.036 271.954 797.036 262.788C797.036 255.609 796.359 248.25 796.359 241.38C796.359 227.631 793.803 211.11 795.721 197.301C797.698 183.059 797.712 168.301 797.712 153.463C797.712 145.958 798.384 137.577 797.674 130.191C796.849 121.604 795.007 114.189 795.007 105.295C795.007 97.7512 794.33 90.3356 794.33 82.5639V64.1626C794.33 56.9449 795.007 49.7982 795.007 43.0553C795.007 39.4305 796.927 36.4579 797.036 33.3135C797.153 29.9329 797.712 27.2204 797.712 23.5717C797.712 17.3734 797.308 13.7454 794.18 9.74065C793.423 8.77184 792.147 9.96976 791.287 8.89877C790.497 7.91562 789.717 6.16154 788.92 5.41095C786.858 3.46983 784.474 4.08798 782.156 4.08798C779.915 4.08798 777.616 1.92313 775.055 1.92313C772.683 1.92313 770.139 3.00556 767.615 3.00556C761.77 3.00556 755.676 4.08798 749.693 4.08798H732.371C726.654 4.08798 717.135 6.89112 712.157 2.46434C708.848 -0.477776 700.83 1.92313 697.09 1.92313H681.083C663.659 1.92313 645.816 4.08798 628.33 4.08798H600.375C592.273 4.08798 583.769 2.82402 575.727 4.32852C564.393 6.44872 553.211 6.25283 541.76 6.25283C533.093 6.25283 524.418 3.00556 515.684 3.00556C479.26 3.00556 442.965 1.92313 406.57 1.92313C384.004 1.92313 361.735 4.08798 339.163 4.08798H288.363C277.496 4.08798 266.765 3.00556 255.975 3.00556C249.667 3.00556 243.043 5.17041 236.7 5.17041C229.215 5.17041 222.159 6.25283 214.719 6.25283H200.216C195.519 6.25283 189.673 7.57407 185.111 5.41095C182.286 4.07145 178.333 4.6667 175.417 4.14812C170.667 3.30346 165.507 4.08798 160.726 4.08798H136.904H99.4054C87.8938 4.08798 76.2601 6.25283 64.7249 6.25283H31.4347C22.9365 6.25283 15.1909 0.422972 8.10142 9.50011C5.44379 12.9028 3.7053 22.1178 3.7053 27.3601C3.7053 35.7859 2.35265 43.2434 2.35265 51.6546V76.8511C2.35265 84.5867 3.44733 91.9097 3.7053 99.3415C3.96352 106.78 5.73428 111.738 5.73428 119.366C5.73428 127.385 5.05796 134.972 5.05796 143.12C5.05796 174.023 4.38163 205.144 4.38163 235.727Z" fill="white"/>
<path d="M4.38163 405.668C4.38163 348.863 4.38163 292.624 4.38163 235.727C4.38163 205.144 5.05796 174.023 5.05796 143.12C5.05796 134.972 5.73428 127.385 5.73428 119.366C5.73428 111.738 3.96352 106.78 3.7053 99.3415C3.44733 91.9097 2.35265 84.5867 2.35265 76.8511C2.35265 68.4523 2.35265 60.0534 2.35265 51.6546C2.35265 43.2434 3.7053 35.7859 3.7053 27.3601C3.7053 22.1177 5.44379 12.9028 8.10142 9.50011C15.1909 0.422972 22.9365 6.25283 31.4347 6.25283C42.5314 6.25283 53.6282 6.25283 64.7249 6.25283C76.2601 6.25283 87.8938 4.08798 99.4054 4.08798C111.905 4.08798 124.404 4.08798 136.904 4.08798C144.845 4.08798 152.785 4.08798 160.726 4.08798C165.507 4.08798 170.667 3.30346 175.417 4.14812C178.333 4.6667 182.286 4.07145 185.111 5.41095C189.672 7.57407 195.519 6.25283 200.216 6.25283C205.05 6.25283 209.885 6.25283 214.719 6.25283C222.159 6.25283 229.215 5.17041 236.7 5.17041C243.043 5.17041 249.667 3.00556 255.975 3.00556C266.765 3.00556 277.496 4.08798 288.363 4.08798C305.297 4.08798 322.23 4.08798 339.163 4.08798C361.735 4.08798 384.004 1.92313 406.57 1.92313C442.965 1.92313 479.26 3.00556 515.684 3.00556C524.418 3.00556 533.093 6.25283 541.76 6.25283C553.211 6.25283 564.393 6.44872 575.727 4.32852C583.769 2.82402 592.273 4.08798 600.375 4.08798C609.693 4.08798 619.012 4.08798 628.33 4.08798C645.816 4.08798 663.659 1.92313 681.083 1.92313C686.419 1.92313 691.754 1.92313 697.09 1.92313C700.83 1.92313 708.848 -0.477776 712.157 2.46434C717.135 6.89112 726.654 4.08798 732.371 4.08798C738.145 4.08798 743.919 4.08798 749.693 4.08798C755.676 4.08798 761.77 3.00556 767.615 3.00556C770.139 3.00556 772.683 1.92313 775.055 1.92313C777.616 1.92313 779.915 4.08798 782.156 4.08798C784.474 4.08798 786.858 3.46983 788.92 5.41095C789.717 6.16154 790.497 7.91562 791.287 8.89877C792.147 9.96977 793.423 8.77184 794.18 9.74065C797.308 13.7454 797.712 17.3734 797.712 23.5717C797.712 27.2204 797.153 29.9329 797.036 33.3135C796.927 36.4579 795.007 39.4305 795.007 43.0553C795.007 49.7982 794.33 56.9449 794.33 64.1626C794.33 69.7637 794.33 76.6246 794.33 82.5639C794.33 90.3356 795.007 97.7512 795.007 105.295C795.007 114.189 796.849 121.604 797.674 130.191C798.384 137.577 797.712 145.958 797.712 153.463C797.712 168.301 797.698 183.059 795.721 197.301C793.803 211.11 796.359 227.631 796.359 241.38C796.359 248.25 797.036 255.609 797.036 262.788C797.036 271.954 795.683 279.996 795.683 289.007C795.683 309.352 795.007 329.449 795.007 349.923C795.007 358.743 795.007 367.563 795.007 376.382C795.007 384.732 796.359 393.178 796.359 401.88C796.359 413.085 796.359 424.29 796.359 435.495C796.359 442.936 797.712 449.979 797.712 457.625C797.712 465.923 797.712 474.222 797.712 482.52C797.712 489.76 796.359 496.672 796.359 504.169C796.359 521.127 796.359 538.085 796.359 555.043C796.359 564.244 796.359 573.444 796.359 582.645C796.359 589.517 797.712 596.431 797.712 603.752C797.712 619.516 797.036 635.272 797.036 650.838C797.036 654.08 795.683 657.874 795.683 661.662C795.683 664.925 796.043 668.441 795.007 671.344C793.005 676.949 790.425 681.687 785.876 681.687C775.209 681.687 765.338 679.522 754.728 679.522C748.541 679.522 742.353 679.522 736.166 679.522C730.066 679.522 723.989 681.687 717.755 681.687C712.337 681.687 706.593 684.474 701.223 681.927C695.515 679.221 688.685 680.604 682.737 680.604C677.406 680.604 672.137 682.769 666.843 682.769C659.386 682.769 651.941 681.687 644.524 681.687C636.342 681.687 626.765 683.948 618.786 681.627C612.933 679.924 606.196 678.44 600.225 678.44C591.191 678.44 582.386 680.43 573.472 680.604C560.488 680.858 547.552 680.604 534.621 680.604C525.841 680.604 517.421 678.44 508.658 678.44C501.722 678.44 494.735 678.836 487.804 678.44C454.503 676.536 421.563 679.522 388.234 679.522C356.436 679.522 324.433 678.44 292.797 678.44C284.724 678.44 276.699 679.522 268.675 679.522C261.516 679.522 254.246 679.522 247.183 679.522C231.274 679.522 215.227 678.44 199.464 678.44C182.536 678.44 165.571 679.522 148.589 679.522C145.307 679.522 142.195 681.687 138.97 681.687C134.203 681.687 129.515 682.558 124.768 682.769C113.429 683.273 102.048 682.769 90.6508 682.769C85.1565 682.769 79.5816 679.522 74.0432 679.522C70.5363 679.522 67.0295 679.522 63.5226 679.522C56.9848 679.522 50.4469 679.522 43.9091 679.522C36.933 679.522 29.9568 679.522 22.9806 679.522C19.6646 679.522 16.5399 680.604 13.2114 680.604C9.88013 680.604 9.25431 678.538 6.41061 676.515C3.44843 674.408 1.67633 666.317 1.67633 661.121C1.67633 657.122 3.02898 653.997 3.02898 650.056C3.02898 645.896 3.7053 641.847 3.7053 638.149C3.7053 620.75 3.7053 603.351 3.7053 585.952C3.7053 567.892 3.7053 549.831 3.7053 531.771C3.7053 523.472 3.7053 515.174 3.7053 506.875C3.7053 497.607 5.05796 488.371 5.05796 479.273C5.05796 462.472 3.7053 445.883 3.7053 428.94C3.7053 423.58 2.41584 411.941 4.68222 408.314C7.64456 403.573 3.23848 395.067 1 392.679" stroke="#040D26" stroke-width="2" stroke-linecap="round"/>
</svg>
