<svg width="40" height="40" viewBox="0 0 40 40" fill="none" xmlns="http://www.w3.org/2000/svg">
<circle cx="20" cy="20" r="19" stroke="white" stroke-opacity="0.1" stroke-width="2"/>
<path d="M23.3333 13.3333H16.6666C14.8256 13.3333 13.3333 14.8257 13.3333 16.6667V23.3333C13.3333 25.1743 14.8256 26.6667 16.6666 26.6667H23.3333C25.1742 26.6667 26.6666 25.1743 26.6666 23.3333V16.6667C26.6666 14.8257 25.1742 13.3333 23.3333 13.3333Z" stroke="white" stroke-width="1.5" stroke-linecap="round" stroke-linejoin="round"/>
<path d="M22.6666 19.58C22.7488 20.1348 22.6541 20.7015 22.3957 21.1993C22.1374 21.6972 21.7287 22.1009 21.2276 22.3531C20.7266 22.6053 20.1589 22.6931 19.6051 22.604C19.0513 22.5148 18.5397 22.2534 18.1431 21.8568C17.7465 21.4602 17.485 20.9486 17.3959 20.3948C17.3068 19.841 17.3946 19.2733 17.6468 18.7723C17.8989 18.2712 18.3027 17.8625 18.8005 17.6042C19.2984 17.3458 19.8651 17.2511 20.4199 17.3333C20.9858 17.4173 21.5098 17.681 21.9143 18.0855C22.3189 18.4901 22.5826 19.0141 22.6666 19.58Z" stroke="white" stroke-width="1.5" stroke-linecap="round" stroke-linejoin="round"/>
<path d="M23.6667 16.3333H23.6734" stroke="white" stroke-width="1.5" stroke-linecap="round" stroke-linejoin="round"/>
</svg>
