<svg width="48" height="48" viewBox="0 0 48 48" fill="none" xmlns="http://www.w3.org/2000/svg">
<g opacity="0.3">
<path d="M14 35C17.3137 35 20 32.3137 20 29C20 25.6863 17.3137 23 14 23C10.6863 23 8 25.6863 8 29C8 32.3137 10.6863 35 14 35Z" fill="white" stroke="white" stroke-width="2"/>
<path d="M13.9996 13L8.4375 26.75" stroke="white" stroke-width="2" stroke-linecap="round"/>
<path d="M34 35C37.3137 35 40 32.3137 40 29C40 25.6863 37.3137 23 34 23C30.6863 23 28 25.6863 28 29C28 32.3137 30.6863 35 34 35Z" fill="white" stroke="white" stroke-width="2"/>
<path d="M33.9996 13L28.4375 26.75" stroke="white" stroke-width="2" stroke-linecap="round"/>
</g>
</svg>
