<svg width="40" height="40" viewBox="0 0 40 40" fill="none" xmlns="http://www.w3.org/2000/svg">
<circle cx="20" cy="20" r="19" stroke="white" stroke-opacity="0.1" stroke-width="2"/>
<path d="M27.3334 14C26.695 14.4503 25.9882 14.7947 25.2401 15.02C24.8386 14.5583 24.305 14.2311 23.7114 14.0826C23.1179 13.9341 22.4931 13.9715 21.9215 14.1896C21.3499 14.4078 20.859 14.7963 20.5154 15.3025C20.1718 15.8087 19.9919 16.4082 20.0001 17.02V17.6867C18.8285 17.717 17.6676 17.4572 16.6208 16.9303C15.5739 16.4034 14.6736 15.6258 14.0001 14.6667C14.0001 14.6667 11.3334 20.6667 17.3334 23.3333C15.9604 24.2653 14.3249 24.7326 12.6667 24.6667C18.6667 28 26.0001 24.6667 26.0001 17C25.9995 16.8143 25.9816 16.6291 25.9467 16.4467C26.6272 15.7757 27.1073 14.9285 27.3334 14Z" fill="white"/>
</svg>
