<svg width="40" height="40" viewBox="0 0 40 40" fill="none" xmlns="http://www.w3.org/2000/svg">
<circle cx="20" cy="20" r="19" stroke="white" stroke-opacity="0.1" stroke-width="2"/>
<path d="M27.0266 16.28C26.9474 15.9636 26.7862 15.6737 26.5591 15.4396C26.332 15.2055 26.0471 15.0355 25.7333 14.9467C24.5866 14.6667 20 14.6667 20 14.6667C20 14.6667 15.4133 14.6667 14.2666 14.9733C13.9528 15.0621 13.668 15.2322 13.4409 15.4663C13.2138 15.7004 13.0525 15.9903 12.9733 16.3067C12.7635 17.4704 12.6608 18.6509 12.6666 19.8333C12.6592 21.0247 12.7618 22.2142 12.9733 23.3867C13.0606 23.6932 13.2255 23.9721 13.4521 24.1963C13.6786 24.4205 13.9592 24.5825 14.2666 24.6667C15.4133 24.9733 20 24.9733 20 24.9733C20 24.9733 24.5866 24.9733 25.7333 24.6667C26.0471 24.5779 26.332 24.4078 26.5591 24.1737C26.7862 23.9396 26.9474 23.6497 27.0266 23.3333C27.2349 22.1784 27.3375 21.0069 27.3333 19.8333C27.3408 18.642 27.2381 17.4525 27.0266 16.28Z" fill="white"/>
<path d="M18.5 22.0133L22.3333 19.8333L18.5 17.6533V22.0133Z" fill="black"/>
</svg>
