<svg width="442" height="529" viewBox="0 0 442 529" fill="none" xmlns="http://www.w3.org/2000/svg">
<path d="M4.02269 396.554C3.76273 394.082 3.22039 391.712 2.24252 389.628C1.57049 388.195 0.135791 381.412 1.71331 380.217C4.23494 378.306 4.27795 374.516 4.27795 371.577V339.655V328.843V196.975V94.5358C4.27795 80.6085 5.01071 66.6243 5.01071 52.5341C5.01071 45.3957 4.27795 38.1622 4.27795 31.3597C4.27795 28.0081 6.29317 24.9356 6.47622 21.9874C6.69331 18.4907 7.00064 14.9292 7.20897 11.5737C7.30168 10.0805 10.7444 5.56166 11.9719 4.63132C15.088 2.26941 15.2819 1.1601 19.6658 1.1601H43.4804H155.714H318.996H343.544C346.076 1.1601 347.615 2.54859 350.464 2.54859C353.756 2.54859 357.235 2.86712 360.478 2.39431C369.57 1.06909 378.603 1.1601 387.916 1.1601H403.63C405.036 1.1601 407.488 0.712367 408.759 1.31438C410.904 2.33038 411.703 3.24283 414.254 3.24283H424.879C429.382 3.24283 429.179 6.77511 431.637 9.33674C434.553 12.3753 436.893 13.7478 438.028 17.5134C439.067 20.957 438.069 25.9987 438.069 29.5855C438.069 37.5324 438.802 45.2344 438.802 53.2283C438.802 72.0864 437.336 90.7996 437.336 109.462V139.16C437.336 144.797 438.069 150.036 438.069 155.591C438.069 161.437 439.535 166.967 439.535 172.638V202.838C439.535 213.708 436.603 224.345 436.603 235.274C436.603 256.245 438.802 276.875 438.802 297.679V411.303V425.69C438.802 429.359 441 432.002 441 435.756V458.666C441 467.57 440.854 475.432 438.842 484.006C437.304 490.565 439.219 498.455 438.802 505.181C438.679 507.164 436.222 511.406 435.138 513.203C433.549 515.837 431.83 518.161 428.95 519.605C426.525 520.822 425.683 524.55 423.007 525.275C419.603 526.197 414.536 525.314 410.957 525.314C400.446 525.314 389.208 526.328 378.553 526.702C365.902 527.146 353.038 527.396 340.246 527.396C334.405 527.396 325.669 528.852 319.933 527.242C317.345 526.516 314.716 526.702 312.035 526.702C307.651 526.702 303.561 525.314 299.171 525.314H256.02C228.045 525.314 200.497 523.231 172.445 523.231C160.702 523.231 149.068 523.925 137.273 523.925H114.924C107.455 523.925 100.017 521.842 92.5342 521.842C79.4288 521.842 65.7961 519.936 52.5991 521.187C48.9935 521.528 46.2172 523.231 42.3812 523.231H32.4483C26.4106 523.231 18.4808 524.71 13.071 521.997C8.45751 519.683 5.01071 513.537 5.01071 508.652C5.01071 504.836 5.17772 501.994 3.17882 498.585C1.25657 495.307 2.07969 489.413 2.07969 485.742C2.07969 480.895 1.34693 476.071 1.34693 471.163C1.34693 467.32 2.81244 463.876 2.81244 460.055C2.81244 450.83 3.5452 441.278 3.5452 431.899C3.5452 424.624 2.81244 417.853 2.81244 410.416C2.81244 405.78 3.4387 401.175 4.02269 396.554Z" fill="white"/>
<path d="M3.5452 410.069C4.28511 403.76 5.01764 395.543 2.24252 389.628C1.57049 388.195 0.135791 381.412 1.71331 380.217C4.23494 378.306 4.27795 374.516 4.27795 371.577C4.27795 357.565 4.27795 342.884 4.27795 328.843C4.27795 284.887 4.27795 240.931 4.27795 196.975C4.27795 162.829 4.27795 128.682 4.27795 94.5358C4.27795 80.6085 5.01071 66.6243 5.01071 52.5341C5.01071 45.3957 4.27795 38.1622 4.27795 31.3597C4.27795 28.0081 6.29317 24.9356 6.47622 21.9874C6.69331 18.4907 7.00064 14.9292 7.20897 11.5737C7.30168 10.0805 10.7444 5.56166 11.9719 4.63132C15.088 2.26941 15.2819 1.1601 19.6658 1.1601C27.604 1.1601 35.5422 1.1601 43.4804 1.1601C80.8916 1.1601 118.303 1.1601 155.714 1.1601C210.141 1.1601 264.569 1.1601 318.996 1.1601C327.179 1.1601 335.361 1.1601 343.544 1.1601C346.076 1.1601 347.615 2.54859 350.464 2.54859C353.756 2.54859 357.235 2.86712 360.478 2.39431C369.57 1.06909 378.603 1.1601 387.916 1.1601C393.154 1.1601 398.392 1.1601 403.63 1.1601C405.036 1.1601 407.488 0.712367 408.759 1.31438C410.904 2.33038 411.703 3.24283 414.254 3.24283C417.796 3.24283 421.338 3.24283 424.879 3.24283C429.382 3.24283 429.179 6.77511 431.637 9.33674C434.553 12.3753 436.893 13.7478 438.028 17.5134C439.067 20.957 438.069 25.9987 438.069 29.5855C438.069 37.5324 438.802 45.2344 438.802 53.2283C438.802 72.0864 437.336 90.7996 437.336 109.462C437.336 119.361 437.336 129.261 437.336 139.16C437.336 144.797 438.069 150.036 438.069 155.591C438.069 161.437 439.535 166.967 439.535 172.638C439.535 182.705 439.535 192.771 439.535 202.838C439.535 213.708 436.603 224.345 436.603 235.274C436.603 256.245 438.802 276.875 438.802 297.679C438.802 335.574 438.802 373.303 438.802 411.303C438.802 416.099 438.802 420.894 438.802 425.69C438.802 429.359 441 432.002 441 435.756C441 443.393 441 451.03 441 458.666C441 467.57 440.854 475.432 438.842 484.006C437.304 490.565 439.219 498.455 438.802 505.181C438.679 507.164 436.222 511.406 435.138 513.203C433.549 515.837 431.83 518.161 428.95 519.605C426.525 520.822 425.683 524.55 423.007 525.275C419.602 526.197 414.536 525.314 410.957 525.314C400.446 525.314 389.208 526.328 378.553 526.702C365.902 527.146 353.038 527.396 340.246 527.396C334.405 527.396 325.669 528.852 319.933 527.242C317.345 526.516 314.716 526.702 312.035 526.702C307.651 526.702 303.561 525.314 299.171 525.314C284.787 525.314 270.404 525.314 256.02 525.314C228.045 525.314 200.497 523.231 172.445 523.231C160.702 523.231 149.068 523.925 137.273 523.925C129.823 523.925 122.374 523.925 114.924 523.925C107.455 523.925 100.017 521.842 92.5342 521.842C79.4288 521.842 65.796 519.936 52.5991 521.187C48.9935 521.528 46.2172 523.231 42.3812 523.231C39.0703 523.231 35.7593 523.231 32.4483 523.231C26.4106 523.231 18.4808 524.71 13.071 521.997C8.45751 519.683 5.01071 513.537 5.01071 508.652C5.01071 504.836 5.17772 501.994 3.17882 498.585C1.25657 495.307 2.07969 489.413 2.07969 485.742C2.07969 480.895 1.34693 476.071 1.34693 471.163C1.34693 467.32 2.81244 463.876 2.81244 460.055C2.81244 450.83 3.5452 441.278 3.5452 431.899C3.5452 424.624 2.81244 417.853 2.81244 410.416C2.81244 401.731 5.01071 393.151 5.01071 384.382C5.01071 369.077 7.39933 351.086 3.5452 336.479" stroke="#040D26" stroke-width="2" stroke-linecap="round"/>
</svg>
