<svg width="504" height="168" viewBox="0 0 504 168" fill="none" xmlns="http://www.w3.org/2000/svg">
<path d="M4.35541 32.5248C4.2933 23.6462 11.4406 16.4895 20.3193 16.5398L370.023 18.5242L482.942 19.165C491.821 19.2154 499.069 26.4538 499.131 35.3324L499.226 48.9866L499.833 135.665C499.895 144.544 492.748 151.7 483.869 151.65L21.2461 149.025C12.3674 148.974 5.11944 141.736 5.05732 132.857L4.35541 32.5248Z" fill="white"/>
<path d="M5.98198 139.634C5.92834 137.989 5.8747 136.343 5.82106 134.698C5.78187 133.496 5.28008 131.92 5.78898 130.752C6.77934 128.478 5.54165 126.127 5.46781 123.862C5.43446 122.839 5.43197 121.814 5.36772 120.792C5.31107 119.891 4.44547 119.163 4.41609 118.262C4.29095 114.424 3.73276 110.632 3.60714 106.778C3.50539 103.657 5.21999 129.586 5.11985 126.514C4.61483 111.023 4.54554 95.5671 4.03989 80.0568C3.9149 76.2226 3.35741 72.4522 3.23291 68.6333C3.10512 64.7136 4.72165 60.9785 4.59354 57.0487C4.49803 54.119 5.30949 50.4775 4.18994 47.6309C3.55215 46.0092 2.43504 44.1594 2.3802 42.4772C2.33671 41.1431 2.64427 39.5381 2.21773 38.234C1.50781 36.0635 1.22504 33.7039 1.15235 31.4742C1.0949 29.712 3.77882 27.5156 6.20911 26.6239C7.18214 26.2669 7.98865 25.3421 9.19491 24.8995C10.5846 24.3896 12.851 23.9065 14.4723 23.8537C20.2122 23.6665 25.9521 23.4794 31.6921 23.2923C40.8165 22.9948 49.9408 22.6974 59.0652 22.3999C66.4392 22.1595 73.7608 22.4632 81.102 22.2239C91.9388 21.8706 102.775 21.5173 113.612 21.164C123.12 20.8541 132.693 19.9996 142.198 19.6897C162.907 19.0146 183.615 18.3395 204.324 17.6644C214.502 17.3326 224.721 17.1589 234.914 16.9383C246.242 16.6931 257.462 16.2032 268.799 15.8337C290.133 15.1381 311.422 14.1729 332.773 13.4769C342.637 13.1553 352.501 12.8337 362.365 12.5122C372.179 12.1922 382.198 11.5213 392.007 11.6061C408.58 11.7493 425.224 11.0053 441.849 10.4633C456.122 9.99799 470.22 8.99603 484.519 8.52985C488.117 8.41256 491.673 8.0181 493.794 10.1258C494.586 10.9132 495.473 11.2594 495.505 12.2394C495.538 13.2653 496.006 14.2742 496.036 15.2051C496.119 17.7505 496.637 20.3067 496.721 22.8963C496.749 23.7357 496.986 24.7086 496.711 25.5482C496.382 26.5514 495.196 27.5422 495.168 28.5814C495.121 30.3612 494.435 32.0459 494.059 33.8152C493.399 36.9272 494.653 40.2028 494.321 43.3281C493.876 47.52 493.322 51.9209 493.458 56.1168C493.592 60.2099 492.531 64.1288 493.394 68.2014C494.264 72.3093 494.986 76.3125 495.122 80.4988C495.255 84.552 496.031 88.6268 496.389 92.6908C496.766 96.9696 496.925 101.116 496.466 105.434C495.943 110.363 495.315 86.4164 495.476 91.3457C495.61 95.4442 495.743 99.5427 495.877 103.641C496.162 112.376 495.142 121.095 495.428 129.855C495.478 131.39 495.528 132.925 495.578 134.46C495.626 135.953 496.313 137.978 495.305 139.41C494.511 140.537 494.026 141.705 492.802 142.626C491.361 143.709 490.082 143.766 488.103 144.376C486.873 144.755 485.407 144.527 484.109 144.807C482.24 145.211 480.344 145.162 478.507 145.532C475.825 146.073 473.226 146.367 470.45 146.458C466.209 146.596 461.582 147.889 457.319 147.293C455.305 147.011 452.768 147.231 450.759 147.506C447.122 148.005 442.882 148.024 439.207 147.883C436.047 147.762 432.608 147.691 429.45 147.794C422.469 148.022 415.667 147.634 408.707 147.672C395.923 147.742 383.126 148.678 370.369 149.178C355.108 149.776 340.004 152.066 324.753 152.563C310.68 153.022 296.602 153.752 282.508 154.212C256.078 155.074 229.642 155.935 203.186 156.798C195.377 157.052 187.737 156.217 179.95 156.471C174.443 156.65 168.936 156.83 163.429 157.009C147.562 157.526 131.901 157.224 116.037 157.741C102.076 158.196 88.1225 158.38 74.16 158.835C69.8328 158.976 65.7884 159.754 61.5568 160.3C60.108 160.487 58.5175 160.429 57.0479 160.477C53.1189 160.605 49.2236 160.974 45.3116 161.131C39.2055 161.377 33.0905 161.529 26.9824 161.729C24.8673 161.798 22.7245 161.93 20.6134 161.876C18.326 161.818 16.0683 161.355 13.836 161.344C12.5146 161.337 11.0508 159.111 10.9413 158.455C10.7321 157.201 9.99697 156.149 9.95384 154.826C9.84509 151.49 9.73633 148.154 9.62758 144.818C9.577 143.267 9.67346 142.105 8.40934 140.775C7.25807 139.564 6.35623 137.784 6.31012 136.369" stroke="#0D1C2E" stroke-width="2" stroke-linecap="round"/>
</svg>
