<svg width="1150" height="201" viewBox="0 0 1150 201" fill="none" xmlns="http://www.w3.org/2000/svg">
<rect x="1" y="6" width="1146" height="190" rx="36" fill="white"/>
<path d="M621.467 3.76302C602.279 3.76302 583.445 4.68402 564.317 4.68402C558.834 4.68402 553.749 2.84201 548.13 2.84201C542.409 2.84201 536.665 3.76302 531.145 3.76302C520.865 3.76302 511.024 4.68402 500.771 4.68402C480.672 4.68402 460.542 5.60503 440.273 5.60503C434.178 5.60503 428.248 6.52604 422.039 6.52604C417.101 6.52604 412.957 5.60503 407.851 5.60503C395.223 5.60503 382.897 4.68402 370.183 4.68402C344.97 4.68402 320.054 5.60503 294.848 5.60503C281.995 5.60503 269.889 3.76302 257.08 3.76302C243.432 3.76302 230.549 5.60503 217.015 5.60503C196.755 5.60503 175.725 6.52604 155.168 6.52604C144.993 6.52604 134.818 6.52604 124.644 6.52604C113.24 6.52604 102.149 4.68402 90.9228 4.68402C80.8715 4.68402 71.2898 3.76302 61.2483 3.76302C51.3367 3.76302 40.2359 3.92337 30.8744 7.24237C23.4641 9.86957 13.4845 10.9752 8.89323 18.4991C6.22885 22.8654 3.69768 23.2771 3.69768 29.0395C3.69768 33.7904 3.95491 38.624 3.69768 43.3663C3.14576 53.5415 1 63.6838 1 74.22C1 85.9324 1.89923 97.5623 1.89923 109.167C1.89923 119.639 1.89923 130.111 1.89923 140.584C1.89923 145.828 2.79846 150.626 2.79846 155.729C2.79846 158.475 2.79846 161.221 2.79846 163.967C2.79846 166.37 4.59691 168.161 4.59691 170.926C4.59691 174.551 7.40795 179.929 9.09305 182.95C11.8954 187.973 14.9508 190.759 19.8838 193.286C27.9818 197.433 40.5269 197.174 49.7582 197.174C55.9861 197.174 62.2141 197.174 68.4421 197.174C71.8364 197.174 74.7337 195.332 78.3336 195.332C81.5955 195.332 84.4713 193.554 87.7256 193.49C95.7936 193.331 103.886 193.49 111.955 193.49C122.294 193.49 132.39 195.979 142.578 196.253C158.901 196.693 174.514 198.095 190.837 198.095C198.813 198.095 206.528 197.174 214.517 197.174C223.143 197.174 233.254 197.185 241.893 196.202C249.01 195.392 256.056 193.49 263.375 193.49C271.068 193.49 278.762 193.49 286.455 193.49C299.194 193.49 311.933 193.49 324.672 193.49C331.716 193.49 338.76 193.49 345.804 193.49C349.334 193.49 352.865 193.49 356.395 193.49C361.897 193.49 366.936 195.189 372.381 195.332C381.322 195.567 389.924 197.174 399.008 197.174C406.852 197.174 414.695 197.174 422.538 197.174C455.962 197.174 489.512 194.411 523.002 194.411C540.419 194.411 557.632 192.569 575.107 192.569C595.721 192.569 616.679 193.857 637.254 194.411C646.408 194.658 655.46 196.253 664.68 196.253C669.46 196.253 674.239 196.253 679.018 196.253C684.69 196.253 689.824 198.247 695.604 198.095C714.726 197.593 733.868 195.135 752.955 194.411C762.105 194.064 771.209 191.648 780.431 191.648C788.457 191.648 796.484 191.648 804.51 191.648C825.524 191.648 846.523 190.727 867.456 190.727C883.038 190.727 900.094 188.668 915.015 192.979C920.388 194.53 926.637 195.032 932.201 195.332C937.801 195.634 943.335 197.174 948.986 197.174C957.296 197.174 965.605 197.174 973.915 197.174C986.808 197.174 999.797 198.691 1012.63 199.886C1017.85 200.372 1022.77 199.155 1027.92 199.016C1033.53 198.865 1037.74 197.494 1043.21 196.458C1050.62 195.052 1058.59 195.332 1066.14 195.332C1069.05 195.332 1073.75 196.246 1076.48 195.128C1079.47 193.901 1081.23 193.49 1084.57 193.49C1091.13 193.49 1099.28 193.059 1105.7 191.597C1106.74 191.361 1106.74 190.054 1107.6 189.857C1109.13 189.509 1110.88 189.891 1112.45 189.806C1114.51 189.695 1117.84 188.467 1119.84 187.76C1129.64 184.287 1139.42 176.178 1139.42 164.734C1139.42 159.623 1141.86 154.01 1142.12 149.282C1142.43 143.573 1142.07 136.92 1143.07 131.271C1145.45 117.846 1145.01 104.105 1146.67 90.4911C1149.17 70.0201 1150.7 46.3134 1145.72 25.9183C1144.06 19.1334 1136.02 7.44704 1128.63 7.44704C1118.31 7.44704 1108.64 5.60503 1098.26 5.60503C1085.95 5.60503 1074.12 7.44704 1061.69 7.44704C1054.15 7.44704 1046.6 7.44704 1039.06 7.44704C1023.91 7.44704 1008.26 4.87735 993.248 7.24237C983.804 8.73049 973.425 7.44704 963.874 7.44704C958.418 7.44704 950.381 6.00873 945.19 7.90754C937.884 10.5797 925.635 8.36805 917.913 8.36805C908.213 8.36805 898.779 6.52604 889.088 6.52604C861.363 6.52604 833.938 5.60503 806.259 5.60503C771.933 5.60503 737.547 2.84201 703.497 2.84201C687.666 2.84201 671.77 1 655.838 1C642.808 1 630.926 2.84201 617.871 2.84201" stroke="#202426" stroke-width="2" stroke-linecap="round"/>
</svg>
