<svg width="954" height="310" viewBox="0 0 954 310" fill="none" xmlns="http://www.w3.org/2000/svg">
<rect x="1" y="8" width="950" height="294" rx="36" fill="white"/>
<path d="M515.534 5.27643C499.622 5.27643 484.003 6.70191 468.141 6.70191C463.594 6.70191 459.378 3.85095 454.718 3.85095C449.973 3.85095 445.21 5.27643 440.632 5.27643C432.108 5.27643 423.947 6.70191 415.444 6.70191C398.777 6.70191 382.083 8.12738 365.275 8.12738C360.221 8.12738 355.303 9.55286 350.154 9.55286C346.059 9.55286 342.623 8.12738 338.388 8.12738C327.916 8.12738 317.695 6.70191 307.152 6.70191C286.243 6.70191 265.582 8.12738 244.679 8.12738C234.02 8.12738 223.981 5.27643 213.359 5.27643C202.041 5.27643 191.358 8.12738 180.134 8.12738C163.333 8.12738 145.894 9.55286 128.846 9.55286C120.409 9.55286 111.971 9.55286 103.534 9.55286C94.0768 9.55286 84.8797 6.70191 75.5701 6.70191C67.2349 6.70191 59.2891 5.27643 50.962 5.27643C42.7427 5.27643 33.5371 5.52461 25.7739 10.6616C19.6288 14.7278 11.353 16.439 7.5456 28.0841C5.33612 34.8419 3.2371 35.4791 3.2371 44.3978C3.2371 51.7509 3.45042 59.2322 3.2371 66.5719C2.77941 82.3205 1 98.0181 1 114.325C1 132.453 1.7457 150.453 1.7457 168.414C1.7457 184.622 1.7457 200.831 1.7457 217.039C1.7457 225.155 2.4914 232.582 2.4914 240.48C2.4914 244.73 2.4914 248.98 2.4914 253.23C2.4914 256.95 3.98281 259.722 3.98281 264C3.98281 269.612 6.31391 277.936 7.71131 282.611C10.0352 290.385 12.569 294.698 16.6597 298.608C23.3751 305.026 33.7784 304.626 41.4336 304.626C46.5983 304.626 51.7629 304.626 56.9276 304.626C59.7424 304.626 62.1451 301.776 65.1303 301.776C67.8353 301.776 70.2201 299.024 72.9188 298.925C79.6093 298.679 86.3199 298.925 93.0113 298.925C101.585 298.925 109.957 302.776 118.407 303.201C131.942 303.882 144.89 306.052 158.426 306.052C165.04 306.052 171.438 304.626 178.063 304.626C185.217 304.626 193.601 304.643 200.765 303.122C206.667 301.868 212.51 298.925 218.579 298.925C224.959 298.925 231.339 298.925 237.719 298.925C248.283 298.925 258.847 298.925 269.411 298.925C275.252 298.925 281.094 298.925 286.935 298.925C289.863 298.925 292.79 298.925 295.718 298.925C300.28 298.925 304.459 301.554 308.975 301.776C316.389 302.139 323.522 304.626 331.056 304.626C337.56 304.626 344.064 304.626 350.568 304.626C378.286 304.626 406.108 300.35 433.88 300.35C448.323 300.35 462.597 297.499 477.089 297.499C494.184 297.499 511.563 299.492 528.625 300.35C536.216 300.732 543.723 303.201 551.369 303.201C555.332 303.201 559.296 303.201 563.259 303.201C567.962 303.201 572.22 306.287 577.013 306.052C592.87 305.275 608.745 301.471 624.572 300.35C632.16 299.813 639.71 296.074 647.357 296.074C654.014 296.074 660.67 296.074 667.326 296.074C684.751 296.074 702.166 294.648 719.525 294.648C732.446 294.648 746.59 291.461 758.964 298.133C763.419 300.535 768.601 301.311 773.215 301.776C777.859 302.243 782.449 304.626 787.135 304.626C794.026 304.626 800.917 304.626 807.808 304.626C818.499 304.626 829.271 306.974 839.914 308.824C844.241 309.576 848.323 307.692 852.591 307.477C857.247 307.243 860.738 305.121 865.268 303.518C871.413 301.342 878.027 301.776 884.283 301.776C886.702 301.776 890.595 303.19 892.859 301.459C895.342 299.56 896.802 298.925 899.57 298.925C905.006 298.925 911.767 298.257 917.094 295.994C917.955 295.629 917.952 293.606 918.668 293.302C919.939 292.762 921.389 293.353 922.687 293.223C924.401 293.05 927.164 291.15 928.818 290.055C936.941 284.68 945.058 272.129 945.058 254.418C945.058 246.508 947.082 237.819 947.295 230.502C947.552 221.666 947.251 211.369 948.082 202.626C950.059 181.847 949.687 160.58 951.065 139.509C953.137 107.825 954.406 71.1333 950.278 39.5671C948.905 29.0657 942.236 10.9783 936.11 10.9783C927.547 10.9783 919.533 8.12738 910.921 8.12738C900.711 8.12738 890.904 10.9783 880.596 10.9783C874.341 10.9783 868.085 10.9783 861.83 10.9783C849.265 10.9783 836.287 7.00112 823.84 10.6616C816.008 12.9648 807.401 10.9783 799.481 10.9783C794.956 10.9783 788.291 8.75221 783.987 11.6911C777.929 15.8269 767.771 12.4038 761.367 12.4038C753.323 12.4038 745.5 9.55286 737.463 9.55286C714.472 9.55286 691.729 8.12738 668.776 8.12738C640.311 8.12738 611.795 3.85095 583.559 3.85095C570.43 3.85095 557.248 1 544.036 1C533.231 1 523.378 3.85095 512.551 3.85095" stroke="#202426" stroke-width="2" stroke-linecap="round"/>
</svg>
