<svg width="500" height="152" viewBox="0 0 500 152" fill="none" xmlns="http://www.w3.org/2000/svg">
<path d="M4.50117 16.1444C4.72838 7.26845 12.105 0.348403 20.9774 0.688056L370.431 14.0659L483.269 18.3856C492.141 18.7253 499.15 26.196 498.922 35.0719L498.573 48.722L496.355 135.374C496.128 144.25 488.751 151.17 479.879 150.83L17.587 133.133C8.71462 132.793 1.70633 125.323 1.93354 116.447L4.50117 16.1444Z" fill="white"/>
<path d="M2.63689 123.25C2.63689 121.604 2.63689 119.957 2.63689 118.311C2.63689 117.108 2.1867 115.517 2.73341 114.366C3.79734 112.125 2.63689 109.736 2.63689 107.47C2.63689 106.446 2.66782 105.421 2.63689 104.398C2.60962 103.496 1.76821 102.74 1.76821 101.838C1.76821 97.9975 1.33386 94.1894 1.33386 90.334C1.33386 87.2113 2.20272 113.182 2.20272 110.108C2.20272 94.609 2.63706 79.1594 2.63706 63.6409C2.63706 59.8046 2.20272 56.0181 2.20272 52.1971C2.20272 48.2753 3.94009 44.5949 3.94009 40.6631C3.94009 37.7317 4.86977 34.1187 3.84357 31.237C3.25895 29.5954 2.20272 27.7102 2.20272 26.0271C2.20272 24.6923 2.56241 23.0982 2.17859 21.7809C1.53977 19.5884 1.33403 17.2208 1.33403 14.9899C1.33403 13.2268 4.08809 11.1191 6.54615 10.307C7.53028 9.98192 8.3665 9.08387 9.58655 8.68082C10.9921 8.21648 13.273 7.80748 14.8952 7.80748C20.6382 7.80748 26.3811 7.80748 32.1241 7.80748C41.2534 7.80748 50.3826 7.80748 59.5118 7.80748C66.8897 7.80748 74.1975 8.34955 81.5427 8.34955C92.3852 8.34955 103.228 8.34955 114.07 8.34955C123.583 8.34955 133.179 7.80748 142.689 7.80748C163.408 7.80748 184.128 7.80748 204.848 7.80748C215.031 7.80748 225.251 7.96692 235.445 8.07852C246.775 8.20256 258.005 8.07852 269.348 8.07852C290.694 8.07852 312.003 7.80748 333.365 7.80748C343.234 7.80748 353.103 7.80748 362.973 7.80748C372.792 7.80748 382.827 7.46334 392.629 7.86771C409.188 8.55091 425.847 8.34955 442.482 8.34955C456.762 8.34955 470.885 7.80748 485.192 7.80748C488.792 7.80748 492.359 7.5291 494.41 9.70473C495.176 10.5176 496.051 10.8925 496.051 11.873C496.051 12.8994 496.485 13.923 496.485 14.8544C496.485 17.4012 496.919 19.9729 496.919 22.5639C496.919 23.4038 497.125 24.3839 496.823 25.214C496.461 26.206 495.243 27.1576 495.182 28.1954C495.076 29.9727 494.336 31.6341 493.903 33.3903C493.141 36.4791 494.288 39.7938 493.855 42.9066C493.273 47.0818 492.576 51.4623 492.576 55.6604C492.576 59.7557 491.388 63.638 492.117 67.7365C492.853 71.8706 493.444 75.8952 493.444 80.0837C493.444 84.1391 494.088 88.237 494.313 92.3105C494.55 96.5993 494.575 100.749 493.975 105.049C493.291 109.959 493.444 86.0044 493.444 90.9363C493.444 95.037 493.444 99.1377 493.444 103.238C493.444 111.977 492.141 120.659 492.141 129.423C492.141 130.959 492.141 132.495 492.141 134.031C492.141 135.525 492.762 137.571 491.707 138.97C490.877 140.07 490.354 141.222 489.101 142.102C487.626 143.137 486.345 143.153 484.347 143.698C483.106 144.037 481.648 143.761 480.342 143.999C478.46 144.342 476.567 144.231 474.719 144.541C472.021 144.995 469.414 145.204 466.636 145.204C462.393 145.204 457.726 146.345 453.485 145.61C451.481 145.263 448.938 145.401 446.921 145.61C443.27 145.99 439.032 145.87 435.363 145.61C432.209 145.387 428.774 145.204 425.614 145.204C418.63 145.204 411.844 144.594 404.887 144.406C392.106 144.059 379.286 144.578 366.52 144.662C351.247 144.762 336.076 146.559 320.817 146.559C306.737 146.559 292.643 146.83 278.541 146.83C252.097 146.83 225.647 146.83 199.177 146.83C191.363 146.83 183.755 145.746 175.964 145.746C170.454 145.746 164.944 145.746 159.435 145.746C143.559 145.746 127.916 144.933 112.043 144.933C98.0754 144.933 84.123 144.662 70.1531 144.662C65.8236 144.662 61.756 145.308 57.5089 145.716C56.0547 145.855 54.467 145.746 52.9965 145.746C49.0655 145.746 45.1603 145.987 41.2451 146.017C35.1343 146.063 29.0175 146.017 22.9062 146.017C20.79 146.017 18.6441 146.079 16.5359 145.957C14.2516 145.824 12.0101 145.288 9.77942 145.204C8.45892 145.154 7.06838 142.882 6.98032 142.222C6.81206 140.962 6.11163 139.887 6.11163 138.563C6.11163 135.226 6.11163 131.888 6.11163 128.55C6.11163 126.998 6.24589 125.84 5.02578 124.469C3.91458 123.221 3.07123 121.413 3.07123 119.997" stroke="#0D1C2E" stroke-width="2" stroke-linecap="round"/>
</svg>
