<svg width="611" height="738" viewBox="0 0 611 738" fill="none" xmlns="http://www.w3.org/2000/svg">
<path d="M5.18368 553.425C4.82388 549.973 4.07322 546.663 2.71976 543.751C1.78962 541.751 -0.196143 532.278 1.98728 530.608C5.47745 527.939 5.53698 522.647 5.53698 518.542V473.961V458.86V274.696V131.631C5.53698 112.18 6.55118 92.6498 6.55118 72.9717C6.55118 63.0023 5.53698 52.9002 5.53698 43.3998C5.53698 38.719 8.32623 34.4281 8.57958 30.3107C8.88006 25.4273 9.30543 20.4533 9.59378 15.7671C9.7221 13.6817 14.4872 7.37074 16.1861 6.07144C20.4991 2.77284 20.7674 1.2236 26.8352 1.2236H59.7967H215.138H441.136H475.111C478.617 1.2236 480.746 3.16274 484.69 3.16274C489.247 3.16274 494.061 3.6076 498.551 2.94728C511.135 1.09649 523.637 1.2236 536.527 1.2236H558.276C560.222 1.2236 563.616 0.598296 565.375 1.43906C568.344 2.85799 569.45 4.13231 572.982 4.13231H587.688C593.919 4.13231 593.639 9.06543 597.041 12.643C601.076 16.8865 604.315 18.8034 605.887 24.0623C607.324 28.8716 605.943 35.9129 605.943 40.9221C605.943 52.0205 606.957 62.7771 606.957 73.9413C606.957 100.278 604.929 126.413 604.929 152.476V193.952C604.929 201.825 605.943 209.142 605.943 216.899C605.943 225.064 607.972 232.786 607.972 240.707V282.883C607.972 298.065 603.915 312.92 603.915 328.184C603.915 357.471 606.957 386.282 606.957 415.337V574.023V594.115C606.957 599.24 610 602.931 610 608.174V640.17C610 652.604 609.797 663.584 607.014 675.559C604.885 684.718 607.535 695.737 606.957 705.131C606.787 707.901 603.387 713.824 601.886 716.335C599.687 720.013 597.308 723.259 593.322 725.276C589.966 726.975 588.8 732.182 585.096 733.194C580.384 734.481 573.371 733.248 568.418 733.248C553.87 733.248 538.315 734.665 523.568 735.187C506.057 735.807 488.252 736.157 470.548 736.157C462.463 736.157 450.371 738.19 442.432 735.941C438.85 734.927 435.212 735.187 431.501 735.187C425.433 735.187 419.773 733.248 413.696 733.248H353.971C315.251 733.248 277.122 730.339 238.296 730.339C222.041 730.339 205.94 731.309 189.614 731.309H158.681C148.344 731.309 138.049 728.4 127.692 728.4C109.553 728.4 90.6836 725.738 72.4178 727.485C67.4274 727.962 63.5847 730.339 58.2754 730.339H44.5273C36.1706 730.339 25.1951 732.405 17.7074 728.616C11.3219 725.384 6.55118 716.801 6.55118 709.978C6.55118 704.65 6.78234 700.681 4.01568 695.92C1.35512 691.341 2.49438 683.109 2.49438 677.983C2.49438 671.213 1.48018 664.477 1.48018 657.622C1.48018 652.255 3.50858 647.445 3.50858 642.109C3.50858 629.226 4.52278 615.886 4.52278 602.787C4.52278 592.627 3.50858 583.17 3.50858 572.784C3.50858 566.31 4.37539 559.878 5.18368 553.425Z" fill="white"/>
<path d="M4.52278 572.3C5.54689 563.488 6.56078 552.013 2.71976 543.751C1.78962 541.751 -0.196143 532.278 1.98728 530.608C5.47745 527.939 5.53698 522.647 5.53698 518.542C5.53698 498.973 5.53698 478.47 5.53698 458.86C5.53698 397.472 5.53698 336.084 5.53698 274.696C5.53698 227.007 5.53698 179.319 5.53698 131.631C5.53698 112.18 6.55118 92.6498 6.55118 72.9717C6.55118 63.0023 5.53698 52.9002 5.53698 43.3998C5.53698 38.719 8.32623 34.4281 8.57958 30.3107C8.88006 25.4273 9.30543 20.4533 9.59378 15.7671C9.7221 13.6817 14.4872 7.37074 16.1861 6.07144C20.4991 2.77284 20.7674 1.2236 26.8352 1.2236C37.8223 1.2236 48.8095 1.2236 59.7967 1.2236C111.577 1.2236 163.358 1.2236 215.138 1.2236C290.471 1.2236 365.803 1.2236 441.136 1.2236C452.461 1.2236 463.786 1.2236 475.111 1.2236C478.617 1.2236 480.746 3.16274 484.69 3.16274C489.247 3.16274 494.061 3.6076 498.551 2.94728C511.135 1.09649 523.637 1.2236 536.527 1.2236C543.777 1.2236 551.026 1.2236 558.276 1.2236C560.222 1.2236 563.616 0.598296 565.375 1.43906C568.344 2.85799 569.45 4.13231 572.982 4.13231C577.884 4.13231 582.786 4.13231 587.688 4.13231C593.919 4.13231 593.639 9.06543 597.041 12.643C601.076 16.8865 604.315 18.8034 605.887 24.0623C607.324 28.8716 605.943 35.9129 605.943 40.9221C605.943 52.0205 606.957 62.7771 606.957 73.9413C606.957 100.278 604.929 126.413 604.929 152.476C604.929 166.302 604.929 180.127 604.929 193.952C604.929 201.825 605.943 209.142 605.943 216.899C605.943 225.064 607.972 232.786 607.972 240.707C607.972 254.766 607.972 268.825 607.972 282.883C607.972 298.065 603.915 312.92 603.915 328.184C603.915 357.471 606.957 386.282 606.957 415.337C606.957 468.261 606.957 520.953 606.957 574.023C606.957 580.721 606.957 587.418 606.957 594.115C606.957 599.24 610 602.931 610 608.174C610 618.839 610 629.504 610 640.17C610 652.604 609.797 663.584 607.014 675.559C604.885 684.718 607.535 695.737 606.957 705.131C606.787 707.901 603.387 713.824 601.886 716.335C599.687 720.013 597.308 723.259 593.322 725.276C589.966 726.975 588.8 732.182 585.096 733.194C580.384 734.481 573.371 733.248 568.418 733.248C553.87 733.248 538.315 734.665 523.568 735.187C506.057 735.807 488.252 736.157 470.548 736.157C462.463 736.157 450.371 738.19 442.432 735.941C438.85 734.927 435.212 735.187 431.501 735.187C425.433 735.187 419.773 733.248 413.696 733.248C393.788 733.248 373.879 733.248 353.971 733.248C315.251 733.248 277.122 730.339 238.296 730.339C222.041 730.339 205.94 731.309 189.614 731.309C179.303 731.309 168.992 731.309 158.681 731.309C148.344 731.309 138.049 728.4 127.692 728.4C109.553 728.4 90.6836 725.738 72.4178 727.485C67.4274 727.962 63.5847 730.339 58.2754 730.339C53.6927 730.339 49.11 730.339 44.5273 730.339C36.1706 730.339 25.1951 732.405 17.7074 728.616C11.3219 725.384 6.55118 716.801 6.55118 709.978C6.55118 704.65 6.78234 700.681 4.01568 695.92C1.35512 691.341 2.49438 683.109 2.49438 677.983C2.49438 671.213 1.48018 664.477 1.48018 657.622C1.48018 652.255 3.50858 647.445 3.50858 642.109C3.50858 629.226 4.52278 615.886 4.52278 602.787C4.52278 592.627 3.50858 583.17 3.50858 572.784C3.50858 560.654 6.55118 548.673 6.55118 536.426C6.55118 515.051 9.85725 489.924 4.52278 469.525" stroke="#040D26" stroke-width="2" stroke-linecap="round"/>
</svg>
