<svg width="334" height="202" viewBox="0 0 334 202" fill="none" xmlns="http://www.w3.org/2000/svg">
<path d="M1.88823 173.21C1.88823 175.492 2.23395 177.854 2.39707 180.217C2.92164 180.82 3.36862 181.457 3.36862 181.813C3.36862 182.459 3.02473 184.196 3.43442 184.708C3.78582 185.147 4.26527 185.93 4.48714 186.484C5.4255 188.83 6.32941 190.551 6.32941 193.228C6.32941 194.194 7.60099 195.674 8.56644 196.025C10.2923 196.652 11.8756 198.159 13.4353 199.133C14.7097 199.93 17.7582 198.985 19.2417 198.985H25.5745C32.9075 198.985 40.1686 198.393 47.5172 198.393C58.5386 198.393 69.5132 198.097 80.5299 198.097C84.3084 198.097 88.138 197.915 91.9124 198.114C94.5577 198.253 97.1469 198.832 99.7749 199.002C104.349 199.297 108.951 200.17 113.526 200.17C118.276 200.17 123.013 199.751 127.754 199.561C132.914 199.355 138.052 199.344 143.216 199.281C154.15 199.148 165.063 198.393 176.015 198.393C178.278 198.393 180.616 197.878 182.858 198.163C184.836 198.414 186.706 198.689 188.714 198.689C192.029 198.689 195.365 198.985 198.649 198.985C207.912 198.985 217.18 199.281 226.463 199.281C231.929 199.281 237.544 198.601 242.978 199.133C245.934 199.423 249.55 199.699 252.502 199.216C256.654 198.536 261.104 198.393 265.332 198.393C270.943 198.393 276.58 198.097 282.208 198.097C288.92 198.097 295.538 198.689 302.227 198.689C304.507 198.689 306.763 199.281 309.086 199.281C311.061 199.281 312.923 199.276 314.843 199.002C316.556 198.757 318.18 198.028 319.86 197.818C320.695 197.713 320.856 197.033 321.505 196.6C322.174 196.154 322.853 195.871 323.561 195.498C324.556 194.975 328.237 194.123 328.462 192.768C328.565 192.152 329.211 191.578 329.416 190.86C329.741 189.725 330.695 188.971 331.193 188.031C332.623 185.329 332.311 181.236 332.311 178.211C332.311 168.907 331.719 159.574 331.719 150.264C331.719 144.834 331.423 139.415 331.423 134.013C331.423 129.175 330.831 124.453 330.831 119.62C330.831 117.442 330.239 115.324 330.239 113.123C330.239 110.314 330.194 107.213 329.926 104.405C329.805 103.126 329.351 101.982 329.351 100.671C329.351 98.9825 329.459 97.2536 329.334 95.5719C329.14 92.9476 329.055 90.3244 329.055 87.66C329.055 85.1793 329.351 82.8023 329.351 80.3239C329.351 77.2392 329.026 74.0593 329.943 71.0797C330.54 69.1384 330.052 67.0808 330.305 65.0923C330.49 63.6325 331.101 62.335 331.127 60.8485C331.171 58.3677 331.403 55.6159 331.111 53.134C330.576 48.5879 330.831 44.2205 330.831 39.6954C330.831 35.7657 330.239 31.8716 330.239 27.9181C330.239 24.3515 330.941 20.7332 331.127 17.1935C331.198 15.8474 330.831 14.6229 330.831 13.3444C330.831 12.3796 330.639 12.5423 330.173 11.864C329.882 11.4413 329.482 10.5432 329.055 10.2685C328.492 9.90691 328.178 9.46488 327.673 9.0513C327.333 8.77297 326.289 8.79124 326.127 8.42625C325.921 7.96449 326.005 7.89351 325.633 7.52157C324.217 6.10575 324.409 4.17388 322.393 3.27778C321.473 2.86884 320.629 2.88407 319.728 2.53758C318.846 2.19814 318.317 1.68329 317.376 1.36972C315.723 0.818829 313.059 1.05191 311.389 1.27103C308.64 1.63143 306.14 1.20523 303.46 1.20523C301.063 1.20523 298.685 1.43743 296.321 1.50131C293.342 1.58183 290.647 2.38954 287.669 2.38954C283.245 2.38954 278.891 2.9817 274.461 2.9817C257.019 2.9817 239.667 2.09347 222.236 2.09347C220 2.09347 217.761 2.12587 215.525 2.09347C213.593 2.06547 211.677 1.52906 209.735 1.50131C205.825 1.44546 201.914 1.79739 197.991 1.79739H186.049C183.837 1.79739 181.628 1.69889 179.436 2.02767C177.457 2.32464 175.596 2.8862 173.581 2.99815C164.209 3.51879 154.766 3.27778 145.371 3.27778C141.268 3.27778 137.215 3.86994 133.117 3.86994C130.249 3.86994 127.401 3.63298 124.563 3.57386C121.007 3.49976 117.524 2.9817 113.937 2.9817C110.242 2.9817 106.66 2.56896 102.982 2.38954C101.15 2.30014 99.4263 1.79739 97.5215 1.79739H92.3236H86.2705C76.4442 1.79739 66.5276 1.50131 56.6627 1.50131C50.8952 1.50131 45.1914 2.38954 39.4244 2.38954C37.1046 2.38954 34.7681 2.4754 32.4501 2.38954C31.4264 2.35163 30.0388 2.17727 29.0616 1.86318C28.1905 1.58319 27.1306 1.71667 26.3311 1.35327C24.7986 0.656648 22.0725 1.20523 20.3931 1.20523C18.6633 1.20523 17.0518 1.79739 15.3598 1.79739C14.3468 1.79739 13.6062 1.98462 12.6951 2.38954C12.2913 2.56899 10.9111 3.22248 10.7706 3.57386C10.5285 4.17893 8.72235 5.31406 8.10587 5.35033C7.58191 5.38115 7.5534 6.74708 7.44792 7.12679C7.10976 8.34419 6.10723 9.34958 6.03333 10.6797C5.97245 11.7755 4.6965 12.6858 4.19106 13.6405C2.91869 16.0439 3.8181 18.8031 3.0561 21.4701C2.64405 22.9123 2.77647 24.6239 2.77647 26.2238C2.77647 27.4203 2.3427 29.6177 2.92451 30.665C3.76548 32.1787 3.36862 34.5994 3.36862 36.2905C3.36862 38.2393 3.07255 40.1485 3.07255 42.064C3.07255 45.878 3.36862 49.5771 3.36862 53.3808C3.36862 55.3703 3.07255 57.3809 3.07255 59.3023C3.07255 61.3557 2.50912 63.4573 2.79292 65.5858C3.27312 69.1873 3.07255 72.905 3.07255 76.5571C3.07255 79.5611 3.36862 82.5354 3.36862 85.5875C3.36862 94.5689 4.25686 103.384 4.25686 112.383C4.25686 114.605 3.33369 116.95 2.92451 119.159C2.45878 121.674 2.77647 124.51 2.77647 127.071C2.77647 129.886 3.36862 132.573 3.36862 135.427V141.316C3.36862 142.967 3.0658 144.967 3.43442 146.58C3.89917 148.613 4.25686 150.297 4.25686 152.435C4.25686 156.26 4.08713 159.857 3.64825 163.588C3.41881 165.538 1.59216 166.579 1.59216 168.621C1.59216 170.26 1.88823 171.669 1.88823 173.21Z" fill="white"/>
<path d="M2.48039 182.405C2.48039 179.32 1.88823 176.197 1.88823 173.21C1.88823 171.669 1.59216 170.26 1.59216 168.621C1.59216 166.579 3.41881 165.538 3.64825 163.588C4.08713 159.857 4.25686 156.26 4.25686 152.435C4.25686 150.297 3.89917 148.613 3.43442 146.58C3.0658 144.967 3.36862 142.967 3.36862 141.316C3.36862 139.353 3.36862 137.39 3.36862 135.427C3.36862 132.573 2.77647 129.886 2.77647 127.071C2.77647 124.51 2.45878 121.674 2.92451 119.159C3.33369 116.95 4.25686 114.605 4.25686 112.383C4.25686 103.384 3.36862 94.5689 3.36862 85.5875C3.36862 82.5354 3.07255 79.5611 3.07255 76.5571C3.07255 72.905 3.27312 69.1873 2.79292 65.5858C2.50912 63.4573 3.07255 61.3557 3.07255 59.3023C3.07255 57.3809 3.36862 55.3703 3.36862 53.3808C3.36862 49.5771 3.07255 45.878 3.07255 42.064C3.07255 40.1485 3.36862 38.2393 3.36862 36.2905C3.36862 34.5994 3.76548 32.1787 2.92451 30.665C2.3427 29.6177 2.77647 27.4203 2.77647 26.2238C2.77647 24.6239 2.64405 22.9123 3.0561 21.4701C3.8181 18.8031 2.91869 16.0439 4.19106 13.6405C4.69649 12.6858 5.97245 11.7755 6.03333 10.6797C6.10723 9.34958 7.10976 8.34419 7.44792 7.12679C7.5534 6.74708 7.58191 5.38115 8.10587 5.35033C8.72235 5.31406 10.5285 4.17893 10.7706 3.57386C10.9111 3.22248 12.2913 2.56899 12.6951 2.38954C13.6062 1.98462 14.3468 1.79739 15.3598 1.79739C17.0518 1.79739 18.6633 1.20523 20.3931 1.20523C22.0725 1.20523 24.7986 0.656648 26.3311 1.35327C27.1306 1.71667 28.1905 1.58319 29.0616 1.86318C30.0388 2.17727 31.4264 2.35163 32.4501 2.38954C34.7681 2.4754 37.1046 2.38954 39.4244 2.38954C45.1914 2.38954 50.8952 1.50131 56.6627 1.50131C66.5276 1.50131 76.4442 1.79739 86.2705 1.79739C88.2882 1.79739 90.3059 1.79739 92.3236 1.79739C94.0563 1.79739 95.7889 1.79739 97.5215 1.79739C99.4263 1.79739 101.15 2.30014 102.982 2.38954C106.66 2.56896 110.242 2.9817 113.937 2.9817C117.524 2.9817 121.007 3.49976 124.563 3.57386C127.401 3.63298 130.249 3.86994 133.117 3.86994C137.215 3.86994 141.268 3.27778 145.371 3.27778C154.766 3.27778 164.209 3.51879 173.581 2.99815C175.596 2.8862 177.457 2.32464 179.436 2.02767C181.628 1.69889 183.837 1.79739 186.049 1.79739C190.029 1.79739 194.01 1.79739 197.991 1.79739C201.914 1.79739 205.825 1.44546 209.735 1.50131C211.677 1.52906 213.593 2.06547 215.525 2.09347C217.761 2.12587 220 2.09347 222.236 2.09347C239.667 2.09347 257.019 2.9817 274.461 2.9817C278.891 2.9817 283.245 2.38954 287.669 2.38954C290.647 2.38954 293.342 1.58183 296.321 1.50131C298.685 1.43743 301.063 1.20523 303.46 1.20523C306.14 1.20523 308.64 1.63143 311.389 1.27103C313.059 1.05191 315.723 0.818829 317.376 1.36972C318.317 1.68329 318.846 2.19814 319.728 2.53758C320.629 2.88407 321.473 2.86884 322.393 3.27778C324.409 4.17388 324.217 6.10575 325.633 7.52157C326.005 7.89351 325.921 7.96449 326.127 8.42625C326.289 8.79124 327.333 8.77297 327.673 9.0513C328.178 9.46488 328.492 9.90691 329.055 10.2685C329.482 10.5432 329.882 11.4413 330.173 11.864C330.639 12.5423 330.831 12.3796 330.831 13.3444C330.831 14.6229 331.198 15.8474 331.127 17.1935C330.941 20.7332 330.239 24.3515 330.239 27.9181C330.239 31.8716 330.831 35.7657 330.831 39.6954C330.831 44.2205 330.576 48.5879 331.111 53.134C331.403 55.6159 331.171 58.3677 331.127 60.8485C331.101 62.335 330.49 63.6325 330.305 65.0923C330.052 67.0808 330.54 69.1384 329.943 71.0797C329.026 74.0593 329.351 77.2392 329.351 80.3239C329.351 82.8023 329.055 85.1793 329.055 87.66C329.055 90.3244 329.14 92.9476 329.334 95.5719C329.459 97.2536 329.351 98.9825 329.351 100.671C329.351 101.982 329.805 103.126 329.926 104.405C330.194 107.213 330.239 110.314 330.239 113.123C330.239 115.324 330.831 117.442 330.831 119.62C330.831 124.453 331.423 129.175 331.423 134.013C331.423 139.415 331.719 144.834 331.719 150.264C331.719 159.574 332.311 168.907 332.311 178.211C332.311 181.236 332.623 185.329 331.193 188.031C330.695 188.971 329.741 189.725 329.416 190.86C329.211 191.578 328.565 192.152 328.462 192.768C328.237 194.123 324.556 194.975 323.561 195.498C322.853 195.871 322.174 196.154 321.505 196.6C320.856 197.033 320.695 197.713 319.86 197.818C318.18 198.028 316.556 198.757 314.843 199.002C312.923 199.276 311.061 199.281 309.086 199.281C306.763 199.281 304.507 198.689 302.227 198.689C295.538 198.689 288.92 198.097 282.208 198.097C276.58 198.097 270.943 198.393 265.332 198.393C261.104 198.393 256.654 198.536 252.502 199.216C249.55 199.699 245.934 199.423 242.978 199.133C237.544 198.601 231.929 199.281 226.463 199.281C217.179 199.281 207.912 198.985 198.649 198.985C195.365 198.985 192.029 198.689 188.714 198.689C186.706 198.689 184.836 198.414 182.858 198.163C180.616 197.878 178.278 198.393 176.015 198.393C165.063 198.393 154.15 199.148 143.216 199.281C138.052 199.344 132.914 199.355 127.754 199.561C123.013 199.751 118.276 200.17 113.526 200.17C108.951 200.17 104.349 199.297 99.7749 199.002C97.1469 198.832 94.5577 198.253 91.9124 198.114C88.138 197.915 84.3084 198.097 80.5299 198.097C69.5132 198.097 58.5386 198.393 47.5172 198.393C40.1686 198.393 32.9075 198.985 25.5745 198.985C23.4636 198.985 21.3526 198.985 19.2417 198.985C17.7582 198.985 14.7097 199.93 13.4353 199.133C11.8756 198.159 10.2923 196.652 8.56644 196.025C7.60099 195.674 6.32941 194.194 6.32941 193.228C6.32941 190.551 5.4255 188.83 4.48714 186.484C4.26527 185.93 3.78582 185.147 3.43442 184.708C3.02473 184.196 3.36862 182.459 3.36862 181.813C3.36862 181.116 1.65392 179.343 1 178.852" stroke="#040D26" stroke-width="2" stroke-linecap="round"/>
</svg>
