<svg width="336" height="204" viewBox="0 0 336 204" fill="none" xmlns="http://www.w3.org/2000/svg">
<path d="M138.507 200.717C135.639 200.79 132.812 201.325 129.891 201.325C125.976 201.325 121.983 201.633 118.026 201.633C116.456 201.633 114.882 201.588 113.306 201.515C106.634 201.207 99.9221 200.4 93.2508 200.4C76.1545 200.4 59.0428 200.709 42.0053 200.709C33.412 200.709 24.8868 201.231 16.3398 200.417C14.021 200.197 11.4335 198.218 10.3129 196.257C9.78506 195.333 8.51035 193.482 7.53916 193.86C6.27779 194.35 4.59366 192.279 3.70388 191.771C3.33211 191.559 3.59598 190.746 3.51554 190.384C3.36638 189.713 2.77258 189.25 2.53959 188.621C2.2514 187.842 2.08597 187.333 1.9917 186.532C1.98671 186.489 1.24688 184.703 1.22122 184.683C0.645552 184.222 1.37531 180.339 1.37531 179.375C1.37531 177.554 2.05619 175.691 2.28277 173.879C2.76635 170.01 2.29989 165.773 2.29989 161.876V147.408C2.29989 146.204 3.074 145.236 3.20734 144.035C3.3038 143.167 3.22447 142.254 3.22447 141.382V135.132C3.22447 131.976 3.84085 128.944 3.84085 125.818C3.84085 123.846 4.32404 121.88 3.90934 119.962C3.69185 118.956 4.02842 117.876 3.77236 116.88C3.53026 115.939 3.05579 115.069 2.9334 114.089C2.68939 112.137 3.27512 110.037 2.84779 108.114C2.39697 106.085 2.91627 103.772 2.91627 101.659C2.91627 99.4413 3.23536 97.1231 4.01207 95.0671C4.38885 94.0697 4.33402 92.7443 4.62845 91.677C4.89909 90.6959 4.76543 89.552 4.76543 88.5437V82.123C4.76543 79.8965 4.45723 77.8425 4.45723 75.5996C4.45723 73.5639 3.84085 71.7826 3.84085 69.7953C3.84085 65.2103 3.22447 60.8002 3.22447 56.2349C3.22447 52.3509 2.60808 48.5464 2.60808 44.6948V33.6684C2.60808 30.1779 3.12813 26.626 4.08056 23.2926C4.46317 21.9534 4.14904 20.1173 4.14904 18.7211C4.14904 17.8502 4.29121 15.6345 4.76543 14.9371C5.43679 13.9498 5.72326 12.9442 6.30639 11.9237C6.60611 11.3992 7.27434 11.1544 7.53916 10.6909C7.836 10.1715 8.28693 9.08711 8.77193 8.77329C9.10752 8.55615 9.36821 7.84994 9.62802 7.47204C9.89873 7.07827 11.0777 6.33626 11.5457 6.10229C13.1815 5.28437 15.5031 5.0065 17.2986 5.0065C19.5834 5.0065 21.887 4.62413 24.1473 4.37299C25.4423 4.2291 27.0048 3.53514 28.188 3.46554C29.7557 3.37332 31.1175 3.10879 32.6397 2.83203C34.2507 2.53912 36.229 2.63012 37.742 1.99306C39.1673 1.39295 42.3077 1.92458 43.786 1.92458H53.8707C66.1207 1.92458 78.3506 2.84915 90.6141 2.84915C108.201 2.84915 125.863 3.15735 143.486 3.15735C157.345 3.15735 171.078 2.54096 184.938 2.54096C189.227 2.54096 193.389 3.15735 197.694 3.15735C202.124 3.15735 206.531 2.84915 210.946 2.84915C216.443 2.84915 221.943 1.61638 227.434 1.61638C230.307 1.61638 233.06 1 235.91 1H249.213C254.08 1 258.819 1.92458 263.715 1.92458H277.361C279.24 1.92458 281.06 2.66693 282.909 2.38687C284.255 2.1829 285.609 2.23277 286.967 2.23277C290.14 2.23277 293.317 2.54096 296.469 2.54096C302.392 2.54096 308.217 1.61638 314.156 1.61638C316.035 1.61638 317.384 1.63335 319.121 2.16428C321.772 2.97431 324.337 3.8849 326.98 4.69831C328.722 5.23418 330.381 7.01169 330.525 8.94451C330.647 10.5964 332.021 12.3045 332.528 13.927C333.843 18.1367 334.674 23.1953 334.206 27.6415C333.874 30.797 332.99 33.7637 332.99 36.9558C332.99 39.6691 332.166 42.6808 332.836 45.3626C333.185 46.7572 332.898 48.2378 333.007 49.6601C333.125 51.1845 333.298 52.6219 333.298 54.1632C333.298 57.3168 333.915 60.2617 333.915 63.4603V79.1438C333.915 81.7501 332.99 84.236 332.99 86.8144C332.99 89.8249 332.682 92.8813 332.682 95.9232C332.682 99.4763 332.331 103.219 331.911 106.744C331.579 109.54 331.757 112.422 331.757 115.237C331.757 117.736 331.111 121.331 331.894 123.729C332.968 127.018 332.374 131.261 332.374 134.704V145.028C332.374 149.276 332.168 153.578 332.391 157.818C332.473 159.373 332.494 161.261 332.836 162.767C333.15 164.148 332.805 165.554 333.298 166.91C334.213 169.425 333.607 172.788 333.607 175.454C333.607 176.675 333.724 177.956 333.589 179.169C333.45 180.423 332.729 181.64 332.682 182.902C332.648 183.824 332.066 184.365 332.066 185.299C332.066 186.686 331.497 187.864 331.124 189.168C330.6 191.002 328.91 192.98 327.58 194.237C324.3 197.334 320.01 200.43 315.423 201.325C312.479 201.899 309.355 201.633 306.366 201.633C302.643 201.633 298.959 201.941 295.254 201.941C285.126 201.941 275.192 199.784 265.051 199.784C256.714 199.784 248.619 200.893 240.327 201.77C233.601 202.481 226.709 202.558 219.952 202.558H206.785C201.644 202.558 196.602 203.033 191.461 202.626C189.645 202.482 187.923 202.531 186.137 202.078C184.62 201.694 183.171 201.347 181.599 201.325C178.314 201.278 175.023 201.325 171.737 201.325H149.855C147.208 201.325 144.619 201.272 141.979 201.085C140.831 201.004 139.669 200.855 138.507 200.717Z" fill="white"/>
<path d="M139.137 200.709C136.053 200.709 133.025 201.325 129.891 201.325C125.976 201.325 121.983 201.633 118.026 201.633C109.806 201.633 101.498 200.4 93.2508 200.4C76.1545 200.4 59.0428 200.709 42.0053 200.709C33.412 200.709 24.8868 201.231 16.3398 200.417C14.021 200.197 11.4335 198.218 10.3129 196.257C9.78506 195.333 8.51035 193.482 7.53916 193.86C6.27779 194.35 4.59366 192.279 3.70388 191.771C3.33211 191.559 3.59598 190.746 3.51554 190.384C3.36638 189.713 2.77258 189.25 2.53959 188.621C2.2514 187.842 2.08597 187.333 1.9917 186.532C1.98671 186.489 1.24688 184.703 1.22122 184.683C0.645552 184.222 1.37531 180.339 1.37531 179.375C1.37531 177.554 2.05619 175.691 2.28277 173.879C2.76635 170.01 2.29989 165.773 2.29989 161.876C2.29989 157.033 2.29989 152.286 2.29989 147.408C2.29989 146.204 3.074 145.236 3.20734 144.035C3.3038 143.167 3.22447 142.254 3.22447 141.382C3.22447 139.298 3.22447 137.215 3.22447 135.132C3.22447 131.976 3.84085 128.944 3.84085 125.818C3.84085 123.846 4.32404 121.88 3.90934 119.962C3.69185 118.956 4.02842 117.876 3.77236 116.88C3.53026 115.939 3.05579 115.069 2.9334 114.089C2.68939 112.137 3.27512 110.037 2.84779 108.114C2.39697 106.085 2.91627 103.772 2.91627 101.659C2.91627 99.4413 3.23536 97.1231 4.01207 95.0671C4.38885 94.0697 4.33402 92.7443 4.62845 91.677C4.89909 90.6959 4.76543 89.552 4.76543 88.5437C4.76543 86.4035 4.76543 84.2633 4.76543 82.123C4.76543 79.8965 4.45723 77.8425 4.45723 75.5996C4.45723 73.5639 3.84085 71.7826 3.84085 69.7953C3.84085 65.2103 3.22447 60.8002 3.22447 56.2349C3.22447 52.3509 2.60808 48.5464 2.60808 44.6948C2.60808 41.025 2.60808 37.3772 2.60808 33.6684C2.60808 30.1779 3.12813 26.626 4.08056 23.2926C4.46317 21.9534 4.14904 20.1173 4.14904 18.7211C4.14904 17.8502 4.29121 15.6345 4.76543 14.9371C5.43679 13.9498 5.72326 12.9442 6.30639 11.9237C6.60611 11.3992 7.27434 11.1544 7.53916 10.6909C7.836 10.1715 8.28693 9.08711 8.77193 8.77329C9.10752 8.55615 9.36821 7.84994 9.62802 7.47204C9.89873 7.07827 11.0777 6.33626 11.5457 6.10229C13.1815 5.28437 15.5031 5.0065 17.2986 5.0065C19.5834 5.0065 21.887 4.62413 24.1473 4.37299C25.4423 4.2291 27.0048 3.53514 28.188 3.46554C29.7557 3.37332 31.1175 3.10879 32.6397 2.83203C34.2507 2.53912 36.229 2.63012 37.742 1.99306C39.1673 1.39295 42.3077 1.92458 43.786 1.92458C47.1476 1.92458 50.5091 1.92458 53.8707 1.92458C66.1207 1.92458 78.3506 2.84915 90.6141 2.84915C108.201 2.84915 125.863 3.15735 143.486 3.15735C157.345 3.15735 171.078 2.54096 184.938 2.54096C189.227 2.54096 193.389 3.15735 197.694 3.15735C202.124 3.15735 206.531 2.84915 210.946 2.84915C216.443 2.84915 221.943 1.61638 227.434 1.61638C230.307 1.61638 233.06 1 235.91 1C240.344 1 244.779 1 249.213 1C254.08 1 258.819 1.92458 263.715 1.92458C268.264 1.92458 272.813 1.92458 277.361 1.92458C279.24 1.92458 281.06 2.66693 282.909 2.38687C284.255 2.1829 285.609 2.23277 286.967 2.23277C290.14 2.23277 293.317 2.54096 296.469 2.54096C302.392 2.54096 308.217 1.61638 314.156 1.61638C316.035 1.61638 317.384 1.63335 319.121 2.16428C321.773 2.97431 324.337 3.8849 326.98 4.69831C328.722 5.23418 330.381 7.01169 330.525 8.94451C330.647 10.5964 332.021 12.3045 332.528 13.927C333.843 18.1367 334.674 23.1953 334.206 27.6415C333.874 30.797 332.99 33.7637 332.99 36.9558C332.99 39.6691 332.166 42.6808 332.836 45.3626C333.185 46.7572 332.898 48.2378 333.007 49.6601C333.125 51.1845 333.298 52.6219 333.298 54.1632C333.298 57.3168 333.915 60.2617 333.915 63.4603C333.915 68.7123 333.915 73.9226 333.915 79.1438C333.915 81.7501 332.99 84.236 332.99 86.8144C332.99 89.8249 332.682 92.8813 332.682 95.9232C332.682 99.4763 332.331 103.219 331.911 106.744C331.579 109.54 331.757 112.422 331.757 115.237C331.757 117.736 331.111 121.331 331.894 123.729C332.968 127.018 332.374 131.261 332.374 134.704C332.374 138.146 332.374 141.587 332.374 145.028C332.374 149.276 332.168 153.578 332.391 157.818C332.473 159.373 332.494 161.261 332.836 162.767C333.15 164.148 332.805 165.554 333.298 166.91C334.213 169.425 333.607 172.788 333.607 175.454C333.607 176.675 333.724 177.956 333.589 179.169C333.45 180.423 332.729 181.64 332.682 182.902C332.648 183.824 332.066 184.365 332.066 185.299C332.066 186.686 331.497 187.864 331.124 189.168C330.6 191.002 328.91 192.98 327.58 194.237C324.3 197.334 320.01 200.43 315.423 201.325C312.479 201.899 309.355 201.633 306.366 201.633C302.643 201.633 298.959 201.941 295.254 201.941C285.126 201.941 275.192 199.784 265.051 199.784C256.714 199.784 248.619 200.893 240.327 201.77C233.601 202.481 226.709 202.558 219.952 202.558C215.563 202.558 211.174 202.558 206.785 202.558C201.644 202.558 196.602 203.033 191.461 202.626C189.645 202.482 187.923 202.531 186.137 202.078C184.62 201.694 183.171 201.347 181.599 201.325C178.314 201.278 175.023 201.325 171.737 201.325C164.443 201.325 157.149 201.325 149.855 201.325C147.208 201.325 144.619 201.272 141.979 201.085C139.454 200.906 136.862 200.4 134.343 200.4C130.931 200.4 127.555 200.655 124.139 200.709C119.395 200.783 114.762 201.633 109.996 201.633C107.577 201.633 105.134 201.325 102.771 201.325" stroke="#040D26" stroke-width="2" stroke-linecap="round"/>
</svg>
