<svg width="337" height="206" viewBox="0 0 337 206" fill="none" xmlns="http://www.w3.org/2000/svg">
<path d="M148.049 201.741C148.535 201.792 148.999 201.768 149.456 201.716C150.331 201.384 151.229 201.149 152.195 201.149C154.443 201.149 156.923 201.475 159.152 201.132C165.325 200.183 171.846 200.557 178.118 200.557C182.668 200.557 187.158 200.416 191.655 201.182C192.839 201.383 193.636 202.342 194.715 202.596C195.68 202.824 196.907 202.639 197.889 202.629C200.338 202.604 202.833 202.4 205.291 202.317C207.347 202.247 209.037 201.739 211.048 202.563C212.338 203.092 213.343 203.306 214.766 203.649C219.815 204.868 224.777 203.517 229.767 203.517C232.695 203.517 235.551 203.071 238.468 202.942L238.599 202.936C239.862 202.88 241.214 202.819 242.465 202.958C243.349 203.056 244.096 203.491 244.999 203.517C248.499 203.619 252.061 203.664 255.526 203.156C259.754 202.535 263.894 201.445 268.191 201.445H277.139C278.908 201.445 280.481 202.037 282.304 202.037C284.153 202.037 285.941 201.741 287.798 201.741H296.434C300.42 201.741 304.577 201.657 308.54 202.053C309.495 202.149 310.401 202.596 311.369 202.596C312.424 202.596 313.487 202.377 314.544 202.333C315.888 202.277 317.305 202.092 318.689 202.021C323.268 201.786 326.383 199.525 330.269 197.366C334.854 194.819 333.394 190.024 333.394 185.753C333.394 183.537 332.914 181.391 333.164 179.14C333.481 176.291 333.611 173.381 333.69 170.521C333.843 165.037 333.69 159.59 333.69 154.072C333.69 151.677 334.202 149.162 334.562 146.818C334.74 145.66 334.579 144.358 334.579 143.183C334.579 142.029 335.029 140.988 335.154 139.861C335.333 138.251 335.171 136.541 335.171 134.926C335.171 133.151 334.579 131.538 334.579 129.794C334.579 127.133 334.283 124.477 334.283 121.8C334.283 116.201 333.986 110.474 333.986 104.825C333.986 101.126 333.394 97.4591 333.394 93.7382C333.394 90.9883 333.69 88.2896 333.69 85.5468C333.69 84.0929 333.138 82.7951 333.098 81.3688C333.062 80.0494 333.098 78.7246 333.098 77.4046C333.098 73.6321 332.802 69.8228 332.802 66.022V48.7344C332.802 46.8478 333.636 45.172 333.69 43.3063C333.724 42.1362 333.824 40.8008 334.003 39.6382C334.409 36.9971 334.579 33.9959 334.579 31.3316C334.579 26.5726 333.098 21.74 333.098 16.9882C333.098 14.3011 333.036 8.97856 330.434 7.44792C329.237 6.74386 328.442 5.64893 327.242 4.84902C325.213 3.49585 322.633 2.38152 320.301 1.65795C318.604 1.13125 316.785 1 315.021 1H311.846C310.468 1 310.255 1.67516 309.099 2.03627C307.201 2.62965 304.594 2.18431 302.586 2.18431C300.262 2.18431 297.982 2.48039 295.644 2.48039C290.597 2.48039 285.72 3.36862 280.692 3.36862C277.082 3.36862 273.99 3.7683 270.494 4.61873C269.304 4.90816 268.113 5.16075 266.925 5.42472C265.634 5.71155 264.306 4.84902 262.993 4.84902C261.672 4.84902 260.403 4.55294 259.079 4.55294C257.508 4.55294 256.069 4.94026 254.489 4.70098C252.1 4.33894 249.53 4.53854 247.219 3.96078C245.923 3.63681 244.715 3.70162 243.387 3.6647C242.198 3.6317 241.147 3.07255 239.867 3.07255C236.555 3.07255 233.263 2.48039 229.931 2.48039C227.293 2.48039 224.737 1.88823 222.069 1.88823C219.1 1.88823 216.314 1.42345 213.384 1.29608C207.754 1.05129 202.258 1.59216 196.606 1.59216C194.257 1.59216 192.004 1.0329 189.665 1.0329C188.956 1.0329 188.4 1.55926 187.675 1.55926C186.87 1.55926 186.093 1.31394 185.289 1.29608C184.314 1.2744 183.123 1.39049 182.214 1.7402C180.38 2.44536 177.292 1.88823 175.289 1.88823C171.583 1.88823 167.773 2.18431 164.021 2.18431C150.827 2.18431 137.685 1.88823 124.528 1.88823H112.257C108.065 1.88823 104.036 2.68356 99.8545 2.77647C93.1046 2.92647 86.362 2.77647 79.5896 2.77647C72.1388 2.77647 64.7353 2.48039 57.285 2.48039C53.9013 2.48039 50.6161 1.88823 47.2677 1.88823C44.0772 1.88823 40.7156 2.18431 37.4478 2.18431C34.2512 2.18431 31.3808 1 28.1378 1C25.3425 1 22.54 1.38694 19.7818 1.82244C18.1661 2.07755 15.7071 2.0116 14.3537 3.00675C12.7394 4.1937 11.3516 5.23126 9.45195 6.03333C8.27208 6.5315 7.55792 6.57154 6.88594 7.57951C6.29906 8.45983 6.55449 9.40745 5.63583 10.1949C4.80162 10.9099 5.19718 11.7859 4.7476 12.7115C4.40668 13.4134 4.04662 14.1144 3.69488 14.7676C2.82052 16.3914 2.37897 17.1603 2.37897 18.995V24.456V36.8419C2.37897 42.183 2.95343 47.8245 2.36252 53.1426C2.14145 55.1323 2.08289 57.0076 2.08289 59.0313C2.08289 61.4892 2.62313 63.7629 2.67505 66.203C2.71371 68.02 3.26721 69.6993 3.26721 71.5817C3.26721 73.0527 3.56328 74.4955 3.56328 75.9736V83.9677C3.56328 93.7598 3.26721 103.644 3.26721 113.493C3.26721 116.67 2.67505 119.773 2.67505 122.918V126.093C2.67505 126.901 2.11363 127.683 2.08289 128.544C1.97998 131.426 1.78682 134.318 1.78682 137.196C1.78682 138.827 1.19466 140.233 1.19466 141.867V145.486V155.684C1.19466 157.814 0.71565 160.55 1.26046 162.593C2.45176 167.06 1.66825 171.833 2.97113 176.278C3.65545 178.613 3.26721 181.406 3.26721 183.845C3.26721 184.773 3.13323 185.776 3.49749 186.641C3.77073 187.29 4.59144 187.937 4.73115 188.565C4.96308 189.609 5.75591 190.949 6.68855 191.543C7.6804 192.174 7.11272 192.537 7.4781 193.451C7.73133 194.084 8.41769 194.823 8.58016 195.392C8.799 196.158 9.7513 195.901 10.0441 196.56C10.3021 197.14 10.7804 197.7 11.1955 198.254C11.5616 198.742 11.1256 199.161 12.0015 199.356C12.9921 199.576 13.6283 200.182 14.4524 200.721C15.7561 201.574 18.3456 201.74 19.8476 201.971C21.0807 202.161 22.8715 202.003 24.0585 201.675C26.7796 200.925 29.1288 201.985 31.7565 202.267C33.4341 202.448 35.3554 202.422 37.0201 202.169C39.8305 201.741 42.4657 201.741 45.3246 201.741H45.3267H59.2095C60.3201 201.741 61.3188 201.52 62.4006 201.461C64.8295 201.33 67.0384 202.291 69.4571 202.333C72.4161 202.384 75.38 202.333 78.3395 202.333C83.4548 202.333 88.5194 202.037 93.6368 202.037C95.8821 202.037 98.0955 201.445 100.397 201.445C103.092 201.445 105.695 200.853 108.358 200.853C113.222 200.853 117.984 200.557 122.85 200.557H132.357C134.99 200.557 137.653 201.111 140.187 201.149C141.387 201.167 142.589 201.149 143.789 201.149C144.773 201.149 145.845 201.02 146.816 201.182C147.285 201.26 147.589 201.693 148.049 201.741Z" fill="white"/>
<path d="M151.898 201.445C150.576 201.445 149.396 201.883 148.049 201.741C147.589 201.693 147.285 201.26 146.816 201.182C145.845 201.02 144.773 201.149 143.789 201.149C142.589 201.149 141.387 201.167 140.187 201.149C137.653 201.111 134.99 200.557 132.357 200.557C129.188 200.557 126.019 200.557 122.85 200.557C117.984 200.557 113.222 200.853 108.358 200.853C105.695 200.853 103.092 201.445 100.397 201.445C98.0955 201.445 95.8821 202.037 93.6368 202.037C88.5194 202.037 83.4548 202.333 78.3395 202.333C75.38 202.333 72.4161 202.384 69.4571 202.333C67.0384 202.291 64.8295 201.33 62.4006 201.461C61.3188 201.52 60.3201 201.741 59.2095 201.741C54.5819 201.741 49.9543 201.741 45.3267 201.741C42.467 201.741 39.8312 201.741 37.0201 202.169C35.3554 202.422 33.4341 202.448 31.7565 202.267C29.1288 201.985 26.7796 200.925 24.0585 201.675C22.8715 202.003 21.0807 202.161 19.8476 201.971C18.3456 201.74 15.7561 201.574 14.4524 200.721C13.6283 200.182 12.9921 199.576 12.0015 199.356C11.1256 199.161 11.5616 198.742 11.1955 198.254C10.7804 197.7 10.3021 197.14 10.0441 196.56C9.7513 195.901 8.799 196.158 8.58016 195.392C8.41769 194.823 7.73133 194.084 7.4781 193.451C7.11272 192.537 7.6804 192.174 6.68855 191.543C5.75591 190.949 4.96308 189.609 4.73115 188.565C4.59144 187.937 3.77073 187.29 3.49749 186.641C3.13323 185.776 3.26721 184.773 3.26721 183.845C3.26721 181.406 3.65545 178.613 2.97113 176.278C1.66825 171.833 2.45176 167.06 1.26046 162.593C0.71565 160.55 1.19466 157.814 1.19466 155.684C1.19466 152.285 1.19466 148.886 1.19466 145.486C1.19466 144.28 1.19466 143.074 1.19466 141.867C1.19466 140.233 1.78682 138.827 1.78682 137.196C1.78682 134.318 1.97998 131.426 2.08289 128.544C2.11363 127.683 2.67505 126.901 2.67505 126.093C2.67505 125.035 2.67505 123.977 2.67505 122.918C2.67505 119.773 3.26721 116.67 3.26721 113.493C3.26721 103.644 3.56328 93.7598 3.56328 83.9677C3.56328 81.303 3.56328 78.6383 3.56328 75.9736C3.56328 74.4955 3.26721 73.0527 3.26721 71.5817C3.26721 69.6993 2.71371 68.02 2.67505 66.203C2.62313 63.7629 2.08289 61.4892 2.08289 59.0313C2.08289 57.0076 2.14145 55.1323 2.36252 53.1426C2.95343 47.8245 2.37897 42.183 2.37897 36.8419C2.37897 32.7133 2.37897 28.5846 2.37897 24.456C2.37897 22.6356 2.37897 20.8153 2.37897 18.995C2.37897 17.1603 2.82052 16.3914 3.69488 14.7676C4.04662 14.1144 4.40668 13.4134 4.7476 12.7115C5.19718 11.7859 4.80162 10.9099 5.63583 10.1949C6.55449 9.40745 6.29906 8.45983 6.88594 7.57951C7.55792 6.57154 8.27208 6.5315 9.45195 6.03333C11.3516 5.23126 12.7394 4.1937 14.3537 3.00675C15.7071 2.0116 18.1661 2.07755 19.7818 1.82244C22.54 1.38694 25.3425 1 28.1378 1C31.3808 1 34.2512 2.18431 37.4478 2.18431C40.7156 2.18431 44.0772 1.88823 47.2677 1.88823C50.6161 1.88823 53.9013 2.48039 57.285 2.48039C64.7353 2.48039 72.1388 2.77647 79.5896 2.77647C86.362 2.77647 93.1046 2.92647 99.8545 2.77647C104.036 2.68356 108.065 1.88823 112.257 1.88823C116.347 1.88823 120.437 1.88823 124.528 1.88823C137.685 1.88823 150.827 2.18431 164.021 2.18431C167.773 2.18431 171.583 1.88823 175.289 1.88823C177.292 1.88823 180.38 2.44536 182.214 1.7402C183.123 1.39049 184.314 1.2744 185.289 1.29608C186.093 1.31394 186.87 1.55926 187.675 1.55926C188.4 1.55926 188.956 1.0329 189.665 1.0329C192.004 1.0329 194.257 1.59216 196.606 1.59216C202.258 1.59216 207.754 1.05129 213.384 1.29608C216.314 1.42345 219.1 1.88823 222.069 1.88823C224.737 1.88823 227.293 2.48039 229.931 2.48039C233.263 2.48039 236.555 3.07255 239.867 3.07255C241.147 3.07255 242.198 3.6317 243.387 3.6647C244.715 3.70162 245.923 3.63681 247.219 3.96078C249.53 4.53854 252.1 4.33894 254.489 4.70098C256.069 4.94026 257.508 4.55294 259.079 4.55294C260.403 4.55294 261.672 4.84902 262.993 4.84902C264.306 4.84902 265.634 5.71155 266.925 5.42472C268.113 5.16075 269.304 4.90816 270.494 4.61873C273.99 3.7683 277.082 3.36862 280.692 3.36862C285.72 3.36862 290.597 2.48039 295.644 2.48039C297.982 2.48039 300.262 2.18431 302.586 2.18431C304.594 2.18431 307.201 2.62965 309.099 2.03627C310.255 1.67516 310.468 1 311.846 1C312.905 1 313.963 1 315.021 1C316.785 1 318.604 1.13125 320.301 1.65795C322.633 2.38152 325.213 3.49585 327.242 4.84902C328.442 5.64893 329.237 6.74386 330.434 7.44792C333.036 8.97856 333.098 14.3011 333.098 16.9882C333.098 21.74 334.579 26.5726 334.579 31.3316C334.579 33.9959 334.409 36.9971 334.003 39.6382C333.824 40.8008 333.724 42.1362 333.69 43.3063C333.636 45.172 332.802 46.8478 332.802 48.7344C332.802 54.4789 332.802 60.2825 332.802 66.022C332.802 69.8228 333.098 73.6321 333.098 77.4046C333.098 78.7246 333.062 80.0494 333.098 81.3688C333.138 82.7951 333.69 84.0929 333.69 85.5468C333.69 88.2896 333.394 90.9883 333.394 93.7382C333.394 97.4591 333.986 101.126 333.986 104.825C333.986 110.474 334.283 116.201 334.283 121.8C334.283 124.477 334.579 127.133 334.579 129.794C334.579 131.538 335.171 133.151 335.171 134.926C335.171 136.541 335.333 138.251 335.154 139.861C335.029 140.988 334.579 142.029 334.579 143.183C334.579 144.358 334.74 145.66 334.562 146.818C334.202 149.162 333.69 151.677 333.69 154.072C333.69 159.59 333.843 165.037 333.69 170.521C333.611 173.381 333.481 176.291 333.164 179.14C332.914 181.391 333.394 183.537 333.394 185.753C333.394 190.024 334.854 194.819 330.269 197.366C326.383 199.525 323.268 201.786 318.689 202.021C317.305 202.092 315.888 202.277 314.544 202.333C313.487 202.377 312.424 202.596 311.369 202.596C310.401 202.596 309.495 202.149 308.54 202.053C304.577 201.657 300.42 201.741 296.434 201.741C293.555 201.741 290.677 201.741 287.798 201.741C285.941 201.741 284.153 202.037 282.304 202.037C280.481 202.037 278.908 201.445 277.139 201.445C274.157 201.445 271.174 201.445 268.191 201.445C263.894 201.445 259.754 202.535 255.526 203.156C252.061 203.664 248.499 203.619 244.999 203.517C244.096 203.491 243.349 203.056 242.465 202.958C241.171 202.814 239.768 202.884 238.468 202.942C235.551 203.071 232.695 203.517 229.767 203.517C224.777 203.517 219.815 204.868 214.766 203.649C213.343 203.306 212.338 203.092 211.048 202.563C209.037 201.739 207.347 202.247 205.291 202.317C202.833 202.4 200.338 202.604 197.889 202.629C196.907 202.639 195.68 202.824 194.715 202.596C193.636 202.342 192.839 201.383 191.655 201.182C187.158 200.416 182.668 200.557 178.118 200.557C171.846 200.557 165.325 200.183 159.152 201.132C156.923 201.475 154.443 201.149 152.195 201.149C149.213 201.149 146.87 203.39 143.904 203.814" stroke="#040D26" stroke-width="2" stroke-linecap="round"/>
</svg>
