<svg width="334" height="204" viewBox="0 0 334 204" fill="none" xmlns="http://www.w3.org/2000/svg">
<path d="M19.7644 202.034H22.9833C24.2924 202.034 25.4781 201.46 26.7501 201.418C29.413 201.329 32.0537 200.493 34.7974 200.493H42.1597C49.5353 200.493 56.849 199.877 64.2126 199.877C68.09 199.877 71.8611 200.493 75.7527 200.493C80.3883 200.493 85.3229 200.62 89.9295 201.178C97.4449 202.089 105.402 201.418 112.975 201.418C122.002 201.418 131.332 201.397 140.336 200.562C143.601 200.259 147.632 199.594 150.9 200.357C154.593 201.218 158.561 201.418 162.355 201.418C170.075 201.418 177.735 201.726 185.469 201.726C195.457 201.726 205.379 201.11 215.364 201.11C222.55 201.11 229.745 200.892 236.903 200.802C244.823 200.701 252.73 200.446 260.531 201.487C263.587 201.894 266.882 202.034 269.965 202.034C272.564 202.034 275.131 202.581 277.721 202.651C283.822 202.816 289.866 202.651 295.939 202.651C298.548 202.651 301.211 202.343 303.764 202.343C306.14 202.343 308.315 202.465 310.527 201.795C311.984 201.353 313.407 200.444 314.55 199.415C315.692 198.387 317.992 197.658 319.396 197.172C320.826 196.677 323.074 196.179 324.549 196.179C326.733 196.179 327.688 195.282 329.48 194.347C331.405 193.343 331.176 191.762 331.176 189.775C331.176 187.698 331.432 185.459 331.158 183.406C330.491 178.398 330.867 173.085 330.867 168.013C330.867 162.971 331.52 157.88 330.713 152.878C329.948 148.135 330.475 143.678 330.884 138.975C331.404 133.003 331.018 127.121 330.576 121.151C330.153 115.439 329.806 109.631 328.864 103.978C328.351 100.899 328.71 97.5222 328.71 94.4069C328.71 90.4384 329.262 86.4908 329.943 82.5757C330.649 78.5169 331.31 73.1045 330.319 69.0324C329.857 67.1314 330.179 65.5191 330.405 63.6219C330.615 61.8623 330.344 60.0564 330.576 58.3142C330.74 57.087 331.176 56.0092 331.176 54.6501V51.3285C331.176 49.0485 331.484 46.8141 331.484 44.5482C331.484 42.7665 331.447 39.5537 332.271 38.0077C333.208 36.252 332.1 33.055 332.1 31.159C332.1 29.269 331.945 27.8247 331.552 26.0567C331.174 24.3563 330.857 22.9923 330.542 21.2626C330.372 20.3257 329.635 19.6497 329.635 18.6601C329.635 18.0046 329.571 17.5295 329.395 16.9137C328.568 14.0182 330.097 10.6056 327.854 8.11307C327.45 7.66427 327.367 6.96099 326.998 6.4865C326.559 5.92211 325.931 5.74527 325.457 5.27086C324.194 4.00777 322.068 3.86687 320.389 3.86687H305.424H301.007C299.868 3.86687 298.828 3.34643 297.685 3.26761C295.533 3.11915 293.204 2.6341 291.093 2.6341C285.957 2.6341 280.922 3.25049 275.787 3.25049C269.128 3.25049 262.439 3.86687 255.788 3.86687C249.087 3.86687 242.348 4.55349 235.653 3.88399C232.046 3.52331 228.231 3.86687 224.61 3.86687C221.242 3.86687 217.88 3.42508 214.525 3.23336C211.253 3.04638 208.111 2.32591 204.817 2.32591C202.423 2.32591 200.129 2.94229 197.711 2.94229C195.875 2.94229 194.131 2.96038 192.318 3.25049C185.212 4.3874 177.464 3.55868 170.265 3.55868C161.99 3.55868 153.691 3.25049 145.438 3.25049C141.12 3.25049 136.831 2.71377 132.529 2.6341C128.13 2.55265 123.686 2.86799 119.293 2.61698C105.385 1.82222 91.2679 1.40133 77.345 1.40133C71.4824 1.40133 65.5783 1.09314 59.6924 1.09314C57.0745 1.09314 54.4867 1.65039 51.8849 1.70953C48.5251 1.78589 45.1886 1.3199 41.8344 1.11026C36.0043 0.745881 30.0853 1.40133 24.3188 1.40133C20.4601 1.40133 15.9191 1.95932 13.1212 4.7572C12.5334 5.34493 11.1955 5.51452 10.4159 6.02422C9.60601 6.55377 9.32511 6.65392 8.80648 7.49669C8.17413 8.52426 7.26975 10.3463 6.20397 10.9553C5.93826 11.1071 5.99156 11.6354 5.84441 11.897C5.46648 12.5689 4.79785 13.0095 4.38906 13.6605C4.04018 14.2162 3.56721 14.9169 3.56721 15.5782V19.2765C3.56721 26.0646 3.8754 32.6803 3.8754 39.4459C3.8754 43.1006 3.13619 47.8484 4.11511 51.397C4.37781 52.3493 4.18359 53.5629 4.18359 54.5474C4.18359 55.8475 5.00259 57.0387 5.09105 58.3655C5.27514 61.1268 5.34528 64.1899 4.56027 66.8066C3.74779 69.5149 3.83968 72.3769 3.12204 75.1449C2.75471 76.5617 2.95083 78.1589 2.95083 79.6137C2.95083 81.0848 2.66905 82.5098 2.64263 83.9626C2.55741 88.6501 3.25902 93.1736 3.25902 97.797C3.25902 100.4 3.96627 102.968 4.16647 105.57C4.41623 108.817 4.1128 112.142 4.18359 115.398C4.21563 116.872 4.79998 118.089 4.79998 119.644V124.233C4.79998 126.752 5.10817 129.276 5.10817 131.75C5.10817 137.279 4.49179 142.786 4.49179 148.289C4.49179 154.413 1.10167 159.728 1.10167 165.839C1.10167 170.636 1.40986 175.463 1.40986 180.29C1.40986 182.377 1.64782 184.595 1.17016 186.625C0.907324 187.742 0.921018 188.68 1.40986 189.536C2.26947 191.04 3.25573 191.883 3.6357 193.713C4.04669 195.694 5.34819 197.297 6.66625 198.747C6.94723 199.056 8.03804 199.845 8.46404 199.997C9.14387 200.24 9.86271 199.969 10.5871 200.562C11.0119 200.91 11.8757 201.125 12.4363 201.35C13.5899 201.811 14.7647 202.034 16.049 202.034H19.7644Z" fill="white"/>
<path d="M31.9209 202.034C26.602 202.034 21.4819 202.034 16.049 202.034C14.7647 202.034 13.5899 201.811 12.4363 201.35C11.8757 201.125 11.0119 200.91 10.5871 200.562C9.86271 199.969 9.14387 200.24 8.46404 199.997C8.03804 199.845 6.94723 199.056 6.66625 198.747C5.34819 197.297 4.0467 195.694 3.6357 193.713C3.25573 191.883 2.26948 191.04 1.40986 189.536C0.921018 188.68 0.907324 187.742 1.17016 186.625C1.64782 184.595 1.40986 182.377 1.40986 180.29C1.40986 175.463 1.10167 170.636 1.10167 165.839C1.10167 159.728 4.49179 154.413 4.49179 148.289C4.49179 142.786 5.10817 137.279 5.10817 131.75C5.10817 129.276 4.79998 126.752 4.79998 124.233C4.79998 122.704 4.79998 121.174 4.79998 119.644C4.79998 118.089 4.21563 116.872 4.18359 115.398C4.1128 112.142 4.41623 108.817 4.16647 105.57C3.96627 102.968 3.25902 100.4 3.25902 97.797C3.25902 93.1736 2.55741 88.6501 2.64263 83.9626C2.66905 82.5098 2.95083 81.0848 2.95083 79.6137C2.95083 78.1589 2.75471 76.5617 3.12204 75.1449C3.83968 72.3769 3.74779 69.5149 4.56027 66.8066C5.34528 64.1899 5.27514 61.1268 5.09105 58.3655C5.00259 57.0387 4.18359 55.8475 4.18359 54.5474C4.18359 53.5629 4.37781 52.3492 4.11511 51.397C3.13619 47.8484 3.8754 43.1006 3.8754 39.4459C3.8754 32.6803 3.56721 26.0646 3.56721 19.2765C3.56721 18.0437 3.56721 16.8109 3.56721 15.5782C3.56721 14.9169 4.04018 14.2162 4.38906 13.6605C4.79785 13.0095 5.46648 12.5689 5.84441 11.897C5.99156 11.6354 5.93826 11.1071 6.20397 10.9553C7.26975 10.3463 8.17413 8.52426 8.80648 7.49669C9.32511 6.65392 9.60601 6.55378 10.4159 6.02422C11.1955 5.51452 12.5334 5.34493 13.1212 4.7572C15.9191 1.95932 20.4601 1.40133 24.3188 1.40133C30.0853 1.40133 36.0043 0.745881 41.8344 1.11026C45.1886 1.3199 48.5251 1.78589 51.8849 1.70953C54.4867 1.65039 57.0745 1.09314 59.6924 1.09314C65.5783 1.09314 71.4824 1.40133 77.345 1.40133C91.2679 1.40133 105.385 1.82222 119.293 2.61698C123.686 2.86799 128.13 2.55265 132.529 2.6341C136.831 2.71377 141.12 3.25049 145.438 3.25049C153.691 3.25049 161.99 3.55868 170.265 3.55868C177.464 3.55868 185.212 4.3874 192.318 3.25049C194.131 2.96038 195.875 2.94229 197.711 2.94229C200.129 2.94229 202.423 2.32591 204.817 2.32591C208.111 2.32591 211.253 3.04638 214.525 3.23336C217.88 3.42508 221.242 3.86687 224.61 3.86687C228.231 3.86687 232.046 3.52331 235.653 3.88399C242.348 4.55349 249.087 3.86687 255.788 3.86687C262.439 3.86687 269.128 3.25049 275.787 3.25049C280.922 3.25049 285.957 2.6341 291.093 2.6341C293.204 2.6341 295.533 3.11915 297.685 3.26761C298.828 3.34643 299.868 3.86687 301.007 3.86687C302.479 3.86687 303.952 3.86687 305.424 3.86687C310.412 3.86687 315.401 3.86687 320.389 3.86687C322.068 3.86687 324.194 4.00777 325.457 5.27086C325.931 5.74527 326.559 5.92211 326.998 6.4865C327.367 6.96099 327.45 7.66427 327.854 8.11307C330.097 10.6056 328.568 14.0182 329.395 16.9137C329.571 17.5295 329.635 18.0046 329.635 18.6601C329.635 19.6497 330.372 20.3257 330.542 21.2626C330.857 22.9923 331.174 24.3563 331.552 26.0567C331.945 27.8247 332.1 29.269 332.1 31.159C332.1 33.055 333.208 36.252 332.271 38.0077C331.447 39.5537 331.484 42.7665 331.484 44.5482C331.484 46.8141 331.176 49.0485 331.176 51.3285C331.176 52.4357 331.176 53.5429 331.176 54.6501C331.176 56.0092 330.74 57.087 330.576 58.3142C330.344 60.0564 330.615 61.8623 330.405 63.6219C330.179 65.5191 329.857 67.1314 330.319 69.0324C331.31 73.1045 330.649 78.5169 329.943 82.5757C329.262 86.4908 328.71 90.4384 328.71 94.4069C328.71 97.5222 328.351 100.899 328.864 103.978C329.806 109.631 330.153 115.439 330.576 121.151C331.018 127.121 331.404 133.003 330.884 138.975C330.475 143.678 329.948 148.135 330.713 152.878C331.52 157.88 330.867 162.971 330.867 168.013C330.867 173.085 330.491 178.398 331.158 183.406C331.432 185.459 331.176 187.698 331.176 189.775C331.176 191.762 331.405 193.343 329.48 194.347C327.688 195.282 326.733 196.179 324.549 196.179C323.074 196.179 320.826 196.677 319.396 197.172C317.992 197.658 315.692 198.387 314.55 199.415C313.407 200.444 311.984 201.353 310.527 201.795C308.315 202.465 306.14 202.343 303.764 202.343C301.211 202.343 298.548 202.651 295.939 202.651C289.866 202.651 283.822 202.816 277.721 202.651C275.131 202.581 272.564 202.034 269.965 202.034C266.882 202.034 263.587 201.894 260.531 201.487C252.73 200.446 244.823 200.701 236.903 200.802C229.745 200.892 222.55 201.11 215.364 201.11C205.379 201.11 195.457 201.726 185.469 201.726C177.735 201.726 170.075 201.418 162.355 201.418C158.561 201.418 154.593 201.218 150.9 200.357C147.632 199.594 143.601 200.259 140.336 200.562C131.332 201.397 122.002 201.418 112.975 201.418C105.402 201.418 97.4449 202.089 89.9295 201.178C85.3229 200.62 80.3883 200.493 75.7527 200.493C71.8611 200.493 68.0899 199.877 64.2126 199.877C56.849 199.877 49.5353 200.493 42.1597 200.493C39.7056 200.493 37.2515 200.493 34.7974 200.493C32.0537 200.493 29.413 201.329 26.7501 201.418C25.4781 201.46 24.2924 202.034 22.9833 202.034C21.9104 202.034 20.8374 202.034 19.7644 202.034C18.3131 202.034 17.0071 202.106 15.5867 202.343" stroke="#040D26" stroke-width="2" stroke-linecap="round"/>
</svg>
