<svg width="279" height="45" viewBox="0 0 279 45" fill="none" xmlns="http://www.w3.org/2000/svg">
<rect x="6" y="4" width="267" height="40" rx="20" fill="#EC860F"/>
<path d="M41.1225 22.0469C40.392 21.1859 39.5571 21.212 38.5396 21.0294C38.3309 21.0033 38.1482 20.9511 37.9134 20.9511C37.5743 20.9511 37.2612 21.1076 36.922 21.1076C36.609 21.1076 36.609 20.6119 36.5829 20.3771C36.4263 18.8117 36.5046 17.1942 36.5046 15.6027C36.5046 14.5591 36.2959 13.5155 36.2959 12.472C36.2959 12.0545 36.2437 11.6893 36.7655 11.6893C37.4438 11.6893 38.07 12.1589 38.7222 12.1589C39.4006 12.1589 39.4006 10.7761 39.4006 10.3065C39.4006 9.26294 38.8005 9.41948 38.0178 9.41948C37.209 9.41948 36.4263 9.18467 35.6176 9.18467C34.6783 9.18467 34.574 9.81083 34.574 10.5935C34.574 11.1414 34.6783 11.7154 34.6783 12.2632C34.7305 14.2461 34.7305 16.255 34.7305 18.2378C34.7305 22.4643 34.6783 26.6647 34.6783 30.8912C34.6783 31.3869 34.5479 31.8826 34.5479 32.3783C34.5479 32.9784 34.7044 33.0045 35.2523 33.0045C35.6958 33.0045 38.6961 32.7697 38.9309 32.4566C39.8441 32.3001 41.0703 31.3087 41.6443 30.5782C42.2182 29.8737 42.3748 28.9606 42.3748 28.0475C42.3748 26.5343 42.0878 23.1687 41.1225 22.0469ZM40.4963 27.1343C40.392 28.8302 39.818 29.8998 38.1743 30.4738C37.8874 30.5521 37.3656 30.7347 37.0786 30.7347C36.7394 30.7347 36.6611 30.4216 36.6611 30.1346C36.6611 29.665 36.7916 29.1693 36.7916 28.6997C36.7916 27.9692 36.7655 27.2387 36.7394 26.5343C36.7133 25.6994 36.4785 24.8906 36.4785 24.0558C36.4785 23.5601 36.5307 22.8817 37.1829 22.8817C37.6004 22.8817 37.9656 23.1165 38.357 23.1426C38.5396 23.4296 40.4963 22.8556 40.4963 26.6647L40.4963 27.1343ZM39.244 22.7774L39.2179 22.7774L39.244 22.7774ZM41.0703 26.7952L41.0703 26.4821L41.0703 26.7952ZM48.0878 9.39339C47.4094 9.34121 46.7572 9.18467 46.0789 9.18467C45.1397 9.18467 45.0353 9.83691 45.0353 10.5935C45.0353 11.1414 45.1397 11.6893 45.1397 12.2632C45.1918 14.2461 45.1918 16.255 45.1918 18.2378C45.1918 22.4643 45.1657 26.6647 45.1657 30.8912C45.1657 31.3869 45.0092 31.8826 45.0092 32.3783C45.0092 32.9784 45.1657 33.0045 45.7136 33.0045C46.705 33.0045 47.7225 32.848 48.7139 32.6914C49.0531 32.6392 49.4444 32.6392 49.4444 32.1696C49.4444 31.7261 49.4183 31.2826 49.4183 30.8391C49.4183 30.5521 49.3662 30.4216 49.0792 30.4216C48.5313 30.4216 48.0617 30.7347 47.5399 30.7347C47.2007 30.7347 47.1225 30.4216 47.1225 30.1346C47.1225 29.665 47.2529 29.1693 47.2529 28.6736C47.2529 27.9692 47.2268 27.2387 47.2007 26.5343C47.1746 25.6994 46.9398 24.8906 46.9398 24.0558C46.9398 23.5601 46.992 22.8817 47.6443 22.8817C48.0617 22.8817 48.4269 23.1426 48.8444 23.1426C49.1053 23.1426 49.3401 22.9339 49.3401 22.673C49.3401 22.386 49.2357 22.1251 49.2096 21.8381C49.1314 21.0815 49.314 20.9511 48.3748 20.9511C48.0356 20.9511 47.7225 21.1076 47.3834 21.1076C47.0703 21.1076 47.0442 20.6119 47.0442 20.3771C46.8877 18.7857 46.9659 17.1942 46.9659 15.6027C46.9659 14.4809 46.7572 13.359 46.7572 12.2111C46.7572 11.8719 46.8355 11.6893 47.2268 11.6893C47.9052 11.6893 48.5052 12.1589 49.1835 12.1589C49.8619 12.1589 49.8619 10.7761 49.8619 10.3065C49.8619 9.26294 49.2618 9.41948 48.4791 9.41948L48.0878 9.39339ZM60.4074 19.9858C60.0943 19.5162 59.2855 18.9422 58.7376 18.7596C60.0943 18.0291 60.4856 16.281 60.4856 14.8461C60.4856 12.8372 59.0768 9.02814 56.6244 9.02814C55.7112 9.02814 54.8242 9.52384 54.2502 10.2283C53.024 11.7415 53.1023 13.9069 52.9457 15.7593C53.3893 15.681 53.8328 15.6288 54.2763 15.5766C54.9025 15.5505 54.9286 15.681 55.1112 15.0027C55.2416 14.3504 55.1373 13.6721 55.2938 13.0459C55.4503 12.4459 55.9982 11.4023 56.6766 11.4023L56.8331 11.4023C57.7723 12.1589 58.3724 13.6982 58.3724 14.8983C58.3724 17.4029 55.6069 17.8203 55.6069 18.2639C55.6069 20.5858 56.7548 19.1248 58.1637 20.1423C59.129 21.6294 59.1551 24.0558 59.1551 25.7516C59.1551 27.0821 58.9464 30.813 57.094 30.813C54.6938 30.813 55.0851 25.7255 54.8764 24.1601C54.7981 23.6122 54.9025 23.6905 54.3546 23.5601C54.1198 23.5079 53.9372 23.4818 53.7023 23.4818C53.4154 23.4818 53.1284 23.5079 52.8414 23.5079C52.8414 23.7949 52.8153 24.0818 52.8153 24.3688C52.8153 27.0561 53.2066 33.1349 56.9375 33.1349C60.016 33.1349 60.7465 30.1868 60.9813 27.6822C61.0596 26.4821 61.164 25.3081 61.164 24.134C61.164 22.9078 61.0596 21.0294 60.4074 19.9858ZM59.729 22.3338L59.729 22.2817L59.7812 22.3599L59.729 22.3338ZM74.8333 8.8716C74.5724 8.92378 74.3376 8.89769 74.1028 8.89769C73.3201 8.89769 72.7461 8.97596 72.7461 9.88909C72.7461 10.7761 72.8766 11.6371 72.8766 12.5241C72.8766 18.6552 73.1636 24.8124 73.1636 30.9434C73.1636 31.413 73.0853 31.8826 73.0853 32.3523C73.0853 33.1088 73.294 33.0306 73.868 33.1871C74.1289 33.2393 74.3898 33.3437 74.6507 33.3437C75.042 33.3437 75.042 33.0045 75.042 32.6914C75.042 31.9087 74.9898 31.0999 74.9898 30.3173C74.9898 28.8041 75.042 27.317 75.042 25.8038C75.042 23.6644 74.8855 21.5251 74.8855 19.3857C74.8855 18.316 75.8508 18.6552 76.5552 18.3682C78.4076 17.5855 79.2424 15.394 79.2424 13.5416C79.2424 11.2718 78.0423 8.81942 75.4855 8.81942C75.2507 8.81942 75.042 8.84551 74.8333 8.8716ZM75.7464 16.7768C75.5899 16.8289 75.4073 16.9072 75.2507 16.9072C74.4941 16.9072 74.7811 14.2461 74.7811 13.646C74.7811 12.9938 74.6507 12.3415 74.6507 11.6632C74.6507 11.4284 74.7289 10.4892 75.0159 10.4892C76.79 10.4892 77.3379 12.1067 77.3379 13.6199C77.3379 14.7939 76.9466 16.281 75.7464 16.7768ZM84.761 9.39339C84.0827 9.34121 83.4304 9.18467 82.7521 9.18467C81.8129 9.18467 81.7085 9.83691 81.7085 10.5935C81.7085 11.1414 81.8129 11.6893 81.8129 12.2632C81.8651 14.2461 81.8651 16.255 81.8651 18.2378C81.8651 22.4643 81.839 26.6647 81.839 30.8912C81.839 31.3869 81.6824 31.8826 81.6824 32.3783C81.6824 32.9784 81.839 33.0045 82.3869 33.0045C83.3783 33.0045 84.3958 32.848 85.3872 32.6914C85.7263 32.6392 86.1177 32.6392 86.1177 32.1696C86.1177 31.7261 86.0916 31.2826 86.0916 30.8391C86.0916 30.5521 86.0394 30.4216 85.7524 30.4216C85.2045 30.4216 84.7349 30.7347 84.2131 30.7347C83.874 30.7347 83.7957 30.4216 83.7957 30.1346C83.7957 29.665 83.9261 29.1693 83.9261 28.6736C83.9261 27.9692 83.9001 27.2387 83.874 26.5343C83.8479 25.6994 83.6131 24.8906 83.6131 24.0558C83.6131 23.5601 83.6652 22.8817 84.3175 22.8817C84.7349 22.8817 85.1002 23.1426 85.5176 23.1426C85.7785 23.1426 86.0133 22.9339 86.0133 22.673C86.0133 22.386 85.909 22.1251 85.8829 21.8381C85.8046 21.0815 85.9872 20.9511 85.048 20.9511C84.7088 20.9511 84.3958 21.1076 84.0566 21.1076C83.7435 21.1076 83.7174 20.6119 83.7174 20.3771C83.5609 18.7857 83.6392 17.1942 83.6392 15.6027C83.6392 14.4809 83.4304 13.359 83.4304 12.2111C83.4304 11.8719 83.5087 11.6893 83.9001 11.6893C84.5784 11.6893 85.1784 12.1589 85.8568 12.1589C86.5351 12.1589 86.5351 10.7761 86.5351 10.3065C86.5351 9.26294 85.935 9.41948 85.1524 9.41948L84.761 9.39339ZM96.6632 26.1168C96.2457 26.1168 95.8805 26.0386 95.4631 26.0386C95.2804 26.0386 94.9934 26.0386 94.863 26.1429C94.4716 26.5082 94.9152 29.2476 93.4542 29.2476C91.7844 29.2476 91.8888 24.8645 91.8366 23.7427C91.8105 23.2992 91.7061 22.8556 91.7061 22.4121C91.7061 21.0294 93.2454 21.4207 94.2107 21.4207C94.7586 21.4207 96.324 21.499 96.6632 21.0815C96.8197 20.8728 96.8458 20.5076 96.8458 20.2467C96.8458 20.064 96.8197 19.8814 96.8197 19.6988C96.611 19.4901 96.0892 19.4901 95.8283 19.4901C94.6543 19.4901 93.5324 19.8292 92.3845 19.8292C91.967 19.8292 91.9149 19.4379 91.9149 19.1248C91.9149 18.5248 91.9931 17.9247 91.9931 17.3246C91.9931 16.568 91.7844 13.8025 92.9584 13.8025C94.2107 13.8025 93.8977 15.6549 94.6282 15.6549L95.7239 15.6549C95.9327 15.6549 96.1936 15.4723 96.1936 15.2375C96.1936 13.7243 94.9413 11.9241 93.3237 11.9241C89.906 11.9241 89.8016 16.7246 89.8016 19.0987C89.8016 20.2467 89.7494 21.3946 89.7494 22.5165C89.7494 24.0297 89.7233 25.6994 90.1408 27.1604C90.5582 28.778 91.4192 31.0999 93.4281 31.0999C94.9413 31.0999 95.9327 30.1346 96.4545 28.8041C96.6632 28.2301 96.9502 27.1082 96.9502 26.5343C96.9502 26.2473 96.9502 26.1168 96.6632 26.1168ZM105.969 27.63C105.864 28.6736 105.656 30.7869 104.221 30.7869C102.316 30.7869 102.186 25.282 102.186 23.9514C102.186 22.5426 102.29 21.1598 102.29 19.751C102.29 18.5248 102.212 17.3246 102.212 16.1245C102.212 15.0027 102.316 10.6979 103.934 10.6979C105.473 10.6979 105.734 13.7504 105.864 14.8461C106.229 14.7418 106.647 14.5852 107.012 14.533C107.221 14.507 107.612 14.5591 107.612 14.1939C107.612 14.0373 107.534 13.8808 107.456 13.7504C107.456 13.2286 107.221 12.5502 107.064 12.0545C106.647 10.5935 105.682 8.27154 103.855 8.27154C102.525 8.27154 101.455 9.54993 101.038 10.6979C100.177 12.9938 100.385 15.8897 100.385 18.316C100.385 19.7771 100.333 21.2381 100.333 22.673C100.333 23.7427 100.359 24.7863 100.438 25.8298C100.646 28.204 100.803 33.1871 104.142 33.1871C106.464 33.1871 107.456 30.9434 107.743 28.9867C107.795 28.6736 107.873 28.3605 107.873 28.0475C107.873 27.5779 106.334 27.6822 105.969 27.63ZM116.323 10.4631C116.036 10.3326 115.696 10.3065 115.383 10.3065C114.783 10.3065 114.183 10.4109 113.583 10.4109C112.827 10.4109 112.018 10.3587 111.287 10.2543C111.026 10.2022 110.792 10.0717 110.557 10.0717C110.113 10.0717 110.061 11.1153 110.061 11.4284C110.061 11.898 110.113 12.4459 110.739 12.4459C111.209 12.4459 111.652 12.1589 112.122 12.1589C112.957 12.1589 112.879 12.8111 112.879 13.4373C113.035 18.5769 113.348 23.7427 113.557 28.9084L113.557 28.9867C113.557 29.6128 113.479 30.239 113.479 30.8391C113.479 31.6739 113.427 32.0914 114.392 32.0914C114.966 32.0914 115.696 32.0392 115.696 31.3087C115.696 30.8912 115.54 30.4999 115.488 30.1085C115.462 29.6389 115.462 29.1954 115.462 28.7258C115.462 28.2823 115.462 27.8648 115.409 27.4213C115.175 25.0211 115.096 22.6208 114.966 20.2206C114.861 17.8986 114.914 15.6027 114.653 13.3068C114.627 13.1242 114.601 12.9416 114.601 12.7329C114.601 12.5502 114.601 12.2111 114.861 12.2111C115.148 12.2111 115.54 12.5241 115.957 12.5241C116.505 12.5241 116.87 12.0545 116.87 11.5327C116.87 11.1675 116.688 10.6457 116.323 10.4631ZM122.172 8.8716C121.911 8.92378 121.676 8.89769 121.441 8.89769C120.658 8.89769 120.085 8.97596 120.085 9.88909C120.085 10.7761 120.215 11.6371 120.215 12.5241C120.215 18.6552 120.502 24.8124 120.502 30.9434C120.502 31.413 120.424 31.8826 120.424 32.3523C120.424 33.1088 120.632 33.0306 121.206 33.1871C121.467 33.2393 121.728 33.3437 121.989 33.3437C122.38 33.3437 122.38 33.0045 122.38 32.6914C122.38 31.9087 122.328 31.0999 122.328 30.3173C122.328 28.8041 122.38 27.317 122.38 25.8038C122.38 23.6644 122.224 21.5251 122.224 19.3857C122.224 18.316 123.189 18.6552 123.894 18.3682C125.746 17.5855 126.581 15.394 126.581 13.5416C126.581 11.2718 125.381 8.81942 122.824 8.81942C122.589 8.81942 122.38 8.84551 122.172 8.8716ZM123.085 16.7768C122.928 16.8289 122.746 16.9072 122.589 16.9072C121.833 16.9072 122.119 14.2461 122.119 13.646C122.119 12.9938 121.989 12.3415 121.989 11.6632C121.989 11.4284 122.067 10.4892 122.354 10.4892C124.128 10.4892 124.676 12.1067 124.676 13.6199C124.676 14.7939 124.285 16.281 123.085 16.7768ZM134.004 12.4459C133.9 11.7675 134.004 11.1153 134.004 10.437C134.004 9.73256 133.717 9.57602 133.065 9.57602C132.726 9.57602 131.969 9.60211 131.708 9.78473C131.369 10.0195 131.369 12.0545 131.317 12.5502C130.743 17.2464 130.09 21.9425 129.569 26.6386C129.438 28.0214 129.36 29.4302 129.047 30.7608C128.969 31.126 128.786 31.4391 128.786 31.8305C128.786 32.5871 129.36 32.4305 129.908 32.5088C130.064 32.5349 130.247 32.5871 130.43 32.5871C130.978 32.5871 130.925 31.9087 130.925 31.5174C130.925 30.4216 131.056 29.3519 131.108 28.2823C131.134 27.7344 131.108 27.0821 131.708 26.8213C131.838 26.7691 132.021 26.743 132.178 26.743C133.43 26.743 133.482 26.5864 133.482 27.63C133.482 28.1779 133.795 29.8476 133.795 30.3955C133.795 30.9956 133.613 32.4827 134.474 32.4827C135.021 32.4827 135.543 32.3262 136.091 32.4566C136.248 32.2479 136.352 31.9609 136.326 31.7C135.491 26.4038 134.995 18.3682 134.004 12.4459ZM133.352 24.6297C133.326 24.7341 133.326 24.8384 133.326 24.9428C133.169 25.0472 132.96 25.0993 132.778 25.0993C132.178 25.0993 131.604 24.9689 131.604 24.2645C131.604 21.9164 131.76 21.0815 132.491 17.3768L132.491 17.4029C132.726 19.8031 133.352 22.0729 133.352 24.4471L133.352 24.6297ZM149.809 28.9606C149.261 28.9345 148.713 28.8562 148.165 28.8823C148.113 23.6383 148.061 18.3943 148.061 13.1503C148.061 12.3154 148.165 11.4545 148.165 10.5935C148.165 10.2283 148.139 9.83691 148.087 9.44557C148.009 9.00205 148.139 8.79333 147.539 8.79333C147.252 8.79333 146 8.84551 145.869 9.15858C145.921 9.26294 145.843 9.68038 145.843 9.81083C145.843 10.3587 146 10.8805 146.052 11.4284C146.208 12.9155 146.13 14.533 146.156 16.0462C146.208 19.3596 146.208 22.6991 146.313 26.0386C146.313 26.5864 146.339 27.1343 146.339 27.6822L146.313 28.6475C144.956 28.6214 143.625 29.0128 142.295 29.0128C141.825 29.0128 141.825 28.8041 141.825 28.3866C141.825 27.7083 141.851 27.03 141.851 26.3516C141.851 22.5686 141.721 18.7857 141.695 15.0027C141.695 13.9591 141.617 12.9416 141.617 11.9241C141.617 11.3501 141.721 10.8022 141.721 10.2543C141.721 9.52384 141.538 9.6282 141.017 9.49775C140.808 9.44557 140.625 9.3673 140.39 9.3673C139.634 9.3673 139.764 10.4892 139.764 10.9849C139.764 12.0806 139.842 13.1503 139.842 14.22C139.842 15.681 139.712 17.1159 139.712 18.5508C139.712 20.064 139.921 21.5511 139.921 23.0643C139.921 24.7602 139.686 26.4821 139.686 28.204C139.686 28.8562 139.712 29.5607 139.816 30.1868C139.921 30.7086 140.025 30.9695 140.573 30.9695C140.886 30.9695 141.173 30.9434 141.46 30.9434C143.86 30.9434 146.287 31.2826 148.713 31.3608C148.713 31.8565 148.713 32.3522 148.739 32.848C148.765 33.0828 148.791 33.3176 148.817 33.3176C148.922 33.3176 149 33.2915 149.078 33.2915C149.417 33.2915 149.704 33.3697 150.044 33.3697C150.644 33.3697 150.748 33.0306 150.748 32.5088C150.748 32.0392 150.644 31.5696 150.644 31.0999C150.644 30.7086 150.696 30.3173 150.696 29.9259C150.696 29.3259 150.409 29.0389 149.809 28.9606ZM157.053 29.5868C156.348 28.9867 156.4 25.0472 156.374 24.0297C156.322 21.3424 156.296 18.6552 156.035 15.968C155.931 15.0548 155.722 14.1417 155.722 13.2286C155.722 12.9416 155.774 12.5763 156.113 12.5763C156.4 12.5763 156.687 12.6807 156.974 12.6807C157.287 12.6807 157.314 12.4459 157.314 12.2111C157.314 11.6632 157.209 11.1414 157.157 10.5935C156.296 10.6979 155.435 10.75 154.548 10.75C154.157 10.75 153.765 10.6718 153.374 10.6718C152.513 10.6718 152.435 11.1153 152.435 11.8458C152.435 12.1589 152.461 12.8372 152.904 12.8372C153.244 12.8372 153.583 12.7068 153.948 12.6546C154 17.5073 154.365 22.3599 154.731 27.2126C154.783 27.8387 154.835 28.491 154.835 29.1171C154.835 29.8737 154.131 29.7172 153.635 29.7172L153.4 29.7172C153.4 30.2129 153.322 31.5957 154.052 31.5957C155.044 31.5957 156.035 31.5435 157.053 31.4652C157.783 31.413 158.227 31.3869 158.227 30.4999L158.227 30.3694C158.227 30.2129 158.227 29.5868 157.992 29.5868C157.783 29.5868 157.627 29.6911 157.444 29.6911C157.287 29.6911 157.157 29.665 157.027 29.5868L157.053 29.5868ZM165.363 30.7347C165.363 29.9781 165.181 29.2215 165.129 28.4649C165.024 27.2648 164.972 26.0386 164.92 24.8124C164.789 22.8035 164.946 20.6902 164.946 18.6552C164.946 18.1595 164.946 13.4112 164.737 13.2547C164.555 13.1503 164.372 13.1503 164.189 13.1503C162.467 13.1503 162.781 14.0895 162.781 15.4201C162.781 20.2728 163.172 25.0993 163.172 29.9259C163.172 31.3087 163.224 31.3869 164.659 31.3869C165.311 31.3869 165.363 31.3608 165.363 30.7347ZM162.285 8.89769C162.181 8.89769 162.102 8.8716 161.998 8.8716C161.293 8.8716 160.667 9.49775 160.667 10.2022C160.667 10.9327 161.32 11.4806 162.024 11.4806C162.702 11.4806 163.276 10.8805 163.276 10.2022C163.276 9.6282 162.859 9.02814 162.285 8.89769ZM166.616 9.28903C166.511 9.23685 166.433 9.21076 166.329 9.18467C166.146 9.08032 165.937 9.00205 165.729 9.00205C165.129 9.00205 164.607 9.54993 164.607 10.15C164.607 10.8022 165.181 11.324 165.833 11.324C166.459 11.324 167.059 10.6718 167.059 10.0717C167.059 9.75864 166.903 9.41948 166.616 9.28903ZM182.214 10.4631C181.927 10.3326 181.588 10.3065 181.275 10.3065C180.675 10.3065 180.075 10.4109 179.475 10.4109C178.718 10.4109 177.909 10.3587 177.179 10.2543C176.918 10.2022 176.683 10.0717 176.448 10.0717C176.005 10.0717 175.953 11.1153 175.953 11.4284C175.953 11.898 176.005 12.4459 176.631 12.4459C177.101 12.4459 177.544 12.1589 178.014 12.1589C178.849 12.1589 178.77 12.8111 178.77 13.4373C178.927 18.5769 179.24 23.7427 179.449 28.9084L179.449 28.9867C179.449 29.6128 179.37 30.239 179.37 30.8391C179.37 31.6739 179.318 32.0914 180.283 32.0914C180.857 32.0914 181.588 32.0392 181.588 31.3087C181.588 30.8912 181.431 30.4999 181.379 30.1085C181.353 29.6389 181.353 29.1954 181.353 28.7258C181.353 28.2823 181.353 27.8648 181.301 27.4213C181.066 25.0211 180.988 22.6208 180.857 20.2206C180.753 17.8986 180.805 15.6027 180.544 13.3068C180.518 13.1242 180.492 12.9416 180.492 12.7329C180.492 12.5502 180.492 12.2111 180.753 12.2111C181.04 12.2111 181.431 12.5241 181.849 12.5241C182.397 12.5241 182.762 12.0545 182.762 11.5327C182.762 11.1675 182.579 10.6457 182.214 10.4631ZM191.116 12.4459C191.011 11.7675 191.116 11.1153 191.116 10.437C191.116 9.73256 190.829 9.57602 190.176 9.57602C189.837 9.57602 189.081 9.60211 188.82 9.78473C188.481 10.0195 188.481 12.0545 188.428 12.5502C187.855 17.2464 187.202 21.9425 186.68 26.6386C186.55 28.0214 186.472 29.4302 186.159 30.7608C186.08 31.126 185.898 31.4391 185.898 31.8305C185.898 32.5871 186.472 32.4305 187.02 32.5088C187.176 32.5349 187.359 32.5871 187.541 32.5871C188.089 32.5871 188.037 31.9087 188.037 31.5174C188.037 30.4216 188.168 29.3519 188.22 28.2823C188.246 27.7344 188.22 27.0821 188.82 26.8213C188.95 26.7691 189.133 26.743 189.289 26.743C190.542 26.743 190.594 26.5864 190.594 27.63C190.594 28.1779 190.907 29.8476 190.907 30.3955C190.907 30.9956 190.724 32.4827 191.585 32.4827C192.133 32.4827 192.655 32.3262 193.203 32.4566C193.359 32.2479 193.464 31.9609 193.438 31.7C192.603 26.4038 192.107 18.3682 191.116 12.4459ZM190.463 24.6297C190.437 24.7341 190.437 24.8384 190.437 24.9428C190.281 25.0472 190.072 25.0993 189.89 25.0993C189.289 25.0993 188.715 24.9689 188.715 24.2645C188.715 21.9164 188.872 21.0815 189.603 17.3768L189.603 17.4029C189.837 19.8031 190.463 22.0729 190.463 24.4471L190.463 24.6297ZM210.546 27.63C210.442 28.6736 210.233 30.7869 208.798 30.7869C206.894 30.7869 206.763 25.282 206.763 23.9514C206.763 22.5426 206.868 21.1598 206.868 19.751C206.868 18.5248 206.789 17.3246 206.789 16.1245C206.789 15.0027 206.894 10.6979 208.511 10.6979C210.05 10.6979 210.311 13.7504 210.442 14.8461C210.807 14.7418 211.224 14.5852 211.59 14.533C211.798 14.507 212.19 14.5591 212.19 14.1939C212.19 14.0373 212.112 13.8808 212.033 13.7504C212.033 13.2286 211.798 12.5502 211.642 12.0545C211.224 10.5935 210.259 8.27154 208.433 8.27154C207.102 8.27154 206.033 9.54993 205.615 10.6979C204.754 12.9938 204.963 15.8897 204.963 18.316C204.963 19.7771 204.911 21.2381 204.911 22.673C204.911 23.7427 204.937 24.7863 205.015 25.8298C205.224 28.204 205.38 33.1871 208.72 33.1871C211.042 33.1871 212.033 30.9434 212.32 28.9867C212.372 28.6736 212.451 28.3605 212.451 28.0475C212.451 27.5779 210.911 27.6822 210.546 27.63ZM229.64 20.3771C229.405 17.8203 229.249 15.2114 229.144 12.6546C229.144 12.2632 229.223 12.0284 228.857 11.7936C228.701 11.7154 228.231 11.7154 228.075 11.7154C228.023 11.7154 227.736 11.7154 227.657 11.7415C226.979 12.0024 226.822 13.4634 226.666 14.0895C226.17 16.3071 225.596 18.4987 225.1 20.7163C224.787 22.2034 224.448 23.7166 224.083 25.1776C223.979 25.5689 223.9 25.9342 223.796 26.2995C223.77 26.2995 223.718 26.5343 223.666 26.5343C223.613 26.5343 223.535 26.3255 223.509 26.2995C223.17 25.4907 223.066 24.6297 222.805 23.8209C221.657 20.5337 220.404 17.2725 219.361 13.9591C219.152 13.2807 218.943 11.8458 218.03 11.8458C217.039 11.8458 217.195 12.2111 217.195 12.9155C217.195 13.8025 217.013 14.6635 216.961 15.5244L216.543 21.0554C216.387 22.9339 216.387 24.7863 216.256 26.6647C216.178 27.5518 215.891 28.4127 215.891 29.2998C215.891 30.4216 216.465 30.4216 217.43 30.4216C218.056 30.4216 218.056 29.7955 218.108 29.2998C218.265 27.6822 218.395 26.0647 218.422 24.4471C218.448 22.8295 218.63 21.2381 218.761 19.6205C218.787 19.1509 218.735 16.9594 218.943 16.6463C218.917 16.6724 218.917 16.7246 218.917 16.7507C218.917 17.9769 220.639 21.9686 221.004 23.534C221.318 24.8906 221.735 26.2212 222.126 27.5779C222.309 28.1257 222.518 29.8216 223.013 30.1085C223.144 30.1607 223.379 30.1607 223.535 30.1607C223.796 30.1607 224.083 30.1607 224.344 30.1085C225.1 29.9781 224.84 29.952 225.048 29.2998C225.492 27.8909 225.727 26.456 226.066 25.0211C226.431 23.4557 226.77 21.8903 227.135 20.3249C227.24 19.8031 227.657 16.9333 227.866 16.7246C227.814 16.855 227.84 17.142 227.84 17.2464C227.84 20.1945 228.101 23.1165 228.101 26.0907C228.101 27.1865 227.97 28.2562 227.97 29.3519C227.97 30.4477 228.153 30.4477 229.197 30.4477C229.979 30.4477 230.423 30.526 230.423 29.6128C230.423 29.0128 230.292 28.4127 230.24 27.8387C229.979 25.3602 229.875 22.8556 229.64 20.3771ZM239.214 27.63C239.11 28.6736 238.901 30.7869 237.466 30.7869C235.562 30.7869 235.431 25.282 235.431 23.9514C235.431 22.5426 235.536 21.1598 235.536 19.751C235.536 18.5248 235.457 17.3246 235.457 16.1245C235.457 15.0027 235.562 10.6979 237.179 10.6979C238.718 10.6979 238.979 13.7504 239.11 14.8461C239.475 14.7418 239.892 14.5852 240.258 14.533C240.466 14.507 240.858 14.5591 240.858 14.1939C240.858 14.0373 240.78 13.8808 240.701 13.7504C240.701 13.2286 240.466 12.5502 240.31 12.0545C239.892 10.5935 238.927 8.27154 237.101 8.27154C235.77 8.27154 234.701 9.54993 234.283 10.6979C233.422 12.9938 233.631 15.8897 233.631 18.316C233.631 19.7771 233.579 21.2381 233.579 22.673C233.579 23.7427 233.605 24.7863 233.683 25.8298C233.892 28.204 234.048 33.1871 237.388 33.1871C239.71 33.1871 240.701 30.9434 240.988 28.9867C241.04 28.6736 241.119 28.3605 241.119 28.0475C241.119 27.5779 239.579 27.6822 239.214 27.63Z" fill="white"/>
<path d="M154.139 2C152.287 2 150.492 2.48236 148.615 2.48236C145.293 2.48236 141.995 2.32157 138.684 2.32157C133.947 2.32157 129.269 2.16079 124.536 2.16079C119.96 2.16079 115.287 2 110.671 2C107.462 2 104.319 2.61548 101.102 2.64314C96.5509 2.68228 91.9934 2.64314 87.4416 2.64314C72.3746 2.64314 56.8324 1.23467 41.9432 2.64314C39.2972 2.89344 36.6048 2.636 33.9798 2.88432C32.0589 3.06604 29.0857 2.58289 27.3856 3.19696C25.1641 3.99935 22.6848 4.67362 20.1776 5.1264C17.9108 5.53576 16.4194 5.91934 14.7637 6.9933C13.4527 7.84372 13.5031 8.78015 11.868 9.46762C10.3128 10.1215 9.31152 11.4121 7.96496 12.2188C5.23566 13.854 3.57864 16.3969 2.58259 18.5252C1.85065 20.0892 2.01602 21.6915 2.01602 23.2952C2.01602 24.7736 3.0115 26.0332 3.4167 27.4131C4.08412 29.686 6.63045 32.4339 9.82204 33.916C11.4442 34.6693 13.5823 34.8191 15.047 35.6043C16.0028 36.1166 17.1392 36.3677 18.289 36.6941C19.323 36.9875 20.5958 37.4816 21.6884 37.6588C23.4358 37.9421 25.2424 38.096 26.7246 38.7843C27.8409 39.3027 29.3871 39.397 30.6276 39.749C32.0057 40.1401 34.2281 40.2646 35.6952 40.4815C37.0502 40.6817 38.5808 40.5887 39.9759 40.5887C44.5027 40.5887 49.0032 40.7494 53.5106 40.7494C62.8549 40.7494 72.1241 41.071 81.4611 41.071C83.2483 41.071 85.2413 41.1887 87.0324 41.0531C88.8233 40.9176 90.6649 40.8166 92.4462 40.6512C93.8255 40.5231 95.0786 40.161 96.4909 40.1152C101.264 39.9604 106.094 39.6239 110.875 39.6239C120.105 39.6239 129.208 40.4279 138.448 40.4279C142.056 40.4279 145.634 40.7494 149.26 40.7494C152.385 40.7494 155.515 40.7255 158.64 40.7494C162.026 40.7754 200.567 41.7404 203.932 41.8749C206.918 41.9943 209.88 42 212.871 42C216.936 42 220.966 41.8892 225.021 41.8392C226.977 41.8151 228.996 41.5176 231.017 41.5176C234.311 41.5176 237.591 41.2583 240.869 41.4372C245.873 41.7103 253.107 42.1253 257.236 40.142C258.597 39.4884 260.192 39.1166 261.486 38.3823C262.765 37.6564 263.743 36.8999 264.602 35.9795C265.32 35.2092 267.481 34.0533 268.725 33.5677C270.362 32.9289 271.623 32.0298 272.833 31.1469C275.465 29.2261 275.718 26.9361 276.704 24.6351C277.198 23.4839 276.925 22.1716 276.925 20.9906C276.925 19.8305 277.022 18.621 276.578 17.4891C276.018 16.0583 276.032 14.3846 273.698 13.4783C272.412 12.9786 271.259 12.0938 270.142 11.4596C269.071 10.8521 267.198 10.1819 266.443 9.43189C265.092 8.08955 262.266 7.3094 260.038 6.46628C257.849 5.63812 255.385 4.65931 252.987 4.05449C250.641 3.46256 248.147 3.52835 245.669 3.25056C242.822 2.93139 239.485 2.40697 236.573 2.64314C230.683 3.12072 224.305 2.7682 218.348 2.7682C211.066 2.7682 168.573 2.23355 161.284 2.32157C159.166 2.34715 157.044 2.29485 154.926 2.32157C153.296 2.34213 150.183 2.23826 148.757 2.64314" stroke="#202426" stroke-width="2.4459" stroke-linecap="round"/>
</svg>
