<svg width="130" height="42" viewBox="0 0 130 42" fill="none" xmlns="http://www.w3.org/2000/svg">
<path d="M11.6526 9.97667C11.92 9.8556 12.3386 9.71634 12.9094 9.55798C13.4724 9.40127 14.0541 9.32169 14.6385 9.32144C15.6582 9.32144 16.5077 9.47277 17.1881 9.77615C17.8666 10.0794 18.2797 10.5227 18.426 11.1048C18.6928 12.0993 18.9412 13.0275 19.1727 13.8881C19.3928 14.7147 19.6171 15.5402 19.8455 16.3645C20.0652 17.1542 20.2762 17.9353 20.4832 18.7122C20.6971 19.5215 20.8974 20.3345 21.084 21.1506H21.2671C21.4742 19.7389 21.6682 18.3252 21.849 16.9099C22.0187 15.563 22.1756 14.2421 22.3219 12.9437C22.4662 11.6571 22.6119 10.3706 22.759 9.08435C22.904 7.81063 23.051 6.51854 23.196 5.20736C24.0939 4.69787 25.0533 4.44385 26.073 4.44385C26.9701 4.44385 27.7484 4.63878 28.4029 5.02576C29.0589 5.4149 29.3855 6.06941 29.3855 6.99218C29.3855 7.52616 29.332 8.28409 29.2221 9.26667C29.1138 10.2498 28.9681 11.3468 28.7858 12.5599C28.5925 13.8374 28.3802 15.1118 28.1489 16.3829C27.9048 17.7171 27.6508 18.9909 27.3833 20.204C27.1159 21.4181 26.8442 22.5153 26.5641 23.4984C26.2854 24.4821 26.0243 25.2402 25.7816 25.7742C25.417 26.1134 24.8232 26.3921 23.9975 26.6103C23.1713 26.8299 22.3221 26.9382 21.448 26.9382C20.3065 26.9382 19.3417 26.7863 18.5528 26.4829C17.7646 26.1802 17.2845 25.7497 17.1143 25.1922C16.799 24.2203 16.4597 23.0682 16.096 21.7341C15.6962 20.2686 15.3075 18.8001 14.9298 17.3287C14.5894 18.9071 14.238 20.4476 13.8741 21.9509C13.5104 23.457 13.1825 24.7307 12.8905 25.7742C12.5265 26.1134 11.9807 26.3921 11.2521 26.6103C10.5245 26.8299 9.72293 26.9382 8.84881 26.9382C7.75525 26.9382 6.76726 26.7863 5.88197 26.4829C4.99379 26.1802 4.41819 25.7497 4.15137 25.1922C3.93338 24.7545 3.69612 24.105 3.44209 23.2442C3.18663 22.3822 2.92486 21.4005 2.65877 20.2963C2.37082 19.104 2.09756 17.9083 1.83905 16.7093C1.56077 15.4281 1.30593 14.142 1.07464 12.8514C0.848792 11.598 0.636194 10.3423 0.436882 9.08435C0.242132 7.85982 0.0963844 6.73672 0 5.71756C0.339237 5.40229 0.812871 5.11169 1.4209 4.84506C2.02677 4.57752 2.68201 4.44385 3.38714 4.44385C4.30901 4.44385 5.06694 4.64436 5.66236 5.04413C6.25634 5.44462 6.6271 6.11877 6.77285 7.0646C7.09735 9.12683 7.41893 11.1895 7.73759 13.2527C7.99378 14.9029 8.19862 16.2548 8.3577 17.3104C8.51534 18.3666 8.63064 19.1858 8.70324 19.7677C8.77494 20.3498 8.84881 20.8115 8.92123 21.1506H9.10427C9.32244 20.181 9.528 19.2824 9.72293 18.4567C9.91642 17.6334 10.1169 16.8009 10.3239 15.964C10.5434 15.0678 10.7557 14.1698 10.9608 13.2701C11.1788 12.3117 11.4097 11.2138 11.6526 9.97667Z" fill="#F68B1E"/>
<path d="M38.5995 26.6101C38.3314 26.6595 37.938 26.7254 37.4166 26.8106C36.8929 26.8957 36.3631 26.9383 35.8325 26.938C35.2974 26.938 34.8182 26.9014 34.3932 26.8297C33.9689 26.7559 33.6113 26.6101 33.3187 26.392C33.028 26.174 32.8042 25.8767 32.6458 25.4996C32.4882 25.1245 32.4102 24.6333 32.4102 24.0259V9.21157C32.6761 9.16365 33.0703 9.09681 33.5931 9.0116C34.1167 8.92666 34.6463 8.8843 35.1767 8.88495C35.71 8.88495 36.1906 8.92098 36.6149 8.9934C37.0386 9.06654 37.3982 9.21139 37.6895 9.43046C37.9816 9.64845 38.2041 9.94625 38.3631 10.3213C38.5208 10.6986 38.5995 11.1904 38.5995 11.7958V26.6101ZM32.1182 4.04338C32.1182 3.12098 32.4277 2.3454 33.0471 1.71485C33.6655 1.08213 34.4847 0.767578 35.5044 0.767578C36.5241 0.767578 37.344 1.08213 37.9627 1.71485C38.5811 2.3454 38.8916 3.1208 38.8916 4.04338C38.8916 4.96597 38.5811 5.74155 37.9627 6.37283C37.344 7.00482 36.5243 7.3201 35.5044 7.3201C34.4847 7.3201 33.6655 7.00482 33.0471 6.37283C32.4277 5.74155 32.1182 4.96597 32.1182 4.04338Z" fill="#F68B1E"/>
<path d="M53.7482 15.436C53.7482 14.6844 53.5349 14.1319 53.1099 13.7793C52.6857 13.4282 52.1092 13.2523 51.3808 13.2523C50.8945 13.2523 50.416 13.3129 49.9424 13.4345C49.4688 13.5555 49.0614 13.7379 48.7227 13.98V26.6099C48.4793 26.6838 48.0972 26.7557 47.5751 26.8296C47.0379 26.9026 46.4964 26.9388 45.9543 26.9378C45.421 26.9378 44.9418 26.9013 44.5166 26.8296C44.0921 26.7557 43.734 26.6099 43.4434 26.3918C43.1506 26.1738 42.9262 25.8765 42.7678 25.5009C42.6102 25.1244 42.532 24.6331 42.532 24.0265V13.1066C42.532 12.4513 42.6707 11.9179 42.9507 11.5055C43.2287 11.0924 43.6122 10.7166 44.0979 10.3759C44.9227 9.79402 45.9613 9.32111 47.2105 8.95665C48.4617 8.59273 49.8509 8.41113 51.3808 8.41113C54.1228 8.41113 56.236 9.01142 57.7166 10.2127C59.1975 11.4135 59.9383 13.0819 59.9383 15.2178V26.6099C59.6956 26.6838 59.3128 26.7557 58.7912 26.8296C58.2541 26.9025 57.7126 26.9387 57.1705 26.9378C56.6363 26.9378 56.1564 26.9013 55.7329 26.8296C55.307 26.7557 54.9488 26.6099 54.6582 26.3918C54.3669 26.1738 54.1417 25.8765 53.9841 25.5009C53.8264 25.1244 53.7482 24.6331 53.7482 24.0265" fill="#F68B1E"/>
<path d="M81.7142 9.97667C81.9817 9.8556 82.4006 9.71634 82.9711 9.55798C83.5341 9.40118 84.1159 9.3216 84.7003 9.32144C85.72 9.32144 86.5694 9.47277 87.2492 9.77615C87.9284 10.0794 88.3415 10.5227 88.4877 11.1048C88.7538 12.0993 89.003 13.0275 89.2331 13.8881C89.4543 14.7145 89.679 15.54 89.9072 16.3645C90.124 17.1459 90.3366 17.9285 90.545 18.7122C90.759 19.5215 90.959 20.3344 91.1451 21.1506H91.3274C91.5359 19.739 91.7299 18.3254 91.9093 16.9099C92.0797 15.563 92.2372 14.2421 92.3837 12.9437C92.5294 11.6446 92.6737 10.3581 92.8207 9.08435C92.9658 7.81063 93.1113 6.51854 93.2571 5.20736C94.1557 4.69787 95.1134 4.44385 96.1345 4.44385C97.0317 4.44385 97.8102 4.63878 98.4647 5.02576C99.1205 5.4149 99.4471 6.06941 99.4471 6.99218C99.4471 7.52616 99.3936 8.28409 99.2839 9.26667C99.1754 10.2498 99.0291 11.3468 98.8461 12.5599C98.6542 13.8376 98.4418 15.1121 98.2092 16.3829C97.978 17.6612 97.7232 18.9351 97.445 20.204C97.1775 21.4181 96.9045 22.5153 96.6258 23.4984C96.3457 24.4821 96.0854 25.2402 95.8425 25.7742C95.4786 26.1134 94.8841 26.3921 94.0586 26.6103C93.2331 26.8299 92.3837 26.9382 91.5097 26.9382C90.3682 26.9382 89.4033 26.7863 88.6146 26.4829C87.8255 26.1802 87.3448 25.7497 87.176 25.1922C86.86 24.2203 86.5215 23.0682 86.1563 21.7341C85.7574 20.2685 85.3691 18.8 84.9916 17.3287C84.6583 18.8736 84.3063 20.4144 83.9359 21.9509C83.5707 23.457 83.2435 24.7307 82.9522 25.7742C82.5883 26.1134 82.0422 26.3921 81.3139 26.6103C80.586 26.8299 79.7847 26.9382 78.9106 26.9382C77.817 26.9382 76.8288 26.7863 75.9421 26.4829C75.0555 26.1802 74.4792 25.7497 74.2131 25.1922C73.9935 24.7545 73.7577 24.105 73.5037 23.2442C73.2475 22.3822 72.9866 21.4005 72.7191 20.2963C72.4323 19.1038 72.1593 17.9081 71.8999 16.7093C71.6217 15.4281 71.3669 14.142 71.1357 12.8514C70.9101 11.598 70.6978 10.3423 70.4988 9.08435C70.3039 7.85982 70.1567 6.73672 70.061 5.71756C70.401 5.40229 70.8744 5.11169 71.4812 4.84506C72.0878 4.57752 72.7436 4.44385 73.4475 4.44385C74.3699 4.44385 75.1287 4.64436 75.7239 5.04413C76.3179 5.44462 76.6889 6.11877 76.8346 7.0646C77.1591 9.12683 77.4807 11.1895 77.7993 13.2527C78.0548 14.9029 78.2604 16.2548 78.418 17.3104C78.5769 18.3666 78.6924 19.1858 78.7641 19.7677C78.8367 20.3498 78.9106 20.8115 78.9823 21.1506H79.1646C79.3673 20.2517 79.574 19.3537 79.7847 18.4567C79.9803 17.6247 80.1804 16.7938 80.385 15.964C80.6051 15.0679 80.8176 14.1699 81.0225 13.2701C81.2405 12.3117 81.4715 11.2138 81.7144 9.97667" fill="#F68B1E"/>
<path d="M108.66 26.6101C108.266 26.6805 107.872 26.7474 107.477 26.8106C106.953 26.8958 106.423 26.9383 105.893 26.938C105.358 26.938 104.879 26.9014 104.453 26.8297C104.031 26.7559 103.672 26.6101 103.379 26.392C103.089 26.174 102.864 25.8767 102.706 25.4996C102.548 25.1245 102.47 24.6333 102.47 24.0259V9.21157C102.738 9.16365 103.13 9.09681 103.653 9.0116C104.177 8.92661 104.707 8.88425 105.238 8.88495C105.771 8.88495 106.251 8.92098 106.675 8.9934C107.1 9.06654 107.458 9.21139 107.75 9.43046C108.042 9.64845 108.266 9.94625 108.423 10.3213C108.581 10.6986 108.66 11.1904 108.66 11.7958L108.66 26.6101ZM102.178 4.04338C102.178 3.12098 102.488 2.3454 103.107 1.71485C103.726 1.08213 104.546 0.767578 105.565 0.767578C106.586 0.767578 107.405 1.08213 108.023 1.71485C108.643 2.3454 108.952 3.1208 108.952 4.04338C108.952 4.96597 108.643 5.74155 108.023 6.37283C107.405 7.00482 106.586 7.3201 105.565 7.3201C104.546 7.3201 103.726 7.00482 103.107 6.37283C102.488 5.74155 102.178 4.96597 102.178 4.04338Z" fill="#F68B1E"/>
<path d="M123.809 15.436C123.809 14.6844 123.597 14.1319 123.172 13.7793C122.747 13.4282 122.17 13.2523 121.442 13.2523C120.956 13.2523 120.476 13.3129 120.004 13.4345C119.53 13.5555 119.123 13.7379 118.784 13.98V26.6099C118.54 26.6838 118.159 26.7557 117.636 26.8296C117.114 26.9013 116.575 26.9378 116.016 26.9378C115.483 26.9378 115.003 26.9013 114.578 26.8296C114.153 26.7557 113.795 26.6099 113.504 26.3918C113.212 26.1738 112.988 25.8765 112.83 25.5009C112.672 25.1244 112.594 24.6331 112.594 24.0265V13.1066C112.594 12.4513 112.732 11.9179 113.012 11.5055C113.29 11.0924 113.674 10.7166 114.159 10.3759C114.984 9.79402 116.022 9.32111 117.272 8.95665C118.522 8.59273 119.913 8.41113 121.442 8.41113C124.184 8.41113 126.298 9.01142 127.778 10.2127C129.259 11.4135 130 13.0819 130 15.2178V26.6099C129.757 26.6838 129.374 26.7557 128.853 26.8296C128.316 26.9025 127.774 26.9387 127.232 26.9378C126.697 26.9378 126.217 26.9013 125.794 26.8296C125.369 26.7557 125.011 26.6099 124.72 26.3918C124.428 26.1738 124.203 25.8765 124.046 25.5009C123.888 25.1244 123.809 24.6331 123.809 24.0265" fill="#F68B1E"/>
<path d="M6.04935 33.0122V34.0445H1.90644V36.4882H5.60526V37.5199H1.90662V39.9964H6.20501V41.04H0.829102V33.0124" fill="#040D26"/>
<path d="M10.459 39.9962C11.0516 39.9962 11.5814 39.8793 12.048 39.6463C12.5139 39.4128 12.8791 39.075 13.1416 38.6302C13.4048 38.1861 13.5358 37.6575 13.5358 37.0418C13.5358 36.4134 13.3992 35.8722 13.1248 35.4218C12.851 34.9707 12.4865 34.6273 12.0304 34.3944C11.5758 34.1607 11.0853 34.0447 10.559 34.0447H9.16064V39.9962H10.459ZM8.0824 33.0107H10.2816C11.2816 33.0107 12.1086 33.2093 12.7645 33.6062C13.419 34.0025 13.8975 34.5133 14.1973 35.1382C14.4956 35.7561 14.6497 36.4338 14.6477 37.12C14.6477 37.897 14.4654 38.5837 14.1029 39.1799C13.7399 39.7758 13.2544 40.234 12.6476 40.557C12.0396 40.8779 11.3816 41.0398 10.6702 41.0398H8.0824" fill="#040D26"/>
<path d="M17.6906 39.1574C17.8586 39.4404 18.0982 39.6741 18.3853 39.835C18.6766 40.0003 19.001 40.0848 19.357 40.0848C19.7265 40.0848 20.0615 40.0032 20.3614 39.8407C20.6612 39.6773 20.8969 39.4516 21.0673 39.163C21.2375 38.8736 21.3227 38.5522 21.3227 38.1968V33.0122H22.3776V38.2305C22.3776 38.8005 22.2446 39.3058 21.9778 39.7463C21.7119 40.1863 21.3487 40.5268 20.8891 40.7682C20.4302 41.0081 19.9195 41.1285 19.357 41.1285C18.8018 41.1285 18.2937 41.0081 17.8342 40.7682C17.3753 40.5268 17.0137 40.1863 16.7512 39.7463C16.4888 39.3058 16.3571 38.8005 16.3571 38.2305V33.0122H17.4351V38.1968C17.4351 38.5521 17.5203 38.8729 17.6906 39.1574Z" fill="#040D26"/>
<path d="M29.5037 40.9115C29.1069 41.0557 28.6761 41.1283 28.2095 41.1283C27.3883 41.1283 26.6634 40.9459 26.0379 40.5836C25.4115 40.2212 24.9308 39.7333 24.5937 39.119C24.2566 38.5041 24.0884 37.8263 24.0884 37.0873C24.0884 36.2943 24.2588 35.5828 24.5993 34.9494C24.9398 34.3161 25.4115 33.8198 26.0159 33.4609C26.6191 33.1028 27.3017 32.9233 28.0645 32.9233C28.5163 32.9233 28.9386 32.9832 29.3306 33.1006C29.7239 33.2195 30.0752 33.3745 30.3869 33.5672L29.9527 34.5772C29.3391 34.1634 28.7204 33.9556 28.0983 33.9556C27.5797 33.9556 27.1012 34.0922 26.66 34.366C26.2186 34.6404 25.8674 35.0121 25.6042 35.4821C25.3417 35.9523 25.2095 36.4688 25.2095 37.0311C25.2095 37.6082 25.3313 38.131 25.5713 38.5961C25.8119 39.0628 26.156 39.4281 26.6043 39.6906C27.0518 39.9524 27.5692 40.0846 28.1533 40.0846C28.8725 40.0846 29.4973 39.8805 30.0309 39.4744L30.4867 40.4401C30.2273 40.6103 29.8994 40.7679 29.5037 40.9115Z" fill="#040D26"/>
<path d="M36.14 37.9965L34.9963 35.0653L33.8064 37.9965H36.14ZM36.5066 38.9297H33.4178L32.5628 41.0393H31.4973L35.0068 32.6782H35.0738L38.5833 41.0393H37.3398" fill="#040D26"/>
<path d="M44.1936 33.0122V34.0445H42.038V41.0399H40.9599V34.0447H38.8613V33.0124" fill="#040D26"/>
<path d="M45.9142 41.0399H46.9923V33.0122H45.9142V41.0399Z" fill="#040D26"/>
<path d="M50.3133 38.5639C50.5739 39.0238 50.9514 39.4066 51.4076 39.6736C51.8706 39.948 52.376 40.0846 52.9235 40.0846C53.4717 40.0846 53.9734 39.9487 54.4287 39.6785C54.8849 39.409 55.243 39.0395 55.5069 38.5695C55.7694 38.098 55.9009 37.5863 55.9009 37.0309C55.9009 36.4758 55.7665 35.9613 55.5006 35.4877C55.2345 35.0148 54.8706 34.6404 54.4119 34.366C53.9538 34.0922 53.4499 33.9558 52.901 33.9558C52.3542 33.9558 51.8503 34.0945 51.39 34.3716C50.9318 34.6496 50.5708 35.0247 50.3076 35.4983C50.0451 35.9719 49.9143 36.4877 49.9143 37.0415C49.9143 37.5898 50.0473 38.0973 50.3133 38.5639ZM49.3591 34.9874C49.7205 34.367 50.2346 33.8493 50.8524 33.4834C51.4779 33.1098 52.1612 32.9219 52.9008 32.9219C53.6349 32.9219 54.3154 33.1098 54.9454 33.4834C55.5664 33.8492 56.0843 34.3667 56.4506 34.9874C56.8243 35.6172 57.0114 36.2984 57.0114 37.0311C57.0114 37.7715 56.8264 38.4561 56.4562 39.0845C56.0854 39.7144 55.5835 40.2112 54.951 40.5786C54.3175 40.9452 53.6349 41.1282 52.9008 41.1282C52.1612 41.1282 51.4766 40.9459 50.8468 40.5849C50.2175 40.221 49.7194 39.7279 49.3527 39.1015C48.9867 38.4758 48.8024 37.7854 48.8024 37.0311C48.8024 36.2984 48.9874 35.6172 49.3591 34.9874Z" fill="#040D26"/>
<path d="M65.8202 33.012V41.3055H65.7864L59.8876 35.321L59.9102 41.0396H58.8215V32.7686H58.8779L64.7654 38.8193L64.7427 33.012" fill="#040D26"/>
<path d="M71.9737 37.9965L70.8288 35.0653L69.6416 37.9965H71.9737ZM72.3403 38.9297H69.2524L68.3967 41.0393H67.3312L70.8407 32.6782H70.9076L74.417 41.0393H73.1729" fill="#040D26"/>
<path d="M76.9942 33.0122V39.9962H81.0816V41.0399H75.9161V33.0122" fill="#040D26"/>
<path d="M91.2513 40.9115C90.855 41.0557 90.4229 41.1283 89.9563 41.1283C89.1352 41.1283 88.4117 40.9459 87.7847 40.5836C87.1598 40.2212 86.6776 39.7333 86.3413 39.119C86.0042 38.5041 85.8369 37.8263 85.8369 37.0873C85.8369 36.2943 86.0057 35.5828 86.3462 34.9494C86.6868 34.3161 87.1597 33.8198 87.7629 33.4609C88.3659 33.1028 89.05 32.9233 89.8129 32.9233C90.2646 32.9233 90.6854 32.9832 91.0789 33.1006C91.4709 33.2195 91.8235 33.3745 92.1337 33.5672L91.701 34.5772C91.0859 34.1634 90.4673 33.9556 89.8454 33.9556C89.3272 33.9556 88.848 34.0922 88.4068 34.366C87.9669 34.6404 87.6143 35.0121 87.3518 35.4821C87.0893 35.9523 86.9578 36.4688 86.9578 37.0311C86.9578 37.6082 87.0781 38.131 87.3181 38.5961C87.5595 39.0628 87.9043 39.4281 88.3518 39.6906C88.8003 39.9524 89.3161 40.0846 89.9016 40.0846C90.6193 40.0846 91.2443 39.8805 91.7792 39.4744L92.2337 40.4401C91.9748 40.6103 91.6468 40.7679 91.2513 40.9115Z" fill="#040D26"/>
<path d="M99.2647 33.0122V34.0445H95.1218V36.4882H98.8208V37.5199H95.1218V39.9964H99.4204V41.04H94.0438V33.0124" fill="#040D26"/>
<path d="M108.295 33.012V41.3055H108.262L102.364 35.321L102.387 41.0396H101.298V32.7686H101.354L107.24 38.8193L107.218 33.012" fill="#040D26"/>
<path d="M115.35 33.0122V34.0445H113.195V41.0399H112.116V34.0447H110.017V33.0124" fill="#040D26"/>
<path d="M122.29 33.0122V34.0445H118.148V36.4882H121.847V37.5199H118.148V39.9964H122.447V41.04H117.07V33.0124" fill="#040D26"/>
<path d="M127.816 36.5872C128.073 36.2838 128.201 35.9349 128.201 35.5429C128.201 35.3065 128.147 35.0726 128.039 34.8433C127.932 34.6145 127.762 34.4232 127.528 34.2718C127.295 34.12 127.001 34.0447 126.645 34.0447H125.401V37.0418H126.568C127.144 37.0418 127.562 36.8912 127.816 36.5872ZM128.745 41.0398L126.856 38.0743C126.797 38.082 126.708 38.0854 126.59 38.0854H125.401V41.0398H124.324V33.0107H126.468C127.016 33.0107 127.504 33.108 127.933 33.3001C128.362 33.4928 128.7 33.7757 128.945 34.1495C129.189 34.5239 129.311 34.9743 129.311 35.4985C129.311 35.9954 129.202 36.4507 128.983 36.8645C128.765 37.2783 128.431 37.5936 127.979 37.8082L130 41.0398" fill="#040D26"/>
</svg>
