<svg width="588" height="142" viewBox="0 0 588 142" fill="none" xmlns="http://www.w3.org/2000/svg">
<path d="M1.33737 20.0276C1.24244 11.1494 8.36322 3.95215 17.2421 3.95215L433.271 3.95215L569.58 3.95215C578.458 3.95215 585.733 11.1494 585.828 20.0276L585.974 33.6809L586.901 120.354C586.996 129.233 579.875 136.43 570.996 136.43H18.6586C9.77976 136.43 2.50505 129.233 2.41012 120.354L1.33737 20.0276Z" fill="white"/>
<path d="M3.41877 117.396C3.41877 115.752 3.41877 114.107 3.41877 112.463C3.41877 111.261 2.88834 109.672 3.53249 108.522C4.78606 106.284 3.41877 103.897 3.41877 101.634C3.41877 100.612 3.45521 99.5874 3.41877 98.5655C3.38663 97.6645 2.39524 96.9094 2.39524 96.0087C2.39524 92.1726 1.88348 88.3688 1.88348 84.5179C1.88348 81.3987 2.9072 107.34 2.9072 104.27C2.9072 88.788 3.41897 73.356 3.41897 57.8552C3.41897 54.0234 2.9072 50.2411 2.9072 46.4246C2.9072 42.5072 4.95425 38.831 4.95425 34.9036C4.95425 31.9757 6.04964 28.3667 4.84052 25.4884C4.15171 23.8486 2.9072 21.9656 2.9072 20.2844C2.9072 18.9512 3.33101 17.3589 2.87877 16.0431C2.12609 13.8531 1.88368 11.4882 1.88368 9.25986C1.88368 7.49875 5.12863 5.39343 8.02481 4.58231C9.18437 4.25756 10.1696 3.36055 11.6071 2.95796C13.2632 2.49414 15.9507 2.08562 17.862 2.08562C24.6286 2.08562 31.3952 2.08562 38.1618 2.08562C48.9183 2.08562 59.6748 2.08562 70.4312 2.08562C79.1241 2.08562 87.7345 2.62707 96.3889 2.62707C109.164 2.62707 121.939 2.62707 134.714 2.62707C145.922 2.62707 157.229 2.08562 168.433 2.08562C192.846 2.08562 217.259 2.08562 241.672 2.08562C253.67 2.08562 265.712 2.24487 277.723 2.35634C291.073 2.48024 304.304 2.35634 317.669 2.35634C342.819 2.35634 367.926 2.08562 393.096 2.08562C404.725 2.08562 416.353 2.08562 427.982 2.08562C439.551 2.08562 451.375 1.74187 462.923 2.14578C482.434 2.82819 502.063 2.62707 521.662 2.62707C538.488 2.62707 555.128 2.08562 571.985 2.08562C576.227 2.08562 580.43 1.80755 582.846 3.9807C583.749 4.79259 584.779 5.16712 584.779 6.14651C584.779 7.17172 585.291 8.19417 585.291 9.1245C585.291 11.6684 585.803 14.2372 585.803 16.8252C585.803 17.6641 586.045 18.6431 585.689 19.4723C585.263 20.4631 583.828 21.4136 583.756 22.4502C583.632 24.2255 582.759 25.8851 582.249 27.6392C581.352 30.7245 582.703 34.0354 582.192 37.1447C581.507 41.3151 580.685 45.6906 580.685 49.8838C580.685 53.9745 579.285 57.8523 580.145 61.9462C581.012 66.0755 581.709 70.0955 581.709 74.2793C581.709 78.33 582.467 82.4232 582.732 86.492C583.012 90.7759 583.04 94.9205 582.334 99.2162C581.528 104.12 581.709 80.1932 581.709 85.1195C581.709 89.2155 581.709 93.3114 581.709 97.4074C581.709 106.137 580.173 114.808 580.173 123.563C580.173 125.097 580.173 126.631 580.173 128.165C580.173 129.657 580.905 131.701 579.662 133.098C578.684 134.197 578.068 135.348 576.591 136.227C574.853 137.261 573.344 137.276 570.99 137.821C569.528 138.159 567.81 137.884 566.27 138.122C564.053 138.464 561.823 138.353 559.646 138.663C556.466 139.116 553.395 139.325 550.122 139.325C545.123 139.325 539.624 140.465 534.627 139.731C532.265 139.384 529.269 139.521 526.893 139.731C522.591 140.11 517.597 139.991 513.275 139.731C509.559 139.508 505.512 139.325 501.789 139.325C493.559 139.325 485.564 138.716 477.366 138.528C462.308 138.181 447.202 138.7 432.161 138.783C414.166 138.884 396.291 140.679 378.312 140.679C361.722 140.679 345.116 140.949 328.501 140.949C297.343 140.949 266.178 140.949 234.991 140.949C225.784 140.949 216.82 139.866 207.64 139.866C201.148 139.866 194.656 139.866 188.164 139.866C169.459 139.866 151.028 139.054 132.326 139.054C115.868 139.054 99.4291 138.783 82.9692 138.783C77.868 138.783 73.0753 139.429 68.0712 139.836C66.3579 139.976 64.4871 139.866 62.7546 139.866C58.1229 139.866 53.5216 140.107 48.9086 140.137C41.7086 140.183 34.5016 140.137 27.3009 140.137C24.8075 140.137 22.2791 140.199 19.7951 140.077C17.1037 139.944 14.4627 139.409 11.8344 139.325C10.2785 139.275 8.64013 137.006 8.53638 136.347C8.33813 135.088 7.51285 134.014 7.51285 132.692C7.51285 129.358 7.51285 126.024 7.51285 122.69C7.51285 121.14 7.67104 119.983 6.23345 118.614C4.9242 117.368 3.93053 115.561 3.93053 114.147" stroke="#0D1C2E" stroke-width="2" stroke-linecap="round"/>
</svg>
