<svg width="73" height="24" viewBox="0 0 73 24" fill="none" xmlns="http://www.w3.org/2000/svg">
<path fill-rule="evenodd" clip-rule="evenodd" d="M0 4V8H4.06063H8.12125V12V16H4.06063H0V20V24H12.1363H24.2725V20V16H20.2119H16.1513V8V0H8.07563H0V4ZM32.485 4V8H28.4244H24.3638V12V16H28.4244H32.485V20V24H36.5H40.515V20V16H44.5756H48.6362V12V8H44.5756H40.515V4V0H36.5H32.485V4ZM48.7275 4V8H52.7881H56.8488V12V16H52.7881H48.7275V20V24H60.8638H73V20V16H68.9394H64.8788V8V0H56.8031H48.7275V4Z" fill="white"/>
</svg>
