<svg width="85" height="32" viewBox="0 0 85 32" fill="none" xmlns="http://www.w3.org/2000/svg">
<g clip-path="url(#clip0_63_2460)">
<path d="M33.2617 25.124C33.2989 24.3891 33.3267 23.6396 33.3453 22.8753C33.3639 22.111 33.3732 21.3223 33.3732 20.509V19.4508C33.3732 18.6376 33.3639 17.8489 33.3453 17.0846C33.3267 16.3203 33.2989 15.5708 33.2617 14.8359C33.8282 14.7869 34.2739 14.7526 34.5989 14.733C34.9332 14.7134 35.2211 14.7036 35.4625 14.7036C35.8525 14.7036 36.2518 14.733 36.6604 14.7918C37.0782 14.8506 37.4543 14.9633 37.7886 15.1298C38.1322 15.2964 38.4107 15.5267 38.6243 15.8206C38.8379 16.1047 38.9447 16.482 38.9447 16.9523C38.9447 17.6284 38.7915 18.1575 38.485 18.5396C38.1786 18.9217 37.7561 19.2108 37.2175 19.4067C37.5239 19.4655 37.8165 19.5635 38.095 19.7007C38.3829 19.8281 38.6336 19.9947 38.8472 20.2004C39.07 20.4062 39.2465 20.6511 39.3765 20.9353C39.5158 21.2194 39.5854 21.5427 39.5854 21.9053C39.5854 22.5813 39.4461 23.1349 39.1675 23.5661C38.8983 23.9874 38.5408 24.3205 38.095 24.5655C37.6493 24.8006 37.1432 24.9623 36.5768 25.0505C36.0196 25.1387 35.4578 25.1828 34.8914 25.1828L33.2617 25.124ZM34.1671 20.509C34.1671 21.2733 34.1764 21.9837 34.195 22.6401C34.2043 23.2868 34.2275 23.9531 34.2646 24.639C34.4503 24.6586 34.6314 24.6684 34.8078 24.6684H35.365C35.7829 24.6684 36.1914 24.639 36.5907 24.5802C36.99 24.5116 37.3429 24.3842 37.6493 24.1981C37.965 24.0119 38.2204 23.7473 38.4154 23.4044C38.6104 23.0517 38.7079 22.5862 38.7079 22.0082C38.7079 21.6457 38.629 21.3272 38.4711 21.0528C38.3132 20.7687 38.1043 20.5335 37.8443 20.3474C37.5843 20.1514 37.2825 20.0093 36.9389 19.9212C36.6046 19.8231 36.2564 19.7742 35.8943 19.7742C35.8293 19.7742 35.755 19.7791 35.6714 19.7889C35.5971 19.7889 35.4578 19.7987 35.2536 19.8182L35.4625 19.3627C35.5089 19.3627 35.5553 19.3578 35.6018 19.3479C35.6482 19.3479 35.69 19.3479 35.7271 19.3479C35.7736 19.3381 35.82 19.3283 35.8664 19.3186C36.1729 19.2695 36.4561 19.1961 36.7161 19.0981C36.9854 19.0001 37.2175 18.8629 37.4125 18.6866C37.6075 18.5102 37.7607 18.2946 37.8722 18.0399C37.9836 17.7754 38.0393 17.4569 38.0393 17.0846C38.0393 16.7024 37.9557 16.3889 37.7886 16.1439C37.6215 15.899 37.4032 15.7079 37.1339 15.5708C36.8739 15.4238 36.5721 15.3258 36.2286 15.2768C35.885 15.218 35.5414 15.1886 35.1978 15.1886C34.8635 15.1886 34.5525 15.2033 34.2646 15.2327C34.2275 15.9186 34.1996 16.6045 34.181 17.2903C34.1718 17.9664 34.1671 18.6866 34.1671 19.4508V20.509Z" fill="white"/>
<path d="M42.0694 20.5093C42.0694 21.3225 42.0787 22.1113 42.0973 22.8756C42.1159 23.6398 42.1437 24.3894 42.1809 25.1242L41.1641 25.183C41.2012 24.4482 41.2291 23.6888 41.2476 22.9049C41.2662 22.1211 41.2755 21.3225 41.2755 20.5093V19.451C41.2755 18.6378 41.2662 17.8491 41.2476 17.0848C41.2291 16.3206 41.2012 15.571 41.1641 14.8361L42.1809 14.7773C42.1437 15.5122 42.1159 16.2715 42.0973 17.0554C42.0787 17.8393 42.0694 18.6378 42.0694 19.451V20.5093Z" fill="white"/>
<path d="M51.8434 23.8893C51.8434 23.6247 51.8389 23.3308 51.8294 23.0074C51.8294 22.6939 51.8249 22.3754 51.8154 22.0521C51.8064 21.7287 51.7924 21.4152 51.7739 21.1114C51.7644 20.8077 51.7549 20.5432 51.7459 20.3178L52.6929 20.2444C52.6744 20.6754 52.6604 21.136 52.6514 21.6259C52.6419 22.106 52.6374 22.6253 52.6374 23.1838V24.0215C52.0524 24.482 51.4534 24.8201 50.8404 25.0356C50.2274 25.2512 49.5451 25.359 48.7929 25.359C48.1243 25.359 47.4882 25.2316 46.8847 24.9768C46.2904 24.7123 45.7704 24.3498 45.3246 23.8893C44.8789 23.419 44.5214 22.8703 44.2521 22.2432C43.9921 21.6063 43.8575 20.9106 43.8482 20.1561C43.8389 19.4507 43.9596 18.7648 44.2103 18.0985C44.461 17.4322 44.8139 16.8394 45.2689 16.3202C45.7239 15.8008 46.2671 15.3844 46.8986 15.0709C47.53 14.7573 48.2218 14.6006 48.974 14.6006C49.6704 14.6006 50.3299 14.7328 50.9519 14.9974C51.5834 15.2521 52.1499 15.6294 52.6514 16.1291L52.2194 17.4813L51.8989 17.349C51.9734 16.6533 51.7319 16.1193 51.1749 15.747C50.4874 15.2962 49.7168 15.0709 48.8625 15.0709C48.2497 15.0709 47.6879 15.1983 47.1772 15.453C46.6757 15.7078 46.2393 16.0556 45.8679 16.4965C45.5057 16.9374 45.2225 17.4518 45.0182 18.0397C44.8232 18.6276 44.7303 19.2596 44.7396 19.9357C44.7489 20.5529 44.8557 21.1605 45.06 21.7582C45.2643 22.3558 45.5429 22.8849 45.8957 23.3455C46.2579 23.806 46.6897 24.1783 47.1911 24.4625C47.6925 24.7466 48.245 24.8887 48.8486 24.8887C49.4243 24.8887 49.949 24.8054 50.4224 24.6388C50.8964 24.4625 51.3699 24.2126 51.8434 23.8893Z" fill="white"/>
<path d="M59.468 20.5093C59.468 21.3225 59.4775 22.1113 59.496 22.8756C59.5145 23.6398 59.5425 24.3894 59.5795 25.1242L58.5625 25.183C58.6 24.4482 58.6275 23.6888 58.6465 22.9049C58.665 22.1211 58.674 21.3225 58.674 20.5093V19.0102C58.674 18.6084 58.6695 18.2361 58.66 17.8932C58.66 17.5404 58.6555 17.1975 58.6465 16.8644C58.637 16.5312 58.623 16.2029 58.6045 15.8796C58.595 15.5465 58.5815 15.1987 58.5625 14.8361L59.5795 14.7773C59.561 15.1399 59.5425 15.4877 59.524 15.8209C59.5145 16.154 59.505 16.492 59.496 16.8349C59.4865 17.1681 59.4775 17.5159 59.468 17.8785C59.468 18.2312 59.468 18.6084 59.468 19.0102V19.598C59.793 19.2747 60.118 18.9416 60.443 18.5986C60.7775 18.2557 61.149 17.8637 61.5575 17.4229C61.929 17.0211 62.3095 16.5949 62.6995 16.1442C63.0895 15.6935 63.4565 15.2574 63.8 14.8361L64.8305 14.7773C64.6355 14.9733 64.4175 15.1938 64.176 15.4387C63.944 15.6739 63.7025 15.9188 63.4515 16.1736C63.2105 16.4185 62.9735 16.6635 62.7415 16.9084C62.509 17.1436 62.3005 17.3641 62.1145 17.5698C61.836 17.8735 61.548 18.1871 61.251 18.5105C60.963 18.8338 60.6845 19.162 60.415 19.4952C60.796 19.9557 61.2 20.4358 61.627 20.9355C62.0635 21.4254 62.4765 21.8761 62.8665 22.2876C63.0615 22.4934 63.28 22.7188 63.5215 22.9637C63.763 23.2087 64.009 23.4585 64.2595 23.7133C64.5105 23.9681 64.7565 24.2179 64.998 24.4629C65.2485 24.7078 65.476 24.9283 65.6805 25.1242L64.4265 25.183C64.046 24.7225 63.628 24.2424 63.173 23.7427C62.7275 23.243 62.305 22.7775 61.9055 22.3464C61.525 21.9447 61.121 21.5234 60.694 21.0825C60.2665 20.6317 59.858 20.2153 59.468 19.8332V20.5093Z" fill="white"/>
<path d="M69.861 21.3764C69.861 21.7096 69.861 22.0231 69.861 22.3171C69.87 22.611 69.8795 22.9049 69.8885 23.1989C69.898 23.4929 69.9075 23.7966 69.9165 24.1101C69.935 24.4236 69.9535 24.7617 69.9725 25.1242L68.9695 25.183C68.988 24.8205 69.002 24.4824 69.011 24.1689C69.03 23.8456 69.039 23.532 69.039 23.2283C69.0485 22.9245 69.053 22.6257 69.053 22.3317C69.0625 22.028 69.067 21.7096 69.067 21.3764V20.7298L68.0085 18.8485C67.6185 18.143 67.205 17.4473 66.7685 16.7614C66.3415 16.0756 65.933 15.4338 65.543 14.8361L66.741 14.7773C67.066 15.424 67.386 16.0413 67.702 16.6292C68.0175 17.2171 68.3705 17.8588 68.7605 18.5545L69.624 20.083L70.46 18.6133C70.85 17.9176 71.212 17.2661 71.546 16.6586C71.8805 16.0511 72.21 15.424 72.535 14.7773L73.399 14.8361C73.0085 15.4338 72.5955 16.0805 72.159 16.7762C71.732 17.462 71.3235 18.1528 70.9335 18.8485L69.861 20.7298V21.3764Z" fill="white"/>
<path d="M75.3977 20.5093C75.3977 21.3225 75.4067 22.1113 75.4252 22.8756C75.4442 23.6398 75.4717 24.3894 75.5092 25.1242L74.4922 25.183C74.5292 24.4482 74.5572 23.6888 74.5757 22.9049C74.5942 22.1211 74.6037 21.3225 74.6037 20.5093V19.451C74.6037 18.6378 74.5942 17.8491 74.5757 17.0848C74.5572 16.3206 74.5292 15.571 74.4922 14.8361L75.5092 14.7773C75.4717 15.5122 75.4442 16.2715 75.4252 17.0554C75.4067 17.8393 75.3977 18.6378 75.3977 19.451V20.5093Z" fill="white"/>
<path d="M82.7992 19.0248C83.0402 18.3487 83.2817 17.6727 83.5232 16.9966C83.7552 16.3108 83.9922 15.571 84.2337 14.7773L84.9997 14.8361C84.7117 15.5024 84.4242 16.2078 84.1362 16.9525C83.8482 17.6874 83.5697 18.4321 83.3002 19.1865L82.6598 20.9943C82.5203 21.3764 82.3902 21.7438 82.2697 22.0966C82.1487 22.4395 82.0327 22.7776 81.9212 23.1107C81.8102 23.4438 81.6987 23.777 81.5872 24.1101C81.4757 24.4334 81.3642 24.7715 81.2527 25.1242L80.4727 25.183C80.2407 24.4775 80.0087 23.7917 79.7762 23.1254C79.5442 22.4493 79.3027 21.7537 79.0522 21.0384L78.3978 19.1865C78.1373 18.4517 77.8497 17.707 77.5337 16.9525C77.2182 16.1883 76.9257 15.4828 76.6562 14.8361L77.7427 14.7773C77.9562 15.4828 78.1792 16.1785 78.4112 16.8644C78.6527 17.5502 78.9082 18.2704 79.1777 19.0248L79.8462 20.8914C79.9577 21.205 80.0597 21.4891 80.1527 21.7438C80.2452 21.9888 80.3338 22.224 80.4173 22.4493C80.5103 22.6747 80.6027 22.9 80.6957 23.1254C80.7887 23.3508 80.8908 23.5957 81.0023 23.8603C81.2063 23.3801 81.4012 22.9 81.5872 22.4199C81.7727 21.93 81.9632 21.4058 82.1582 20.8473L82.7992 19.0248Z" fill="white"/>
<path d="M33.2617 25.124C33.2989 24.3891 33.3267 23.6396 33.3453 22.8753C33.3639 22.111 33.3732 21.3223 33.3732 20.509V19.4508C33.3732 18.6376 33.3639 17.8489 33.3453 17.0846C33.3267 16.3203 33.2989 15.5708 33.2617 14.8359C33.8282 14.7869 34.2739 14.7526 34.5989 14.733C34.9332 14.7134 35.2211 14.7036 35.4625 14.7036C35.8525 14.7036 36.2518 14.733 36.6604 14.7918C37.0782 14.8506 37.4543 14.9633 37.7886 15.1298C38.1322 15.2964 38.4107 15.5267 38.6243 15.8206C38.8379 16.1047 38.9447 16.482 38.9447 16.9523C38.9447 17.6284 38.7915 18.1575 38.485 18.5396C38.1786 18.9217 37.7561 19.2108 37.2175 19.4067C37.5239 19.4655 37.8165 19.5635 38.095 19.7007C38.3829 19.8281 38.6336 19.9947 38.8472 20.2004C39.07 20.4062 39.2465 20.6511 39.3765 20.9353C39.5158 21.2194 39.5854 21.5427 39.5854 21.9053C39.5854 22.5813 39.4461 23.1349 39.1675 23.5661C38.8983 23.9874 38.5408 24.3205 38.095 24.5655C37.6493 24.8006 37.1432 24.9623 36.5768 25.0505C36.0196 25.1387 35.4578 25.1828 34.8914 25.1828L33.2617 25.124ZM34.1671 20.509C34.1671 21.2733 34.1764 21.9837 34.195 22.6401C34.2043 23.2868 34.2275 23.9531 34.2646 24.639C34.4503 24.6586 34.6314 24.6684 34.8078 24.6684H35.365C35.7829 24.6684 36.1914 24.639 36.5907 24.5802C36.99 24.5116 37.3429 24.3842 37.6493 24.1981C37.965 24.0119 38.2204 23.7473 38.4154 23.4044C38.6104 23.0517 38.7079 22.5862 38.7079 22.0082C38.7079 21.6457 38.629 21.3272 38.4711 21.0528C38.3132 20.7687 38.1043 20.5335 37.8443 20.3474C37.5843 20.1514 37.2825 20.0093 36.9389 19.9212C36.6046 19.8231 36.2564 19.7742 35.8943 19.7742C35.8293 19.7742 35.755 19.7791 35.6714 19.7889C35.5971 19.7889 35.4578 19.7987 35.2536 19.8182L35.4625 19.3627C35.5089 19.3627 35.5553 19.3578 35.6018 19.3479C35.6482 19.3479 35.69 19.3479 35.7271 19.3479C35.7736 19.3381 35.82 19.3283 35.8664 19.3186C36.1729 19.2695 36.4561 19.1961 36.7161 19.0981C36.9854 19.0001 37.2175 18.8629 37.4125 18.6866C37.6075 18.5102 37.7607 18.2946 37.8722 18.0399C37.9836 17.7754 38.0393 17.4569 38.0393 17.0846C38.0393 16.7024 37.9557 16.3889 37.7886 16.1439C37.6215 15.899 37.4032 15.7079 37.1339 15.5708C36.8739 15.4238 36.5721 15.3258 36.2286 15.2768C35.885 15.218 35.5414 15.1886 35.1978 15.1886C34.8635 15.1886 34.5525 15.2033 34.2646 15.2327C34.2275 15.9186 34.1996 16.6045 34.181 17.2903C34.1718 17.9664 34.1671 18.6866 34.1671 19.4508V20.509Z" fill="white"/>
<path d="M42.0694 20.5093C42.0694 21.3225 42.0787 22.1113 42.0973 22.8756C42.1159 23.6398 42.1437 24.3894 42.1809 25.1242L41.1641 25.183C41.2012 24.4482 41.2291 23.6888 41.2476 22.9049C41.2662 22.1211 41.2755 21.3225 41.2755 20.5093V19.451C41.2755 18.6378 41.2662 17.8491 41.2476 17.0848C41.2291 16.3206 41.2012 15.571 41.1641 14.8361L42.1809 14.7773C42.1437 15.5122 42.1159 16.2715 42.0973 17.0554C42.0787 17.8393 42.0694 18.6378 42.0694 19.451V20.5093Z" fill="white"/>
<path d="M51.8434 23.8893C51.8434 23.6247 51.8389 23.3308 51.8294 23.0074C51.8294 22.6939 51.8249 22.3754 51.8154 22.0521C51.8064 21.7287 51.7924 21.4152 51.7739 21.1114C51.7644 20.8077 51.7549 20.5432 51.7459 20.3178L52.6929 20.2444C52.6744 20.6754 52.6604 21.136 52.6514 21.6259C52.6419 22.106 52.6374 22.6253 52.6374 23.1838V24.0215C52.0524 24.482 51.4534 24.8201 50.8404 25.0356C50.2274 25.2512 49.5451 25.359 48.7929 25.359C48.1243 25.359 47.4882 25.2316 46.8847 24.9768C46.2904 24.7123 45.7704 24.3498 45.3246 23.8893C44.8789 23.419 44.5214 22.8703 44.2521 22.2432C43.9921 21.6063 43.8575 20.9106 43.8482 20.1561C43.8389 19.4507 43.9596 18.7648 44.2103 18.0985C44.461 17.4322 44.8139 16.8394 45.2689 16.3202C45.7239 15.8008 46.2671 15.3844 46.8986 15.0709C47.53 14.7573 48.2218 14.6006 48.974 14.6006C49.6704 14.6006 50.3299 14.7328 50.9519 14.9974C51.5834 15.2521 52.1499 15.6294 52.6514 16.1291L52.2194 17.4813L51.8989 17.349C51.9734 16.6533 51.7319 16.1193 51.1749 15.747C50.4874 15.2962 49.7168 15.0709 48.8625 15.0709C48.2497 15.0709 47.6879 15.1983 47.1772 15.453C46.6757 15.7078 46.2393 16.0556 45.8679 16.4965C45.5057 16.9374 45.2225 17.4518 45.0182 18.0397C44.8232 18.6276 44.7303 19.2596 44.7396 19.9357C44.7489 20.5529 44.8557 21.1605 45.06 21.7582C45.2643 22.3558 45.5429 22.8849 45.8957 23.3455C46.2579 23.806 46.6897 24.1783 47.1911 24.4625C47.6925 24.7466 48.245 24.8887 48.8486 24.8887C49.4243 24.8887 49.949 24.8054 50.4224 24.6388C50.8964 24.4625 51.3699 24.2126 51.8434 23.8893Z" fill="white"/>
<path d="M59.468 20.5093C59.468 21.3225 59.4775 22.1113 59.496 22.8756C59.5145 23.6398 59.5425 24.3894 59.5795 25.1242L58.5625 25.183C58.6 24.4482 58.6275 23.6888 58.6465 22.9049C58.665 22.1211 58.674 21.3225 58.674 20.5093V19.0102C58.674 18.6084 58.6695 18.2361 58.66 17.8932C58.66 17.5404 58.6555 17.1975 58.6465 16.8644C58.637 16.5312 58.623 16.2029 58.6045 15.8796C58.595 15.5465 58.5815 15.1987 58.5625 14.8361L59.5795 14.7773C59.561 15.1399 59.5425 15.4877 59.524 15.8209C59.5145 16.154 59.505 16.492 59.496 16.8349C59.4865 17.1681 59.4775 17.5159 59.468 17.8785C59.468 18.2312 59.468 18.6084 59.468 19.0102V19.598C59.793 19.2747 60.118 18.9416 60.443 18.5986C60.7775 18.2557 61.149 17.8637 61.5575 17.4229C61.929 17.0211 62.3095 16.5949 62.6995 16.1442C63.0895 15.6935 63.4565 15.2574 63.8 14.8361L64.8305 14.7773C64.6355 14.9733 64.4175 15.1938 64.176 15.4387C63.944 15.6739 63.7025 15.9188 63.4515 16.1736C63.2105 16.4185 62.9735 16.6635 62.7415 16.9084C62.509 17.1436 62.3005 17.3641 62.1145 17.5698C61.836 17.8735 61.548 18.1871 61.251 18.5105C60.963 18.8338 60.6845 19.162 60.415 19.4952C60.796 19.9557 61.2 20.4358 61.627 20.9355C62.0635 21.4254 62.4765 21.8761 62.8665 22.2876C63.0615 22.4934 63.28 22.7188 63.5215 22.9637C63.763 23.2087 64.009 23.4585 64.2595 23.7133C64.5105 23.9681 64.7565 24.2179 64.998 24.4629C65.2485 24.7078 65.476 24.9283 65.6805 25.1242L64.4265 25.183C64.046 24.7225 63.628 24.2424 63.173 23.7427C62.7275 23.243 62.305 22.7775 61.9055 22.3464C61.525 21.9447 61.121 21.5234 60.694 21.0825C60.2665 20.6317 59.858 20.2153 59.468 19.8332V20.5093Z" fill="white"/>
<path d="M69.861 21.3764C69.861 21.7096 69.861 22.0231 69.861 22.3171C69.87 22.611 69.8795 22.9049 69.8885 23.1989C69.898 23.4929 69.9075 23.7966 69.9165 24.1101C69.935 24.4236 69.9535 24.7617 69.9725 25.1242L68.9695 25.183C68.988 24.8205 69.002 24.4824 69.011 24.1689C69.03 23.8456 69.039 23.532 69.039 23.2283C69.0485 22.9245 69.053 22.6257 69.053 22.3317C69.0625 22.028 69.067 21.7096 69.067 21.3764V20.7298L68.0085 18.8485C67.6185 18.143 67.205 17.4473 66.7685 16.7614C66.3415 16.0756 65.933 15.4338 65.543 14.8361L66.741 14.7773C67.066 15.424 67.386 16.0413 67.702 16.6292C68.0175 17.2171 68.3705 17.8588 68.7605 18.5545L69.624 20.083L70.46 18.6133C70.85 17.9176 71.212 17.2661 71.546 16.6586C71.8805 16.0511 72.21 15.424 72.535 14.7773L73.399 14.8361C73.0085 15.4338 72.5955 16.0805 72.159 16.7762C71.732 17.462 71.3235 18.1528 70.9335 18.8485L69.861 20.7298V21.3764Z" fill="white"/>
<path d="M75.3977 20.5093C75.3977 21.3225 75.4067 22.1113 75.4252 22.8756C75.4442 23.6398 75.4717 24.3894 75.5092 25.1242L74.4922 25.183C74.5292 24.4482 74.5572 23.6888 74.5757 22.9049C74.5942 22.1211 74.6037 21.3225 74.6037 20.5093V19.451C74.6037 18.6378 74.5942 17.8491 74.5757 17.0848C74.5572 16.3206 74.5292 15.571 74.4922 14.8361L75.5092 14.7773C75.4717 15.5122 75.4442 16.2715 75.4252 17.0554C75.4067 17.8393 75.3977 18.6378 75.3977 19.451V20.5093Z" fill="white"/>
<path d="M82.7992 19.0248C83.0402 18.3487 83.2817 17.6727 83.5232 16.9966C83.7552 16.3108 83.9922 15.571 84.2337 14.7773L84.9997 14.8361C84.7117 15.5024 84.4242 16.2078 84.1362 16.9525C83.8482 17.6874 83.5697 18.4321 83.3002 19.1865L82.6598 20.9943C82.5203 21.3764 82.3902 21.7438 82.2697 22.0966C82.1487 22.4395 82.0327 22.7776 81.9212 23.1107C81.8102 23.4438 81.6987 23.777 81.5872 24.1101C81.4757 24.4334 81.3642 24.7715 81.2527 25.1242L80.4727 25.183C80.2407 24.4775 80.0087 23.7917 79.7762 23.1254C79.5442 22.4493 79.3027 21.7537 79.0522 21.0384L78.3978 19.1865C78.1373 18.4517 77.8497 17.707 77.5337 16.9525C77.2182 16.1883 76.9257 15.4828 76.6562 14.8361L77.7427 14.7773C77.9562 15.4828 78.1792 16.1785 78.4112 16.8644C78.6527 17.5502 78.9082 18.2704 79.1777 19.0248L79.8462 20.8914C79.9577 21.205 80.0597 21.4891 80.1527 21.7438C80.2452 21.9888 80.3338 22.224 80.4173 22.4493C80.5103 22.6747 80.6027 22.9 80.6957 23.1254C80.7887 23.3508 80.8908 23.5957 81.0023 23.8603C81.2063 23.3801 81.4012 22.9 81.5872 22.4199C81.7727 21.93 81.9632 21.4058 82.1582 20.8473L82.7992 19.0248Z" fill="white"/>
<path d="M14.3888 8.74452C14.3888 8.74452 13.3805 2.94887 11.6005 0.604903C11.466 0.430676 11.2977 0.287225 11.1063 0.183712C10.9149 0.0801982 10.7046 0.0188975 10.4889 0.00372484C10.2731 -0.0114478 10.0567 0.0198413 9.85338 0.0955938C9.65003 0.171346 9.46432 0.289896 9.30802 0.443672C9.15752 0.590163 9.03693 0.766044 8.95323 0.961037C8.86953 1.15604 8.82443 1.36624 8.82058 1.57937C8.81678 1.7925 8.85423 2.00427 8.93083 2.20233C9.00743 2.40038 9.12163 2.58075 9.26678 2.73288C10.6304 4.15994 12.7758 6.71623 13.225 9.08113L14.3888 9.32728V8.74452Z" fill="white"/>
<path d="M21.6972 26.7096C25.6331 22.6599 25.6331 16.0942 21.6972 12.0445C17.7613 7.99492 11.38 7.99492 7.44409 12.0445C3.50822 16.0942 3.50822 22.6599 7.44409 26.7096C11.38 30.7592 17.7613 30.7592 21.6972 26.7096Z" fill="white"/>
<path d="M21.9411 24.4398L20.3633 26.9327L18.7018 28.5253C18.0213 28.7268 17.3166 28.8289 16.6085 28.8287C14.9429 28.8259 13.3235 28.266 11.9942 27.2336C11.668 26.9826 11.3602 26.7074 11.0731 26.4102C10.7776 26.1583 10.4205 25.9947 10.0407 25.9376C9.661 25.8804 9.2733 25.9317 8.92 26.0859C9.18045 25.7991 9.3598 25.4446 9.43865 25.0605C9.5175 24.6765 9.49285 24.2775 9.36735 23.9069C8.77725 22.6207 8.47305 21.2153 8.4768 19.793C8.4768 19.6214 8.48215 19.4515 8.49055 19.2823C8.469 19.3057 8.4475 19.3297 8.42535 19.3524C8.55275 17.6761 6.50665 16.6159 6.50665 16.6159C6.50665 16.6159 7.9385 17.0466 9.02645 16.5211C9.3913 15.4733 9.9385 14.5026 10.6413 13.6565L10.6078 13.6627C11.5079 12.2184 10.0097 9.79501 10.0097 9.79501C10.0097 9.79501 11.7938 11.9014 13.3793 11.4996C13.548 11.4184 13.7197 11.3421 13.8944 11.2738C14.9838 10.8445 16.1545 10.6789 17.3161 10.7898C18.4777 10.9007 19.5989 11.285 20.593 11.9131C21.0625 12.2073 21.5022 12.5493 21.9052 12.9341C23.5709 14.523 24.6517 16.8485 24.7378 19.457C24.7414 19.3401 24.7432 19.2226 24.7432 19.1038C24.7436 18.3118 24.6583 17.5221 24.489 16.7494C25.614 15.3186 27.3598 14.3027 27.3598 14.3027C27.3598 14.3027 25.6517 14.947 23.9148 14.9181C23.2638 13.3537 22.259 11.972 20.9841 10.8879C20.441 9.81534 21.2677 8.08301 21.2677 8.08301C21.2677 8.08301 20.3185 9.48977 19.2264 9.68301C17.4069 8.69632 15.3431 8.2893 13.2979 8.51387C11.2528 8.73839 9.31905 9.58438 7.74295 10.9439C5.57305 10.9378 3.2028 9.08549 3.2028 9.08549C3.2028 9.08549 5.3099 11.3236 5.54495 13.5574C5.15435 14.2155 4.83469 14.9154 4.59157 15.6448C3.70818 15.7543 2.75124 15.4423 2.75124 15.4423C2.75124 15.4423 3.74108 15.9439 4.29552 16.715C4.18646 17.2056 4.11151 17.7037 4.07123 18.2054C2.75124 19.6835 0 20.0429 0 20.0429C0 20.0429 2.86307 20.1137 4.2991 21.5081C4.56853 22.7077 5.0393 23.8498 5.69025 24.8829C6.45645 27.3185 4.03414 30.5991 4.03414 30.5991C4.03414 30.5991 6.60055 28.0336 8.9439 28.164C10.3874 29.0848 12.03 29.6237 13.725 29.7327C14.3231 30.6151 14.2448 32.1086 14.2448 32.1086C14.2448 32.1086 14.6749 29.9868 15.8968 29.6422C16.9416 29.4853 17.9567 29.1638 18.9063 28.6889C21.2323 28.0619 24.2766 30.3166 24.2766 30.3166C24.2766 30.3166 21.0397 27.0619 21.9411 24.4398Z" fill="white"/>
<path d="M23.6918 21.8398L23.0381 23.0885L22.1367 24.3967C23.2372 23.4121 25.4651 24.4392 25.4651 24.4392C25.4651 24.4392 23.492 23.3266 23.6918 21.8398Z" fill="#222220"/>
<path d="M14.1789 23.3794C15.8612 23.3794 17.225 21.7996 17.225 19.8508C17.225 17.9021 15.8612 16.3223 14.1789 16.3223C12.4966 16.3223 11.1328 17.9021 11.1328 19.8508C11.1328 21.7996 12.4966 23.3794 14.1789 23.3794Z" fill="black"/>
<path d="M11.5239 19.9134C12.2727 19.9134 12.8798 19.2102 12.8798 18.3429C12.8798 17.4756 12.2727 16.7725 11.5239 16.7725C10.775 16.7725 10.168 17.4756 10.168 18.3429C10.168 19.2102 10.775 19.9134 11.5239 19.9134Z" fill="white"/>
<path d="M14.1435 21.6848C15.1246 21.6848 15.9199 20.8775 15.9199 19.8817C15.9199 18.8859 15.1246 18.0786 14.1435 18.0786C13.1625 18.0786 12.3672 18.8859 12.3672 19.8817C12.3672 20.8775 13.1625 21.6848 14.1435 21.6848Z" stroke="white" stroke-width="0.5" stroke-miterlimit="10"/>
<path d="M21.9338 12.7959C21.5311 12.411 21.0917 12.069 20.6222 11.7749C19.6281 11.1468 18.5069 10.7625 17.3453 10.6516C16.1838 10.5407 15.013 10.7063 13.9236 11.1355C12.7066 11.6196 11.6218 12.3997 10.762 13.4094C9.98163 14.3186 9.38453 15.3783 9.00543 16.5269C8.78973 17.1783 8.64293 17.8517 8.56763 18.5355C8.52708 18.9072 8.50713 19.2809 8.50783 19.6549C8.50783 19.6549 14.7352 15.7367 19.2269 15.7367C23.3866 15.7367 24.5989 19.0967 24.755 19.5933C24.761 19.5022 24.7646 19.4087 24.7682 19.3182C24.6803 16.7102 23.6001 14.3848 21.9338 12.7959Z" fill="white"/>
<path d="M8.5 19.5764C8.5 19.5764 14.7274 15.6577 19.2185 15.6577C23.7096 15.6577 24.7652 19.8817 24.7652 19.8817" stroke="black" stroke-width="0.5" stroke-miterlimit="10"/>
<path d="M8.29688 19.3765C8.64143 19.1254 8.98233 18.8934 9.33043 18.6626C9.67848 18.4319 10.029 18.2097 10.3836 17.9919C10.7383 17.774 11.0954 17.5611 11.4572 17.358C11.8191 17.155 12.1833 16.955 12.5523 16.7642C13.2904 16.3839 14.0416 16.0257 14.8137 15.7236C15.5847 15.4103 16.3785 15.1597 17.1876 14.9741C17.5936 14.8815 18.0049 14.8153 18.419 14.7759L18.7306 14.7525C18.8347 14.7451 18.9394 14.7476 19.0435 14.7451H19.2002C19.2522 14.7451 19.3048 14.7495 19.3569 14.7519C19.4609 14.7581 19.5656 14.7599 19.6697 14.7697C20.5055 14.8401 21.3137 15.1107 22.0297 15.5599C22.7315 16.0182 23.3278 16.6282 23.7774 17.3476C24.0039 17.7009 24.2006 18.0735 24.3653 18.4614C24.533 18.8467 24.6663 19.247 24.7636 19.6571C24.653 19.2519 24.5068 18.8579 24.327 18.4799C24.1511 18.1013 23.944 17.739 23.708 17.3968C23.2385 16.7144 22.644 16.1199 21.9436 15.7082C21.2414 15.3018 20.4565 15.07 19.6517 15.0313C19.5518 15.0251 19.4514 15.027 19.3527 15.0245C19.3024 15.0245 19.2528 15.0245 19.2025 15.0245L19.0524 15.0319C18.9519 15.0387 18.8521 15.0393 18.7534 15.0504L18.4543 15.083C18.0547 15.136 17.6586 15.2143 17.2683 15.3175C16.4837 15.5241 15.716 15.7936 14.9722 16.1236C14.2252 16.4504 13.4997 16.8257 12.7898 17.2245C12.4339 17.4257 12.081 17.6319 11.7329 17.8473C11.3849 18.0626 11.0386 18.2817 10.6976 18.5082C10.3567 18.7346 10.0182 18.966 9.68448 19.2035C9.35073 19.4411 9.01818 19.6854 8.70243 19.9328L8.29688 19.3765Z" fill="black"/>
<path d="M19.2348 23.7072C14.7431 23.7072 8.51575 19.7891 8.51575 19.7891C8.506 21.7381 9.081 23.6428 10.1623 25.2432C10.6788 26.0036 11.3102 26.6742 12.0325 27.2296C13.2121 28.15 14.6265 28.6974 16.1032 28.805C17.5799 28.9126 19.0551 28.5759 20.349 27.8357C21.613 26.9305 22.6646 25.7462 23.427 24.3695C24.1894 22.9926 24.6434 21.458 24.7558 19.8777C24.565 20.4586 23.3239 23.7072 19.2348 23.7072Z" fill="white"/>
<path d="M24.773 19.8818C24.773 19.8818 23.718 23.7999 19.2263 23.7999C14.7346 23.7999 8.50781 19.8818 8.50781 19.8818" stroke="black" stroke-width="0.5" stroke-miterlimit="10"/>
<path d="M8.70123 19.5078C9.01703 19.754 9.35133 20.0001 9.68328 20.237C10.0152 20.474 10.3549 20.7066 10.6965 20.9324C11.038 21.1582 11.3825 21.3798 11.7318 21.5933C12.081 21.8069 12.4327 22.0173 12.7916 22.2155C13.5045 22.6149 14.2312 22.9896 14.977 23.3151C15.7192 23.6474 16.4855 23.9194 17.2689 24.1287C17.6592 24.2318 18.0553 24.3101 18.4549 24.3631L18.754 24.3958C18.8545 24.4068 18.9543 24.4074 19.053 24.4136L19.2031 24.4216C19.2534 24.4216 19.303 24.4216 19.3533 24.4216C19.4537 24.4216 19.5542 24.4216 19.6523 24.4148C20.4571 24.376 21.242 24.1442 21.9442 23.7379C22.6446 23.3269 23.2391 22.7318 23.7086 22.0499C23.9445 21.7077 24.1516 21.3453 24.3276 20.9669C24.5074 20.5888 24.6535 20.1948 24.7642 19.7896C24.6671 20.1995 24.5342 20.5995 24.3671 20.9847C24.2025 21.3724 24.0058 21.7449 23.7792 22.0979C23.3298 22.8176 22.7334 23.4279 22.0315 23.8862C21.3152 24.3361 20.5062 24.607 19.6697 24.677C19.5656 24.6868 19.4609 24.6893 19.3569 24.6954C19.3048 24.6954 19.2522 24.7016 19.2002 24.7022H19.0435C18.9394 24.7022 18.8347 24.7022 18.7306 24.6948L18.419 24.6714C18.005 24.6314 17.5937 24.5653 17.1876 24.4733C16.3785 24.2877 15.5847 24.0371 14.8137 23.7238C14.0416 23.416 13.2904 23.0635 12.5523 22.6831C12.1833 22.4918 11.8179 22.2949 11.4572 22.0887C11.0966 21.8825 10.7395 21.6727 10.3836 21.4555C10.0278 21.2382 9.67788 21.0149 9.33043 20.7847C8.98293 20.5546 8.64143 20.322 8.29688 20.0709L8.70123 19.5078Z" fill="black"/>
<path d="M27.3569 14.301C27.3569 14.301 25.6487 14.9453 23.9118 14.9164C23.6026 14.1744 23.2123 13.471 22.7485 12.8198L23.1804 12.1017L22.3209 12.2573C21.9148 11.7594 21.4656 11.3005 20.9788 10.8863C20.4357 9.81366 21.2623 8.08137 21.2623 8.08137C21.2623 8.08137 20.3131 9.48813 19.221 9.68137C18.5842 9.33536 17.9141 9.05856 17.2215 8.85552V6.4248L15.5182 8.51151C14.1287 8.35317 12.7225 8.48659 11.3846 8.90367C10.0467 9.32075 8.80495 10.0128 7.73455 10.9379C5.56465 10.9318 3.19442 9.07951 3.19442 9.07951C3.19442 9.07951 5.3099 11.3238 5.54495 13.5576C5.15435 14.2157 4.83469 14.9156 4.59157 15.645C3.70819 15.7545 2.75124 15.4425 2.75124 15.4425C2.75124 15.4425 3.74108 15.9441 4.29551 16.7151C4.18646 17.2059 4.11151 17.7039 4.07123 18.2056C2.75124 19.6837 0 20.0431 0 20.0431C0 20.0431 2.86308 20.1139 4.2991 21.5083C4.56853 22.7079 5.0393 23.8499 5.69025 24.883C6.45645 27.3187 4.03415 30.5993 4.03415 30.5993C4.03415 30.5993 6.60055 28.0338 8.9439 28.1643C10.3874 29.085 12.03 29.6239 13.7251 29.7328C14.3232 30.6153 14.2448 32.1088 14.2448 32.1088C14.2448 32.1088 14.6749 29.987 15.8968 29.6424C16.9416 29.4856 17.9567 29.164 18.9064 28.6892L18.7018 28.5254C18.0213 28.727 17.3166 28.8291 16.6085 28.8288C14.943 28.826 13.3235 28.2663 11.9942 27.2338C11.6681 26.9828 11.3602 26.7076 11.0731 26.4104C10.7776 26.1585 10.4205 25.995 10.0407 25.9378C9.661 25.8806 9.2733 25.9319 8.92 26.0861C9.18045 25.7993 9.3598 25.4447 9.43865 25.0607C9.5175 24.6766 9.49285 24.2777 9.36735 23.9071C8.83315 22.7437 8.5329 21.4814 8.48455 20.1957C8.4798 20.0622 8.6867 19.9237 8.6867 19.7889C8.6867 19.6173 8.48215 19.4511 8.49055 19.2819C8.469 19.3053 8.4475 19.3293 8.42535 19.352C8.55275 17.6764 6.50665 16.616 6.50665 16.616C6.50665 16.616 7.9385 17.0468 9.02645 16.5213C9.3913 15.4735 9.9385 14.5028 10.6413 13.6567L10.6078 13.6628C11.508 12.2186 10.0097 9.79523 10.0097 9.79523C10.0097 9.79523 11.7938 11.9017 13.3794 11.4998C13.5481 11.4186 13.7197 11.3423 13.8944 11.2739C14.9838 10.8447 16.1546 10.6792 17.3161 10.79C18.4777 10.9009 19.5989 11.2852 20.593 11.9133C21.0626 12.2075 21.5022 12.5495 21.9052 12.9342C23.5709 14.5232 24.6517 16.8486 24.7378 19.4573C24.7414 19.3403 24.7432 19.2228 24.7432 19.104C24.7436 18.3119 24.6583 17.5222 24.489 16.7496C25.6128 15.317 27.3569 14.301 27.3569 14.301Z" fill="white"/>
</g>
<defs>
<clipPath id="clip0_63_2460">
<rect width="85" height="32" fill="white"/>
</clipPath>
</defs>
</svg>
