<svg width="142" height="26" viewBox="0 0 142 26" fill="none" xmlns="http://www.w3.org/2000/svg">
<path d="M32.1835 0.847656C28.4759 0.847656 25.4783 2.58978 23.8217 5.36135C22.5596 2.51059 19.9564 0.847656 16.5643 0.847656C13.1723 0.847656 10.4113 2.27303 8.75477 4.56947L8.43924 1.24359H3.39062V24.9999H9.07031V11.3796C9.07031 7.97454 11.4368 5.59891 14.75 5.59891C17.5898 5.59891 19.0886 7.65779 19.0886 11.3004V24.9999H24.7683V11.3796C24.7683 7.97454 27.1349 5.59891 30.448 5.59891C33.2879 5.59891 34.7867 7.65779 34.7867 11.3004V24.9999H40.4664V9.95422C40.4664 4.49028 37.1532 0.847656 32.1835 0.847656Z" fill="white"/>
<path d="M75.7277 0.847656C72.0202 0.847656 69.0226 2.58978 67.366 5.36135C66.1038 2.51059 63.5006 0.847656 60.1086 0.847656C56.7166 0.847656 53.9556 2.27303 52.299 4.56947L51.9835 1.24359H46.9349V24.9999H52.6146V11.3796C52.6146 7.97454 54.9811 5.59891 58.2943 5.59891C61.1341 5.59891 62.6329 7.65779 62.6329 11.3004V24.9999H68.3126V11.3796C68.3126 7.97454 70.6791 5.59891 73.9923 5.59891C76.8321 5.59891 78.3309 7.65779 78.3309 11.3004V24.9999H84.0106V9.95422C84.0106 4.49028 80.6975 0.847656 75.7277 0.847656Z" fill="white"/>
<path d="M103.89 0.926844C100.419 0.926844 97.5788 2.43141 95.8433 4.96541L95.5278 1.24359H90.4791V24.9999H96.1588V11.9339C96.1588 8.2121 98.6831 6.23241 102.312 6.23241C103.416 6.23241 104.599 6.3116 105.783 6.46997L105.941 1.08522C105.231 1.00603 104.521 0.926844 103.89 0.926844Z" fill="white"/>
<path d="M116.367 3.3138C115.606 3.3138 114.99 3.67148 114.65 4.24052C114.391 3.65522 113.856 3.3138 113.16 3.3138C112.464 3.3138 111.897 3.60645 111.557 4.07794L111.492 3.39509H110.455V8.27258H111.621V5.47616C111.621 4.77705 112.107 4.2893 112.787 4.2893C113.371 4.2893 113.678 4.71201 113.678 5.4599V8.27258H114.844V5.47616C114.844 4.77705 115.33 4.2893 116.01 4.2893C116.594 4.2893 116.901 4.71201 116.901 5.4599V8.27258H118.067V5.18351C118.067 4.06168 117.387 3.3138 116.367 3.3138Z" fill="white"/>
<path d="M121.815 8.35388C123.305 8.35388 124.325 7.34586 124.325 5.83384C124.325 4.30556 123.337 3.3138 121.815 3.3138C120.324 3.3138 119.304 4.32181 119.304 5.83384C119.304 7.36212 120.292 8.35388 121.815 8.35388ZM121.815 7.37838C121.005 7.37838 120.503 6.79308 120.503 5.83384C120.503 4.8746 121.005 4.2893 121.815 4.2893C122.624 4.2893 123.126 4.8746 123.126 5.83384C123.126 6.79308 122.624 7.37838 121.815 7.37838Z" fill="white"/>
<path d="M128.509 4.37059V3.39509H127.084V2.09443H126.048L125.918 3.39509H124.946V4.37059H125.918V6.9394C125.918 7.88239 126.485 8.37013 127.473 8.37013C127.813 8.37013 128.169 8.33762 128.509 8.24007V7.19954C128.234 7.26457 128.007 7.28083 127.732 7.28083C127.311 7.28083 127.084 7.1345 127.084 6.67927V4.37059H128.509Z" fill="white"/>
<path d="M131.787 8.35388C133.277 8.35388 134.297 7.34586 134.297 5.83384C134.297 4.30556 133.309 3.3138 131.787 3.3138C130.297 3.3138 129.276 4.32181 129.276 5.83384C129.276 7.36212 130.264 8.35388 131.787 8.35388ZM131.787 7.37838C130.977 7.37838 130.475 6.79308 130.475 5.83384C130.475 4.8746 130.977 4.2893 131.787 4.2893C132.597 4.2893 133.099 4.8746 133.099 5.83384C133.099 6.79308 132.597 7.37838 131.787 7.37838Z" fill="white"/>
<path d="M138.352 3.33006C137.639 3.33006 137.056 3.63897 136.7 4.15923L136.635 3.39509H135.599V8.27258H136.765V5.58996C136.765 4.82582 137.283 4.41936 138.028 4.41936C138.255 4.41936 138.498 4.43562 138.741 4.46814L138.773 3.36257C138.627 3.34632 138.482 3.33006 138.352 3.33006Z" fill="white"/>
<path d="M116.367 11.6774C115.606 11.6774 114.99 12.0351 114.65 12.6042C114.391 12.0189 113.856 11.6774 113.16 11.6774C112.464 11.6774 111.897 11.9701 111.557 12.4416L111.492 11.7587H110.455V16.6362H111.621V13.8398C111.621 13.1407 112.107 12.6529 112.787 12.6529C113.371 12.6529 113.678 13.0757 113.678 13.8235V16.6362H114.844V13.8398C114.844 13.1407 115.33 12.6529 116.01 12.6529C116.594 12.6529 116.901 13.0757 116.901 13.8235V16.6362H118.067V13.5471C118.067 12.4253 117.387 11.6774 116.367 11.6774Z" fill="white"/>
<path d="M120.47 14.5714H124.098C124.131 14.3926 124.131 14.3113 124.131 14.1975C124.131 12.6692 123.191 11.6774 121.75 11.6774C120.276 11.6774 119.304 12.7017 119.304 14.1975C119.304 15.6445 120.163 16.7175 121.831 16.7175C122.802 16.7175 123.483 16.3598 123.936 15.8558L123.207 15.1567C122.916 15.4981 122.462 15.742 121.831 15.742C121.07 15.742 120.584 15.303 120.47 14.5714ZM121.75 12.6204C122.381 12.6204 122.819 13.0106 122.948 13.7097H120.486C120.616 13.0269 121.07 12.6204 121.75 12.6204Z" fill="white"/>
<path d="M128.72 10.1329V12.3765C128.347 11.9213 127.813 11.6774 127.165 11.6774C125.934 11.6774 125.076 12.6855 125.076 14.1975C125.076 15.7258 125.902 16.7175 127.165 16.7175C127.845 16.7175 128.412 16.4249 128.785 15.9046L128.849 16.6362H129.886V10.1329H128.72ZM127.521 15.742C126.744 15.742 126.258 15.1405 126.258 14.1975C126.258 13.2545 126.744 12.6529 127.521 12.6529C128.299 12.6529 128.768 13.2545 128.768 14.1975C128.768 15.1405 128.299 15.742 127.521 15.742Z" fill="white"/>
<path d="M131.56 11.1084H132.823V10.0679H131.56V11.1084ZM131.609 16.6362H132.775V11.7587H131.609V16.6362Z" fill="white"/>
<path d="M138.627 15.6282C138.433 15.6282 138.336 15.5307 138.336 15.3356V13.3033C138.336 12.2953 137.607 11.6774 136.376 11.6774C135.518 11.6774 134.805 11.9701 134.238 12.5066L134.935 13.2382C135.307 12.848 135.793 12.6367 136.311 12.6367C136.894 12.6367 137.251 12.8643 137.251 13.2057C137.251 13.5309 136.846 13.6122 136.214 13.6935C135.291 13.8073 134.125 14.0511 134.125 15.2868C134.125 16.1485 134.773 16.7175 135.712 16.7175C136.425 16.7175 137.056 16.4086 137.413 15.9209C137.494 16.4411 137.801 16.6687 138.401 16.6687C138.611 16.6687 138.741 16.6525 138.822 16.6362V15.6282H138.627ZM135.955 15.7908C135.518 15.7908 135.259 15.5632 135.259 15.1892C135.259 14.6527 135.793 14.5714 136.344 14.4739C136.749 14.4088 137.024 14.3601 137.218 14.2462V14.7503C137.218 15.3193 136.651 15.7908 135.955 15.7908Z" fill="white"/>
<path d="M113.209 20.0573C112.496 20.0573 111.913 20.3662 111.557 20.8865L111.492 20.1224H110.455V24.9999H111.621V22.3172C111.621 21.5531 112.14 21.1466 112.885 21.1466C113.111 21.1466 113.354 21.1629 113.597 21.1954L113.63 20.0898C113.484 20.0736 113.338 20.0573 113.209 20.0573Z" fill="white"/>
<path d="M115.32 22.9351H118.948C118.98 22.7562 118.98 22.6749 118.98 22.5611C118.98 21.0328 118.041 20.0411 116.599 20.0411C115.126 20.0411 114.154 21.0653 114.154 22.5611C114.154 24.0081 115.012 25.0812 116.68 25.0812C117.652 25.0812 118.332 24.7235 118.786 24.2195L118.057 23.5204C117.766 23.8618 117.312 24.1057 116.68 24.1057C115.919 24.1057 115.433 23.6667 115.32 22.9351ZM116.599 20.9841C117.231 20.9841 117.668 21.3743 117.798 22.0734H115.336C115.466 21.3905 115.919 20.9841 116.599 20.9841Z" fill="white"/>
<path d="M123.489 20.1224L122.177 23.8455L120.832 20.1224H119.569L121.432 24.9999H122.857L124.736 20.1224H123.489Z" fill="white"/>
<path d="M125.827 19.472H127.09V18.4315H125.827V19.472ZM125.875 24.9999H127.041V20.1224H125.875V24.9999Z" fill="white"/>
<path d="M129.606 22.9351H133.234C133.266 22.7562 133.266 22.6749 133.266 22.5611C133.266 21.0328 132.327 20.0411 130.886 20.0411C129.412 20.0411 128.44 21.0653 128.44 22.5611C128.44 24.0081 129.298 25.0812 130.967 25.0812C131.938 25.0812 132.619 24.7235 133.072 24.2195L132.343 23.5204C132.052 23.8618 131.598 24.1057 130.967 24.1057C130.205 24.1057 129.72 23.6667 129.606 22.9351ZM130.886 20.9841C131.517 20.9841 131.955 21.3743 132.084 22.0734H129.622C129.752 21.3905 130.205 20.9841 130.886 20.9841Z" fill="white"/>
<path d="M140.156 20.1224L139.184 23.7642L138.18 20.1224H137.095L136.09 23.748L135.135 20.1224H133.936L135.394 24.9999H136.69L137.613 21.6832L138.585 24.9999H139.88L141.322 20.1224H140.156Z" fill="white"/>
</svg>
