<svg width="196" height="32" viewBox="0 0 196 32" fill="none" xmlns="http://www.w3.org/2000/svg">
<g clip-path="url(#clip0_35_368)">
<path d="M40.1516 1.73657H43.6653L43.4102 2.49679H41.0731V4.03267H41.5291C42.1707 4.03267 42.68 4.11225 43.0758 4.31539C43.6122 4.58858 43.9017 5.0756 43.9017 5.77167C43.9017 6.8146 43.2778 7.55581 41.6095 7.55581H40.1504V1.73657H40.1516ZM41.6366 6.78846C42.5418 6.78846 42.9636 6.47013 42.9636 5.79899C42.9636 5.40106 42.8147 5.11955 42.5418 4.96869C42.3042 4.83565 41.971 4.80121 41.5492 4.80121H41.0743V6.78846H41.6366Z" fill="white"/>
<path d="M44.7793 7.57528V6.71765C44.8667 6.73547 44.9281 6.73547 44.9636 6.73547C45.2093 6.73547 45.4385 6.61193 45.6134 6.32922C46.1404 5.48942 46.4924 3.33468 46.6319 1.73584H49.549V7.55627H48.6179V2.49606H47.4057C47.2734 4.007 46.8871 6.04653 46.3069 6.93858C45.9903 7.41491 45.5862 7.60023 45.0592 7.60023C45.0073 7.60141 44.8679 7.60141 44.7793 7.57528Z" fill="white"/>
<path d="M52.9295 1.70972H53.6408L55.934 7.55627H54.9416L54.3709 6.06434H52.2276L51.6736 7.55627H50.707L52.9295 1.70972ZM54.0898 5.3053L53.6147 3.98087C53.4564 3.50455 53.3689 3.23965 53.3076 3.04484H53.2899C53.2368 3.24797 53.1493 3.51285 52.9733 3.98087L52.4982 5.3053H54.0898Z" fill="white"/>
<path d="M57.1016 1.73657H60.255L59.9916 2.52173H58.0244V7.55581H57.1016V1.73657Z" fill="white"/>
<path d="M61.0781 4.66841C61.0781 2.90207 62.2809 1.68335 63.9682 1.68335C65.6635 1.68335 66.8497 2.91989 66.8497 4.66841C66.8497 6.47036 65.62 7.64513 63.9682 7.64513C62.2905 7.64633 61.0781 6.46086 61.0781 4.66841ZM65.8739 4.66841C65.8739 3.35226 65.1532 2.4697 63.967 2.4697C62.8257 2.4697 62.06 3.3095 62.06 4.66841C62.06 6.02847 62.8245 6.85879 63.967 6.85879C65.1107 6.85879 65.8739 6.02847 65.8739 4.66841Z" fill="white"/>
<path d="M67.8398 6.76234H68.192C68.9905 5.76455 69.5529 3.98041 69.8957 1.73657H72.6284V6.76234H73.3573V9.19028H72.4618V7.557H68.7366V9.19148H67.841V6.76234H67.8398ZM71.7057 2.49679H70.6257C70.3528 4.38546 69.7998 5.86195 69.2281 6.74452V6.76234H71.7057V2.49679Z" fill="white"/>
<path d="M74.6719 1.73657H75.5946V7.557H74.6719V1.73657Z" fill="white"/>
<path d="M77.3762 1.73704H78.2989V5.04043C78.2989 5.40272 78.2895 5.72938 78.2811 6.03821H78.2989C78.4832 5.75669 78.7125 5.43834 79.0102 5.04874L81.4878 1.73704H82.3928V7.55747H81.4701V4.0854C81.4701 3.70529 81.4701 3.40596 81.4878 3.14938H81.4701C81.2774 3.42377 81.0576 3.74211 80.767 4.11272L78.1925 7.55747H77.375V1.73704H77.3762ZM78.4041 0.050293H79.1779C79.1779 0.447032 79.3717 0.77369 79.9069 0.77369C80.4339 0.77369 80.6276 0.447032 80.6276 0.050293H81.4098C81.4275 0.871093 80.8829 1.46264 79.9069 1.46264C78.9145 1.46264 78.3781 0.871093 78.4041 0.050293Z" fill="white"/>
<path d="M84.1836 1.73657H85.1065V4.19185H88.0058V1.73657H88.9286V7.557H88.0058V4.97819H85.1065V7.557H84.1836V1.73657Z" fill="white"/>
<path d="M90.7082 1.73657H91.6309V5.03997C91.6309 5.40226 91.6215 5.72891 91.6133 6.03774H91.6309C91.8153 5.75623 92.0445 5.43789 92.3422 5.04827L94.8198 1.73657H95.7248V7.557H94.8021V4.08493C94.8021 3.70483 94.8021 3.40549 94.8198 3.14892H94.8021C94.6094 3.42331 94.3898 3.74164 94.0992 4.11225L91.5247 7.557H90.707V1.73657H90.7082Z" fill="white"/>
<path d="M97.5148 1.73704H98.4376V5.04043C98.4376 5.40272 98.4282 5.72938 98.4198 6.03821H98.4376C98.6218 5.75669 98.851 5.43834 99.1488 5.04874L101.626 1.73704H102.531V7.55747H101.609V4.0854C101.609 3.70529 101.609 3.40596 101.626 3.14938H101.609C101.416 3.42377 101.196 3.74211 100.906 4.11272L98.3312 7.55747H97.5137V1.73704H97.5148ZM98.5428 0.050293H99.3165C99.3165 0.447032 99.5104 0.77369 100.046 0.77369C100.572 0.77369 100.766 0.447032 100.766 0.050293H101.548C101.566 0.871093 101.022 1.46264 100.046 1.46264C99.0519 1.46264 98.5168 0.871093 98.5428 0.050293Z" fill="white"/>
<path d="M108.739 6.9203C107.21 6.80509 106.305 6.05556 106.305 4.64082C106.305 3.2463 107.236 2.45044 108.739 2.33642V1.60352H109.661V2.33642C111.164 2.45996 112.077 3.26412 112.077 4.64082C112.077 6.06386 111.164 6.80509 109.661 6.9203V7.71496H108.739V6.9203ZM108.739 3.13108C107.79 3.21066 107.245 3.6965 107.245 4.64202C107.245 5.56973 107.746 6.04724 108.739 6.11732V3.13108ZM111.137 4.64202C111.137 3.74164 110.645 3.22018 109.661 3.14058V6.11732C110.61 6.04605 111.137 5.61367 111.137 4.64202Z" fill="white"/>
<path d="M113.348 4.66841C113.348 2.90207 114.55 1.68335 116.238 1.68335C117.933 1.68335 119.119 2.91989 119.119 4.66841C119.119 6.47036 117.889 7.64513 116.238 7.64513C114.56 7.64633 113.348 6.46086 113.348 4.66841ZM118.145 4.66841C118.145 3.35226 117.424 2.4697 116.238 2.4697C115.096 2.4697 114.331 3.3095 114.331 4.66841C114.331 6.02847 115.095 6.85879 116.238 6.85879C117.38 6.85879 118.145 6.02847 118.145 4.66841Z" fill="white"/>
<path d="M120.652 1.73657H121.575V4.19185H124.475V1.73657H125.397V7.557H124.475V4.97819H121.575V7.557H120.652V1.73657Z" fill="white"/>
<path d="M126.635 6.76234H126.987C127.785 5.76455 128.348 3.98041 128.69 1.73657H131.423V6.76234H132.152V9.19028H131.257V7.557H127.532V9.19148H126.636V6.76234H126.635ZM130.499 2.49679H129.419C129.147 4.38546 128.594 5.86195 128.022 6.74452V6.76234H130.499V2.49679Z" fill="white"/>
<path d="M50.0308 29.839C48.698 30.5493 47.3867 30.813 46.1343 30.813C42.0558 30.813 39.6738 27.9906 39.6738 24.0731C39.6738 20.1961 42.3783 17.1101 46.4179 17.1101C47.851 17.1101 49.0621 17.4343 49.7685 17.8215V19.5059C48.8198 18.9976 47.7896 18.653 46.4579 18.653C43.4298 18.653 41.5725 21.0692 41.5725 23.9925C41.5725 27.1177 43.4097 29.2699 46.3375 29.2699C47.5899 29.2699 48.5989 28.9053 49.5276 28.3968L50.0308 29.839Z" fill="white"/>
<path d="M53.1055 17.2334H59.8294L59.2835 18.7765H54.9025V23.0182H59.2433V24.5601H54.9025V29.0667H59.9097V30.6097H53.1055V17.2334Z" fill="white"/>
<path d="M63.5879 17.2334H66.3136C67.6062 17.2334 68.5135 17.4353 69.2414 17.8427C70.4938 18.5329 71.2404 19.7909 71.2404 21.5169C71.2404 23.0598 70.5742 24.541 68.8988 25.293C68.2123 25.597 67.3439 25.7799 66.153 25.7799H65.3862V30.6109H63.5891V17.2334H63.5879ZM66.2734 24.2975C67.0804 24.2975 67.6665 24.155 68.0905 23.9317C68.959 23.485 69.363 22.6535 69.363 21.5169C69.363 20.462 68.959 19.6091 68.1709 19.1423C67.7267 18.8785 67.1419 18.7147 66.2935 18.7147H65.3851V24.2975H66.2734Z" fill="white"/>
<path d="M74.6367 17.2334H81.5616L81.0158 18.7765H76.4126V30.6097H74.6367V17.2334Z" fill="white"/>
<path d="M84.1484 17.2334H85.9456V30.6097H84.1484V17.2334Z" fill="white"/>
<path d="M91.1585 26.3465C91.683 25.3523 92.0269 24.8036 92.5715 24.4994V24.4592C91.0167 23.9519 90.2286 22.7142 90.2286 21.1509C90.2286 18.5531 92.106 17.2334 94.6108 17.2334H98.2451V30.6097H96.448V25.0685H94.4288C94.0248 25.0685 93.5403 25.495 92.9555 26.6923L91.058 30.6097H88.9785L91.1585 26.3465ZM94.7927 23.5861H96.448V18.7147H94.853C93.2379 18.7147 92.087 19.5473 92.087 21.2317C92.087 22.8757 93.258 23.5861 94.7927 23.5861Z" fill="white"/>
<path d="M107.658 17.2334H117.673V30.6097H115.876V18.7765H109.435V30.6097H107.658V17.2334Z" fill="white"/>
<path d="M121.879 17.2334H124.605C125.897 17.2334 126.805 17.4353 127.532 17.8427C128.785 18.5329 129.531 19.7909 129.531 21.5169C129.531 23.0598 128.865 24.541 127.19 25.293C126.503 25.597 125.635 25.7799 124.444 25.7799H123.677V30.6109H121.88V17.2334H121.879ZM124.564 24.2975C125.373 24.2975 125.958 24.155 126.382 23.9317C127.25 23.485 127.654 22.6535 127.654 21.5169C127.654 20.462 127.25 19.6091 126.462 19.1423C126.018 18.8785 125.433 18.7147 124.585 18.7147H123.676V24.2975H124.564Z" fill="white"/>
<path d="M132.928 17.2334H134.705V25.3119C134.705 26.2456 134.705 26.9156 134.665 27.6258H134.705C135.149 26.9761 135.714 26.1434 136.502 25.129L142.417 17.2334H144.153V30.6097H142.356V22.2259C142.356 21.2519 142.376 20.6224 142.397 19.9928H142.356C141.912 20.6426 141.347 21.4348 140.619 22.4088L134.461 30.6097H132.928V17.2334Z" fill="white"/>
<path d="M150.861 18.7765H147.025V17.2334H156.878L156.332 18.7765H152.658V30.6097H150.861V18.7765Z" fill="white"/>
<path d="M160.416 30.6704V29.1071C160.659 29.1689 160.881 29.1891 161.123 29.1891C162.335 29.1891 162.86 28.3766 163.627 26.7931L158.922 17.2334H160.921L164.535 24.8854H164.577L167.867 17.2334H169.826L165.183 27.4631C164.113 29.8591 162.921 30.751 161.286 30.751C161.063 30.751 160.68 30.7308 160.416 30.6704Z" fill="white"/>
<path d="M169.91 30.6704V28.986C170.093 29.0264 170.233 29.0264 170.314 29.0264C170.9 29.0264 171.465 28.7425 171.89 28.0321C173.122 25.9214 173.969 20.4811 174.232 17.2334H180.573V30.6097H178.775V18.7147H175.767C175.525 21.7604 174.616 26.9358 173.264 29.1273C172.577 30.2641 171.649 30.7308 170.476 30.7308C170.374 30.7308 170.091 30.7108 169.91 30.6704Z" fill="white"/>
<path d="M184.777 17.2334H186.555V25.3119C186.555 26.2456 186.555 26.9156 186.515 27.6258H186.555C186.999 26.9761 187.563 26.1434 188.351 25.129L194.267 17.2334H196.003V30.6097H194.205V22.2259C194.205 21.2519 194.226 20.6224 194.246 19.9928H194.205C193.762 20.6426 193.197 21.4348 192.47 22.4088L186.312 30.6097H184.779V17.2334H184.777Z" fill="white"/>
<path d="M13.625 0V25.8154H18.3771V4.77632H25.6786V13.697H30.4306V0H13.625Z" fill="white"/>
<path d="M25.6758 25.8153V30.5915H30.4279V25.8153V18.4731H25.6758V25.8153Z" fill="white"/>
<path d="M25.6768 13.6973H18.375V18.4735H25.6768H30.4287V13.6973H25.6768Z" fill="white"/>
<path d="M4.7508 25.8157V18.4735H13.6238V13.6973H0V30.5919H25.6775V25.8157H4.7508Z" fill="white"/>
</g>
<defs>
<clipPath id="clip0_35_368">
<rect width="196" height="32" fill="white"/>
</clipPath>
</defs>
</svg>
