<svg width="101" height="32" viewBox="0 0 101 32" fill="none" xmlns="http://www.w3.org/2000/svg">
<path d="M25.2032 21.9131H29.3551V17.8994H31.3551V27.7915H29.3551V23.6372H25.2032V27.7915H23.2031V17.8994H25.2032V21.9131Z" fill="white"/>
<path d="M37.1651 17.7446C39.8638 17.7446 41.7818 19.8633 41.7818 22.8449C41.7818 25.8264 39.8638 27.9483 37.1651 27.9483C34.4664 27.9483 32.5469 25.828 32.5469 22.8449C32.5469 19.8617 34.4648 17.7446 37.1651 17.7446ZM37.1651 25.983C38.6709 25.983 39.6717 24.7255 39.6717 22.8449C39.6717 20.9642 38.6709 19.7084 37.1651 19.7084C35.6593 19.7084 34.6569 20.9658 34.6569 22.8449C34.6569 24.7239 35.6701 25.983 37.1651 25.983Z" fill="white"/>
<path d="M43 17.8994H46.9304C48.712 17.8994 49.973 19.0291 49.973 20.5838C49.9788 20.9839 49.8924 21.3797 49.7208 21.7386C49.5493 22.0975 49.2975 22.4093 48.9862 22.6481C49.4234 22.8564 49.7937 23.1892 50.0536 23.6073C50.3136 24.0254 50.4522 24.5115 50.4533 25.0081C50.4533 26.6331 49.0962 27.7915 47.2185 27.7915H43V17.8994ZM44.9985 19.6283V21.9611H46.5741C47.3487 21.9611 47.863 21.4817 47.863 20.7867C47.863 20.0916 47.3285 19.6283 46.5477 19.6283H44.9985ZM44.9985 23.5717V26.0675H46.9056C47.7685 26.0675 48.3433 25.5594 48.3433 24.81C48.3433 24.0606 47.7546 23.5669 46.8916 23.5669L44.9985 23.5717Z" fill="white"/>
<path d="M51.4688 17.8994H53.4703V24.2172L58.0189 17.8994H59.675V27.7915H57.6765V21.4753L53.1264 27.7915H51.4688V17.8994Z" fill="white"/>
<path d="M63.0547 21.9131H67.2066V17.8994H69.2082V27.7915H67.2066V23.6372H63.0547V27.7915H61.0547V17.8994H63.0547V21.9131Z" fill="white"/>
<path d="M70.582 17.8994H72.5836V24.2172L77.1306 17.8994H78.7883V27.7915H76.7882V21.4753L72.2397 27.7915H70.582V17.8994Z" fill="white"/>
<path d="M27.8198 13.8363C25.1133 13.8363 23.2031 11.7592 23.2031 8.73448C23.2031 5.68903 25.1397 3.60547 27.8337 3.60547C30.0027 3.60547 31.5984 4.92367 32.1065 7.09192L30.156 7.26128C30.0053 6.75996 29.6992 6.32352 29.2847 6.01899C28.8702 5.71446 28.3703 5.55869 27.8616 5.57558C26.3635 5.57558 25.3194 6.82189 25.3194 8.7217C25.3194 10.6215 26.3635 11.8678 27.8616 11.8678C28.3705 11.8846 28.8706 11.7286 29.2851 11.4238C29.6996 11.1189 30.0056 10.6821 30.156 10.1805L32.1065 10.3499C31.5984 12.5181 30.0042 13.8363 27.8198 13.8363Z" fill="white"/>
<path d="M35.133 13.8074C34.5836 13.8114 34.0431 13.6647 33.5667 13.3823L33.8766 11.556C34.2433 11.7997 34.665 11.9412 35.1005 11.9667C35.5807 11.9667 35.9928 11.6823 36.2949 11.1582L32.4219 3.76025H34.6342L37.2322 9.01868L39.4863 3.76025H41.6304L38.044 11.6966C37.4383 13.058 36.4096 13.8074 35.1315 13.8074" fill="white"/>
<path d="M46.187 13.8363C43.4805 13.8363 41.5703 11.7592 41.5703 8.73448C41.5703 5.68903 43.5084 3.60547 46.2025 3.60547C48.3714 3.60547 49.9671 4.92367 50.4752 7.09192L48.5232 7.26128C48.3725 6.75996 48.0664 6.32352 47.6519 6.01899C47.2374 5.71446 46.7375 5.55869 46.2288 5.57558C44.7307 5.57558 43.6881 6.82189 43.6881 8.7217C43.6881 10.6215 44.7307 11.8678 46.2288 11.8678C46.7377 11.8846 47.2378 11.7286 47.6523 11.4238C48.0668 11.1189 48.3728 10.6821 48.5232 10.1805L50.4752 10.3499C49.9671 12.5181 48.3729 13.8363 46.187 13.8363Z" fill="white"/>
<path d="M53.9555 13.681H51.9492V3.76172H60.0687V13.681H58.0624V5.48897H53.9555V13.681Z" fill="white"/>
<path d="M74.1589 3.76172V13.6794H72.1573V5.48897H69.0341V6.50998C69.0341 11.8387 68.4144 13.8088 66.7536 13.8088C66.277 13.7909 65.8052 13.7049 65.3516 13.5532L65.4956 11.7668C65.6869 11.8285 65.8856 11.8618 66.0859 11.8659C66.8961 11.8659 67.144 10.4774 67.144 5.90121V3.76172H74.1589Z" fill="white"/>
<path d="M63.8422 3.76172H61.8359V13.681H63.8422V3.76172Z" fill="white"/>
<path d="M75.8945 3.76172H77.9008V7.40315H79.8528C81.7614 7.40315 83.1232 8.70698 83.1232 10.5349C83.1232 12.3628 81.7645 13.6794 79.8791 13.6794H75.8945V3.76172ZM77.9008 9.132V11.9586H79.5631C80.4291 11.9586 81.0054 11.3785 81.0054 10.5429C81.0054 9.70722 80.4152 9.13999 79.5352 9.13999L77.9008 9.132Z" fill="white"/>
<path d="M86.3891 7.78504H90.5518V3.76172H92.558V13.681H90.5518V9.51548H86.3891V13.681H84.3828V3.76172H86.3891V7.78504Z" fill="white"/>
<path d="M100.855 5.48897H96.2508V7.77066H100.387V9.5011H96.2508V11.9506H100.923V13.681H94.2461V3.76172H100.855V5.48897Z" fill="white"/>
<path d="M15.4571 15.9533V31.9316C6.95803 31.9316 -0.0351562 24.7174 -0.0351562 15.9533C-0.0351562 7.18927 6.95803 -0.0249023 15.4571 -0.0249023V15.9533Z" fill="white"/>
</svg>
