<svg width="196" height="20" viewBox="0 0 196 20" fill="none" xmlns="http://www.w3.org/2000/svg">
<g clip-path="url(#clip0_63_2436)">
<path d="M185.061 8.22748L179.915 0.473633H174.195V19.6421H179.851V8.14979L183.346 12.7121H186.779L190.343 8.15902V19.6421H195.998V0.473633H190.278L185.061 8.22748Z" fill="white"/>
<path d="M138.527 -0.123047C132.847 -0.123047 128.227 4.41849 128.227 10C128.227 15.5823 132.848 20.1231 138.527 20.1231C144.208 20.1231 148.828 15.5816 148.828 10C148.828 4.41772 144.207 -0.123047 138.527 -0.123047ZM139.814 14.5508C139.39 14.6785 138.957 14.7431 138.527 14.7431C138.099 14.7431 137.668 14.6785 137.249 14.5531C135.165 13.99 133.709 12.1146 133.709 9.99157C133.709 7.3808 135.87 5.25695 138.527 5.25695H138.529C141.185 5.25772 143.345 7.38234 143.345 9.99157C143.345 12.1123 141.891 13.9877 139.814 14.5508Z" fill="white"/>
<path d="M73.7734 0.310708L73.7813 19.5815L79.5414 19.573V13.2615V8.18994L79.5336 0.302246L73.7734 0.310708Z" fill="white"/>
<path d="M99.2689 8.18994V11.9146L91.3852 0.310708L86.0367 0.302246L86.0375 0.303015L85.625 0.302246L85.6172 19.573L85.625 19.5815H91.3766L91.3852 13.2615V8.18994V8.09455L99.2689 19.5815L104.475 19.5807L105.029 19.5815L105.037 0.310708L99.2767 0.302246L99.2689 8.18994Z" fill="white"/>
<path d="M65.5464 13.4754C67.4524 12.1131 68.5897 9.90851 68.5897 7.57928C68.5897 3.55698 65.2599 0.284668 61.167 0.284668H57.2611L51.418 0.29236L51.4258 19.5808H56.9425V15.3662L60.378 15.0008L63.1864 19.6101H69.1478L65.4493 13.5447L65.5464 13.4754ZM62.4366 9.58467C62.0264 9.88082 61.5803 9.95851 61.1599 10.0131L56.9418 10.6008V5.06082L60.8327 5.04236C62.0045 5.04236 63.3727 5.70236 63.3727 7.56236C63.3735 8.65851 62.8647 9.26698 62.4366 9.58467Z" fill="white"/>
<path d="M166.512 13.5747C168.412 12.2163 169.546 10.0193 169.546 7.69781C169.546 3.68858 166.227 0.42627 162.147 0.42627H158.254L152.43 0.433962L152.438 19.6593H157.936V15.4586L161.36 15.094L164.159 19.6886H170.101L166.415 13.6432L166.512 13.5747ZM163.413 9.69704C163.004 9.99165 162.56 10.0693 162.14 10.124L157.935 10.7101V5.18704L161.814 5.16858C162.982 5.16858 164.346 5.82627 164.346 7.68012C164.347 8.77319 163.84 9.37935 163.413 9.69704Z" fill="white"/>
<path d="M124.807 0.302246H115.694H112.51H111.137V13.8122L111.133 19.5815H116.935V14.4622H122.13H123.868H124.006V14.3269V12.3069V11.8592V9.83071V9.69532H123.867H122.814H116.935V5.23763H124.807H125.533H125.671V5.10148V0.4384V0.302246H125.533H124.807Z" fill="white"/>
<path d="M16.7001 11.2646C16.7001 12.94 15.3131 14.3023 13.609 14.3023C11.905 14.3023 10.518 12.9393 10.518 11.2646L10.5211 9.87619L4.74609 9.87234L4.74688 11.2646C4.74688 16.067 8.7224 19.9739 13.6083 19.9739C18.4949 19.9739 22.4704 16.067 22.4704 11.2646L22.4735 0.264648H16.6985L16.7001 11.2646Z" fill="white"/>
<path d="M47.1852 19.5801L46.3555 14.5363C46.3516 14.5309 46.3453 14.5278 46.3406 14.5278L45.8272 14.5247C44.6969 14.5247 44.2687 14.4747 43.4406 13.437L43.4351 13.457L41.555 10.9293L40.8748 10.0047L46.1841 0.315497L46.1802 0.297805L46.1833 0.29319L40.2126 0.288574L36.3075 8.01704H33.607V0.29319L27.861 0.29242C27.8586 0.293959 27.8477 0.305497 27.8477 0.330113V19.4724C27.8477 19.5724 27.868 19.5724 27.904 19.5724H33.6188V17.877L33.629 12.9686H36.3427L39.3445 17.237C40.3832 18.714 42.0684 19.5963 43.8523 19.5963H47.1915L47.1899 19.5947L47.1852 19.5801Z" fill="white"/>
<path d="M10.1842 8.40829C10.221 8.44137 10.268 8.45829 10.3157 8.45829C10.3423 8.45829 10.3697 8.45291 10.3948 8.44137C10.466 8.4106 10.5114 8.34137 10.5114 8.26522V2.91137C10.5012 2.84752 10.491 2.78445 10.4777 2.72214L10.4738 2.70214H10.4723C10.1537 1.32291 8.89817 0.289062 7.40001 0.289062H3.15209C1.41363 0.289062 0 1.67906 0 3.38675C0 5.09522 1.41441 6.48445 3.15209 6.48445L8.27041 6.48291L10.1842 8.40829Z" fill="white"/>
</g>
<defs>
<clipPath id="clip0_63_2436">
<rect width="196" height="20" fill="white"/>
</clipPath>
</defs>
</svg>
