<svg width="565" height="563" viewBox="0 0 565 563" fill="none" xmlns="http://www.w3.org/2000/svg">
<path d="M3.38878 194.082V327.97C4.30777 330.677 4.77896 333.854 3.60112 336.049C2.00014 339.032 2.91102 348.606 2.91102 353.015C2.91102 366.952 3.86654 380.598 3.86654 394.418C3.86654 401.902 2.91102 409.5 2.91102 417.123V437.602V482.17V525.107C2.91102 528.148 2.43327 531.479 2.43327 534.901C2.43327 538.143 1.47776 540.713 1.47776 544.003C1.47776 548.277 2.72957 554.933 4.82205 556.666C6.83083 558.33 7.27291 560.029 9.62615 560.029C11.9774 560.029 14.1846 559.139 16.5271 559.139H31.311H45.1659H52.5976C56.51 559.139 60.4481 561.81 64.3292 561.81C72.3799 561.81 80.42 562.225 88.4293 561.81C91.783 561.637 95.0944 560.92 98.4622 560.92C100.74 560.92 102.938 559.139 105.257 559.139C117.252 559.139 129.237 558.249 141.195 558.249C152.33 558.249 163.665 559.139 174.903 559.139H190.085C195.753 559.139 201.423 558.249 207.125 558.249C229.473 558.249 252.079 559.139 274.542 559.139C298.085 559.139 321.354 556.683 344.878 558.249C349.774 558.575 354.71 558.249 359.609 558.249C365.799 558.249 371.747 560.029 377.949 560.029C387.084 560.029 396.222 560.238 405.394 560.029C411.69 559.886 417.911 558.249 424.292 558.249C428.51 558.249 433.269 559.469 437.404 560.87C443.039 562.78 449.805 560.92 455.585 560.92C460.824 560.92 466.083 561.81 471.351 561.81C475.091 561.81 478.812 560.029 482.578 560.029C486.78 560.029 491.605 558.891 495.637 561.118C499.43 563.212 503.488 560.92 507.315 560.92C511.719 560.92 516.012 559.139 520.321 559.139H533.432C540.927 559.139 547.9 560.92 555.436 560.92C558.649 560.92 560.472 557.023 561.885 552.412C562.618 550.024 562.363 547.132 562.363 544.448C562.363 541.332 563.319 538.211 563.319 535.544C563.319 522.74 563.797 509.779 563.797 496.812C563.797 490.79 562.841 485.103 562.841 479.45V456.745V414.897C562.841 408.73 563.797 403.045 563.797 397.089V376.611C563.797 370.322 562.841 364.528 562.841 358.407V330.756C562.841 323.598 561.885 316.651 561.885 309.782V288.017C561.885 271.176 562.363 254.644 562.363 237.909C562.363 230.496 563.319 223.882 563.319 216.342C563.319 210.436 562.841 204.383 562.841 198.732C562.841 187.422 561.035 173.832 562.39 162.473C563.787 150.758 563.797 138.618 563.797 126.413C563.797 120.24 564.271 113.345 563.77 107.27C563.187 100.207 561.885 94.107 561.885 86.7909C561.885 80.5857 561.408 74.4857 561.408 68.0929V52.9564C561.408 47.0192 561.885 41.1405 561.885 35.5939C561.885 32.6122 563.242 30.1669 563.319 27.5805C563.402 24.7996 563.797 22.5684 563.797 19.567C563.797 14.4684 563.511 11.4841 561.302 8.18989C560.767 7.39297 559.866 8.37836 559.258 7.49737C558.7 6.68866 558.149 5.24578 557.586 4.62836C556.129 3.03163 554.445 3.54011 552.808 3.54011C551.225 3.54011 549.601 1.75935 547.792 1.75935C546.116 1.75935 544.319 2.64973 542.536 2.64973C538.407 2.64973 534.102 3.54011 529.876 3.54011H517.64C513.601 3.54011 506.877 5.84592 503.36 2.20454C501.023 -0.21559 495.359 1.75935 492.717 1.75935H481.41C469.102 1.75935 456.498 3.54011 444.145 3.54011H424.398C418.674 3.54011 412.668 2.5004 406.986 3.73798C398.98 5.48201 391.082 5.32088 382.992 5.32088C376.87 5.32088 370.742 2.64973 364.572 2.64973C338.842 2.64973 313.204 1.75935 287.494 1.75935C271.554 1.75935 255.823 3.54011 239.878 3.54011H203.993C196.317 3.54011 188.736 2.64973 181.114 2.64973C176.658 2.64973 171.979 4.4305 167.498 4.4305C162.211 4.4305 157.227 5.32088 151.971 5.32088H141.726C138.408 5.32088 134.278 6.4077 131.056 4.62836C129.06 3.52652 126.268 4.01616 124.208 3.58958C120.853 2.89478 117.208 3.54011 113.83 3.54011H97.0024H70.5135C62.3817 3.54011 54.1637 5.32088 46.0152 5.32088H22.499C16.496 5.32088 11.0245 0.525348 6.01644 7.99203C4.13909 10.791 2.91102 18.3711 2.91102 22.6833C2.91102 29.6142 1.95551 35.7486 1.95551 42.6675V63.3936C1.95551 69.7568 2.72879 75.7806 2.91102 81.8938C3.09343 88.0128 4.34429 92.0912 4.34429 98.3659C4.34429 104.962 3.86654 111.203 3.86654 117.905C3.86654 143.325 3.38878 168.925 3.38878 194.082Z" fill="#FFE9D1"/>
<path d="M3.38878 333.872C3.38878 287.146 3.38878 240.884 3.38878 194.082C3.38878 168.925 3.86654 143.325 3.86654 117.905C3.86654 111.203 4.34429 104.962 4.34429 98.3659C4.34429 92.0912 3.09343 88.0128 2.91102 81.8938C2.72879 75.7806 1.95551 69.7568 1.95551 63.3936C1.95551 56.4849 1.95551 49.5762 1.95551 42.6675C1.95551 35.7486 2.91102 29.6142 2.91102 22.6833C2.91102 18.3711 4.13909 10.791 6.01644 7.99203C11.0245 0.525348 16.496 5.32088 22.499 5.32088C30.3378 5.32088 38.1765 5.32088 46.0152 5.32088C54.1637 5.32088 62.3817 3.54011 70.5135 3.54011C79.3431 3.54011 88.1728 3.54011 97.0024 3.54011C102.612 3.54011 108.221 3.54011 113.83 3.54011C117.208 3.54011 120.853 2.89478 124.208 3.58958C126.268 4.01616 129.06 3.52652 131.056 4.62836C134.278 6.4077 138.408 5.32088 141.726 5.32088C145.141 5.32088 148.556 5.32088 151.971 5.32088C157.227 5.32088 162.211 4.4305 167.498 4.4305C171.979 4.4305 176.658 2.64973 181.114 2.64973C188.736 2.64973 196.317 3.54011 203.993 3.54011C215.955 3.54011 227.916 3.54011 239.878 3.54011C255.823 3.54011 271.554 1.75935 287.494 1.75935C313.204 1.75935 338.842 2.64973 364.572 2.64973C370.742 2.64973 376.87 5.32088 382.992 5.32088C391.082 5.32088 398.98 5.48201 406.986 3.73798C412.668 2.5004 418.674 3.54011 424.398 3.54011C430.98 3.54011 437.563 3.54011 444.145 3.54011C456.498 3.54011 469.102 1.75935 481.41 1.75935C485.179 1.75935 488.948 1.75935 492.717 1.75935C495.359 1.75935 501.023 -0.21559 503.36 2.20454C506.877 5.84592 513.601 3.54011 517.64 3.54011C521.719 3.54011 525.797 3.54011 529.876 3.54011C534.102 3.54011 538.407 2.64973 542.536 2.64973C544.319 2.64973 546.116 1.75935 547.792 1.75935C549.601 1.75935 551.225 3.54011 552.808 3.54011C554.445 3.54011 556.129 3.03163 557.586 4.62836C558.149 5.24578 558.7 6.68866 559.258 7.49737C559.866 8.37836 560.767 7.39297 561.302 8.18989C563.511 11.4841 563.797 14.4684 563.797 19.567C563.797 22.5684 563.402 24.7996 563.319 27.5805C563.242 30.1669 561.886 32.6122 561.886 35.5939C561.886 41.1405 561.408 47.0192 561.408 52.9564C561.408 57.5637 561.408 63.2073 561.408 68.0929C561.408 74.4857 561.886 80.5857 561.886 86.7909C561.886 94.107 563.187 100.207 563.77 107.27C564.272 113.345 563.797 120.24 563.797 126.413C563.797 138.618 563.787 150.758 562.39 162.473C561.035 173.832 562.841 187.422 562.841 198.732C562.841 204.383 563.319 210.436 563.319 216.342C563.319 223.882 562.363 230.496 562.363 237.909C562.363 254.644 561.886 271.176 561.886 288.017C561.886 295.272 561.886 302.527 561.886 309.782C561.886 316.651 562.841 323.598 562.841 330.756C562.841 339.973 562.841 349.19 562.841 358.407C562.841 364.528 563.797 370.322 563.797 376.611C563.797 383.437 563.797 390.263 563.797 397.089C563.797 403.045 562.841 408.73 562.841 414.897C562.841 428.846 562.841 442.796 562.841 456.745C562.841 464.313 562.841 471.882 562.841 479.45C562.841 485.103 563.797 490.79 563.797 496.812C563.797 509.779 563.319 522.74 563.319 535.544C563.319 538.211 562.363 541.332 562.363 544.448C562.363 547.132 562.618 550.024 561.886 552.412C560.472 557.023 558.649 560.92 555.436 560.92C547.9 560.92 540.927 559.139 533.432 559.139C529.062 559.139 524.691 559.139 520.321 559.139C516.012 559.139 511.719 560.92 507.315 560.92C503.488 560.92 499.43 563.212 495.637 561.118C491.605 558.891 486.78 560.029 482.578 560.029C478.812 560.029 475.091 561.81 471.351 561.81C466.083 561.81 460.824 560.92 455.585 560.92C449.805 560.92 443.039 562.78 437.404 560.87C433.269 559.469 428.51 558.249 424.292 558.249C417.911 558.249 411.69 559.886 405.394 560.029C396.222 560.238 387.084 560.029 377.949 560.029C371.747 560.029 365.799 558.249 359.609 558.249C354.71 558.249 349.774 558.575 344.878 558.249C321.354 556.683 298.085 559.139 274.542 559.139C252.079 559.139 229.473 558.249 207.125 558.249C201.423 558.249 195.753 559.139 190.085 559.139C185.028 559.139 179.893 559.139 174.903 559.139C163.665 559.139 152.33 558.249 141.195 558.249C129.237 558.249 117.252 559.139 105.257 559.139C102.938 559.139 100.74 560.92 98.4622 560.92C95.0944 560.92 91.783 561.637 88.4293 561.81C80.42 562.225 72.3799 561.81 64.3292 561.81C60.4481 561.81 56.51 559.139 52.5976 559.139C50.1204 559.139 47.6431 559.139 45.1659 559.139C40.5476 559.139 35.9293 559.139 31.311 559.139C26.383 559.139 21.455 559.139 16.5271 559.139C14.1846 559.139 11.9774 560.029 9.62615 560.029C7.27291 560.029 6.83083 558.33 4.82205 556.666C2.72957 554.933 1.47776 548.277 1.47776 544.003C1.47776 540.713 2.43327 538.143 2.43327 534.901C2.43327 531.479 2.91102 528.148 2.91102 525.107C2.91102 510.795 2.91102 496.482 2.91102 482.17C2.91102 467.314 2.91102 452.458 2.91102 437.602C2.91102 430.776 2.91102 423.949 2.91102 417.123C2.91102 409.5 3.86654 401.902 3.86654 394.418C3.86654 380.598 2.91102 366.952 2.91102 353.015C2.91102 348.606 2.00014 339.032 3.60112 336.049C5.69371 332.149 2.58126 325.152 1 323.188" stroke="#040D26" stroke-width="2" stroke-linecap="round"/>
</svg>
